<svg width="25" height="25" fill="none" xmlns="http://www.w3.org/2000/svg"><path d="M6.25.781a.781.781 0 0 0-1.563 0v.781H3.125A3.125 3.125 0 0 0 0 4.688V6.25h25V4.687a3.125 3.125 0 0 0-3.125-3.125h-1.563v-.78a.781.781 0 1 0-1.562 0v.78H6.25v-.78zm8.44 15.228c.977 0 1.85-.756 1.85-1.843 0-1.3-.823-1.922-1.812-1.922-.915 0-1.825.604-1.825 1.89 0 1.277.849 1.875 1.788 1.875z" fill="#9E9E9E"/><path d="M25 21.875V7.812H0v14.063A3.125 3.125 0 0 0 3.125 25h18.75A3.125 3.125 0 0 0 25 21.875zm-10.412-1.89c-1.735 0-2.588-1.2-2.661-2.2h1.067c.067.58.604 1.282 1.642 1.282 1.319 0 2.033-1.325 2.039-3.381h-.042c-.24.647-.995 1.234-2.161 1.234-1.331 0-2.619-.953-2.619-2.765 0-1.777 1.361-2.827 2.808-2.827 1.831 0 3.051 1.147 3.051 4.169 0 2.82-1.159 4.486-3.124 4.486v.001zm-4.516-8.493v8.331H9.016v-7.2h-.02c-.452.244-1.379.813-1.965 1.215V12.75c.658-.46 1.343-.88 2.052-1.258h.989z" fill="#9E9E9E"/></svg>