<svg width="29" height="34" fill="none" xmlns="http://www.w3.org/2000/svg"><path fill-rule="evenodd" clip-rule="evenodd" d="M14.498 2.756c7.731 0 14 6.267 14 14 0 7.731-6.269 14-14 14-7.733 0-14-6.269-14-14 0-7.733 6.267-14 14-14z" fill="#0072BC"/><path fill-rule="evenodd" clip-rule="evenodd" d="M8.886 18.264c.658 2.307 1.852 4.413 3.175 5.726.877.87 2.294 1.709 3.729 1.862.775.083 1.7-.026 2.392-.338 1.853-.836.934-2.056.085-3.285-.976-1.505-1.528-1.857-2.728-1.603-.553.293-1.742-.76-2.387-2.31a9.883 9.883 0 0 1-.6-2.043c-.287-1.638.167-3.092.805-3.09 1.178-.33 1.465-.885 1.488-2.634.06-1.403.143-2.925-1.872-2.806-.77.045-1.632.372-2.258.798-1.16.786-1.927 2.161-2.21 3.315-.43 1.741-.31 4.11.381 6.408z" fill="#0072BC"/><path d="M21.584 19.984v2.125a1.417 1.417 0 0 1-1.545 1.417 14.02 14.02 0 0 1-6.113-2.174 13.813 13.813 0 0 1-4.25-4.25 14.018 14.018 0 0 1-2.174-6.142 1.417 1.417 0 0 1 1.41-1.544h2.124a1.417 1.417 0 0 1 1.417 1.218c.09.68.256 1.348.496 1.99a1.417 1.417 0 0 1-.319 1.495l-.9.9a11.333 11.333 0 0 0 4.25 4.25l.9-.9a1.417 1.417 0 0 1 1.495-.318c.642.24 1.31.406 1.99.496a1.416 1.416 0 0 1 1.219 1.437z" fill="#E3F4FF" stroke="#E3F4FF" stroke-width="1.417" stroke-linecap="round" stroke-linejoin="round"/></svg>