<svg width="56" height="57" fill="none" xmlns="http://www.w3.org/2000/svg"><ellipse cx="27.622" cy="28.093" rx="26.622" ry="27.093" fill="#fff"/><path d="M27.622 55.686c14.988 0 27.122-12.362 27.122-27.593C54.744 12.863 42.61.5 27.622.5 12.635.5.5 12.862.5 28.093s12.135 27.593 27.122 27.593z" stroke="#BCBCBC" stroke-opacity=".22"/><path d="M39.135 20.956a2.796 2.796 0 0 0-2.051-.865H32.98v-.05c0-.617-.247-1.21-.667-1.606a2.261 2.261 0 0 0-1.607-.667h-7.414a2.276 2.276 0 0 0-2.299 2.273v.05h-4.078c-.815 0-1.532.321-2.051.865A2.938 2.938 0 0 0 14 23.007v12.308c0 .816.321 1.532.865 2.051.519.52 1.26.865 2.051.865h20.168c.815 0 1.532-.32 2.051-.865.519-.519.865-1.26.865-2.05V23.006c0-.816-.321-1.532-.865-2.051zm-.42 14.36h-.025c0 .444-.173.84-.47 1.136-.296.297-.691.47-1.136.47H16.916c-.445 0-.84-.173-1.136-.47a1.587 1.587 0 0 1-.47-1.137V23.007c0-.445.173-.84.47-1.137.296-.296.691-.47 1.136-.47h4.77c.371 0 .668-.296.668-.667v-.716a.97.97 0 0 1 .271-.692.97.97 0 0 1 .692-.272h7.39a.97.97 0 0 1 .692.272.97.97 0 0 1 .272.692v.716c0 .371.297.668.667.668h4.77c.445 0 .84.173 1.137.47.297.296.47.691.47 1.136v12.308z" fill="#2262B1"/><path d="M27 23.081a6.09 6.09 0 0 0-4.3 1.78 6.031 6.031 0 0 0-1.78 4.3 6.09 6.09 0 0 0 1.78 4.3 6.032 6.032 0 0 0 4.3 1.78c1.68 0 3.213-.692 4.3-1.78a6.031 6.031 0 0 0 1.78-4.3 6.09 6.09 0 0 0-1.78-4.3 6.09 6.09 0 0 0-4.3-1.78zm3.361 9.466A4.83 4.83 0 0 1 27 33.93a4.83 4.83 0 0 1-3.361-1.384 4.724 4.724 0 0 1-1.384-3.361 4.83 4.83 0 0 1 1.384-3.362 4.725 4.725 0 0 1 3.36-1.384 4.83 4.83 0 0 1 3.362 1.384 4.725 4.725 0 0 1 1.384 3.362c.025 1.31-.519 2.496-1.384 3.36zM35.799 25.479a1.211 1.211 0 1 0 0-2.422 1.211 1.211 0 0 0 0 2.422z" fill="#2262B1"/></svg>