<svg width="314" height="124" fill="none" xmlns="http://www.w3.org/2000/svg"><rect x="6" width="308" height="124" rx="4" fill="url(#a)"/><path d="M21.408 17.128c.203.032.387.115.552.248.17.133.304.299.4.496.101.197.152.408.152.632 0 .283-.072.539-.216.768a1.5 1.5 0 0 1-.632.536 2.255 2.255 0 0 1-.968.192h-2.08v-5.576h2c.379 0 .701.064.968.192.267.123.467.29.6.504.133.213.2.453.2.72 0 .33-.09.605-.272.824-.176.213-.41.368-.704.464zm-2.064-.296h1.224c.341 0 .605-.08.792-.24.187-.16.28-.381.28-.664 0-.283-.093-.504-.28-.664-.187-.16-.456-.24-.808-.24h-1.208v1.808zm1.288 2.568c.363 0 .645-.085.848-.256.203-.17.304-.408.304-.712 0-.31-.107-.552-.32-.728-.213-.181-.499-.272-.856-.272h-1.264V19.4h1.288zm6.186-.64h-2.432L23.938 20h-.768l2.016-5.544h.84L28.034 20h-.768l-.448-1.24zm-.208-.592-1.008-2.816-1.008 2.816h2.016zM33.297 20h-.728l-2.928-4.44V20h-.728v-5.584h.728l2.928 4.432v-4.432h.728V20zm4.265 0-2.296-2.544V20h-.728v-5.576h.728v2.584l2.304-2.584h.92l-2.528 2.792L38.514 20h-.952zm3.626-2.792c0-.544.122-1.032.368-1.464a2.674 2.674 0 0 1 1-1.024 2.79 2.79 0 0 1 1.416-.368c.608 0 1.138.147 1.592.44.453.293.784.71.992 1.248h-.872a1.743 1.743 0 0 0-.672-.776c-.288-.181-.635-.272-1.04-.272-.39 0-.739.09-1.048.272a1.89 1.89 0 0 0-.728.776c-.176.33-.264.72-.264 1.168 0 .443.088.832.264 1.168.176.33.418.587.728.768.31.181.658.272 1.048.272.405 0 .752-.088 1.04-.264.293-.181.517-.44.672-.776h.872a2.525 2.525 0 0 1-.992 1.24c-.454.288-.984.432-1.592.432-.518 0-.99-.12-1.416-.36a2.69 2.69 0 0 1-1-1.016 2.911 2.911 0 0 1-.368-1.464zm10.747-2.784V20h-.728v-2.528h-2.84V20h-.728v-5.576h.728v2.448h2.84v-2.448h.728zm1.971.592v1.864h2.032v.6h-2.032v1.92h2.273v.6h-3v-5.584h3v.6h-2.273zm7.846 6.04-1.112-1.112c-.272.075-.55.112-.832.112-.517 0-.99-.12-1.416-.36a2.73 2.73 0 0 1-1.016-1.016 2.956 2.956 0 0 1-.368-1.472c0-.544.123-1.032.368-1.464.25-.437.59-.776 1.016-1.016a2.79 2.79 0 0 1 1.416-.368c.523 0 .997.123 1.424.368.427.24.763.576 1.008 1.008.245.432.368.923.368 1.472 0 .533-.117 1.013-.352 1.44a2.625 2.625 0 0 1-.968 1.008l1.408 1.4h-.944zm-4-3.848c0 .443.088.832.264 1.168.181.336.427.595.736.776.315.181.667.272 1.056.272.39 0 .739-.09 1.048-.272.315-.181.56-.44.736-.776.181-.336.272-.725.272-1.168 0-.448-.09-.837-.272-1.168a1.896 1.896 0 0 0-.728-.776 2.05 2.05 0 0 0-1.056-.272c-.395 0-.747.09-1.056.272-.31.181-.555.44-.736.776-.176.33-.264.72-.264 1.168zm6.545-2.784v3.528c0 .496.12.864.36 1.104.245.24.584.36 1.016.36.426 0 .76-.12 1-.36.245-.24.368-.608.368-1.104v-3.528h.728v3.52c0 .464-.094.856-.28 1.176-.187.315-.44.55-.76.704a2.38 2.38 0 0 1-1.064.232 2.43 2.43 0 0 1-1.072-.232 1.769 1.769 0 0 1-.752-.704c-.182-.32-.272-.712-.272-1.176v-3.52h.728zm5.414.592v1.864h2.032v.6h-2.032v1.92h2.272v.6h-3v-5.584h3v.6h-2.272zm185.641-.592c.608 0 1.133.115 1.576.344a2.34 2.34 0 0 1 1.024.968c.24.421.36.917.36 1.488 0 .57-.12 1.067-.36 1.488a2.351 2.351 0 0 1-1.024.96c-.443.219-.968.328-1.576.328h-1.736v-5.576h1.736zm0 4.976c.72 0 1.269-.19 1.648-.568.379-.384.568-.92.568-1.608 0-.693-.192-1.235-.576-1.624-.379-.39-.925-.584-1.64-.584h-1.008V19.4h1.008zm5.656-4.976c.608 0 1.134.115 1.576.344.448.224.79.547 1.024.968.24.421.36.917.36 1.488 0 .57-.12 1.067-.36 1.488a2.346 2.346 0 0 1-1.024.96c-.442.219-.968.328-1.576.328h-1.736v-5.576h1.736zm0 4.976c.72 0 1.27-.19 1.648-.568.379-.384.568-.92.568-1.608 0-.693-.192-1.235-.576-1.624-.378-.39-.925-.584-1.64-.584H260V19.4h1.008zm6.641-6.936-2.192 8.896h-.72l2.184-8.896h.728zm6.74 2V20h-.728v-4.128L271.821 20h-.512l-1.848-4.136V20h-.728v-5.536h.784l2.048 4.576 2.048-4.576h.776zm6.891 0V20h-.728v-4.128L278.712 20h-.512l-1.848-4.136V20h-.728v-5.536h.784l2.048 4.576 2.048-4.576h.776zm3.954-2-2.192 8.896h-.72l2.184-8.896h.728zm4.989 1.96-1.816 3.472V20h-.728v-2.104l-1.824-3.472h.808l1.376 2.824 1.376-2.824h.808zm4.672 0-1.816 3.472V20h-.728v-2.104l-1.824-3.472h.808l1.376 2.824 1.376-2.824h.808zm4.672 0-1.816 3.472V20h-.728v-2.104l-1.824-3.472h.808l1.376 2.824 1.376-2.824h.808zm4.672 0-1.816 3.472V20h-.728v-2.104l-1.824-3.472h.808l1.376 2.824 1.376-2.824h.808z" fill="#000"/><rect x="12" y="27" width="99" height="24" rx="2" fill="#216BDB"/><path d="M20.344 36.424V42h-.728v-5.576h.728zm4.393 0v.592h-2.424v1.88h1.968v.592h-1.968V42h-.728v-5.576h3.152zm2.647 5.632c-.368 0-.699-.064-.992-.192a1.694 1.694 0 0 1-.68-.544 1.413 1.413 0 0 1-.256-.808h.776c.027.261.133.483.32.664.192.176.47.264.832.264.347 0 .619-.085.816-.256a.85.85 0 0 0 .304-.672.758.758 0 0 0-.176-.52 1.124 1.124 0 0 0-.44-.304 6.88 6.88 0 0 0-.712-.224 6.468 6.468 0 0 1-.888-.288 1.474 1.474 0 0 1-.568-.448c-.155-.208-.232-.485-.232-.832 0-.304.077-.573.232-.808.155-.235.37-.416.648-.544.283-.128.605-.192.968-.192.523 0 .95.13 1.28.392.336.261.525.608.568 1.04h-.8c-.027-.213-.139-.4-.336-.56-.197-.165-.459-.248-.784-.248-.304 0-.552.08-.744.24-.192.155-.288.373-.288.656 0 .203.056.368.168.496.117.128.259.227.424.296.17.064.408.139.712.224.368.101.664.203.888.304.224.096.416.248.576.456.16.203.24.48.24.832 0 .272-.072.528-.216.768-.144.24-.357.435-.64.584-.283.15-.616.224-1 .224zm2.655-2.848c0-.544.123-1.032.368-1.464a2.674 2.674 0 0 1 1-1.024 2.79 2.79 0 0 1 1.416-.368c.608 0 1.139.147 1.592.44.454.293.784.71.992 1.248h-.872a1.743 1.743 0 0 0-.672-.776c-.288-.181-.634-.272-1.04-.272-.389 0-.738.09-1.048.272-.309.181-.552.44-.728.776-.176.33-.264.72-.264 1.168 0 .443.088.832.264 1.168.176.33.419.587.728.768.31.181.659.272 1.048.272.406 0 .752-.088 1.04-.264.294-.181.518-.44.672-.776h.872a2.525 2.525 0 0 1-.992 1.24c-.453.288-.984.432-1.592.432a2.84 2.84 0 0 1-1.416-.36 2.69 2.69 0 0 1-1-1.016 2.912 2.912 0 0 1-.368-1.464zm8.313 0c0-.544.123-1.032.368-1.464a2.674 2.674 0 0 1 1-1.024 2.79 2.79 0 0 1 1.416-.368c.608 0 1.139.147 1.592.44.453.293.784.71.992 1.248h-.872a1.743 1.743 0 0 0-.672-.776c-.288-.181-.635-.272-1.04-.272-.39 0-.739.09-1.048.272a1.89 1.89 0 0 0-.728.776c-.176.33-.264.72-.264 1.168 0 .443.088.832.264 1.168.176.33.419.587.728.768.31.181.658.272 1.048.272.405 0 .752-.088 1.04-.264.293-.181.517-.44.672-.776h.872a2.525 2.525 0 0 1-.992 1.24c-.453.288-.984.432-1.592.432-.518 0-.99-.12-1.416-.36a2.69 2.69 0 0 1-1-1.016 2.912 2.912 0 0 1-.368-1.464zm8.364 2.864a2.26 2.26 0 0 1-1.12-.28 2.035 2.035 0 0 1-.784-.792 2.492 2.492 0 0 1-.28-1.2c0-.448.096-.843.288-1.184.197-.347.463-.61.8-.792a2.28 2.28 0 0 1 1.128-.28c.416 0 .791.093 1.128.28.336.181.6.443.791.784.198.341.297.739.297 1.192 0 .453-.102.853-.304 1.2a2.06 2.06 0 0 1-.808.792c-.342.187-.72.28-1.136.28zm0-.64c.26 0 .506-.061.736-.184.229-.123.413-.307.552-.552.144-.245.215-.544.215-.896s-.069-.65-.208-.896a1.335 1.335 0 0 0-.544-.544 1.491 1.491 0 0 0-.727-.184 1.5 1.5 0 0 0-.736.184 1.3 1.3 0 0 0-.529.544c-.133.245-.2.544-.2.896 0 .357.065.659.193.904.133.245.309.43.527.552a1.5 1.5 0 0 0 .72.176zm2.933-1.64c0-.448.09-.84.272-1.176.181-.341.429-.605.744-.792.32-.187.677-.28 1.072-.28.341 0 .658.08.952.24.293.155.517.36.672.616v-2.32h.736V42h-.736v-.824a1.732 1.732 0 0 1-.64.648 1.93 1.93 0 0 1-.992.248c-.39 0-.744-.096-1.064-.288a2.02 2.02 0 0 1-.744-.808 2.517 2.517 0 0 1-.272-1.184zm3.712.008c0-.33-.067-.619-.2-.864a1.377 1.377 0 0 0-.544-.56 1.428 1.428 0 0 0-.744-.2c-.272 0-.52.064-.744.192a1.393 1.393 0 0 0-.536.56c-.134.245-.2.533-.2.864 0 .336.066.63.2.88.133.245.312.435.536.568.224.128.472.192.744.192s.52-.064.744-.192c.229-.133.41-.323.544-.568.133-.25.2-.541.2-.872zm5.966-.16c0 .139-.008.285-.024.44h-3.504c.027.432.173.77.44 1.016.272.24.6.36.984.36.315 0 .576-.072.784-.216.213-.15.363-.347.448-.592h.784a1.904 1.904 0 0 1-.704 1.032c-.352.261-.79.392-1.312.392-.416 0-.79-.093-1.12-.28a1.997 1.997 0 0 1-.768-.792 2.493 2.493 0 0 1-.28-1.2c0-.453.09-.85.272-1.192a1.89 1.89 0 0 1 .76-.784c.33-.187.71-.28 1.136-.28a2.2 2.2 0 0 1 1.104.272c.32.181.565.432.736.752.176.315.264.672.264 1.072zm-.752-.152a1.32 1.32 0 0 0-.184-.712 1.157 1.157 0 0 0-.504-.456 1.502 1.502 0 0 0-.696-.16c-.368 0-.683.117-.944.352-.256.235-.403.56-.44.976h2.768zm6.126-.272L66.413 42h-.824l-1.336-2.176L62.98 42h-.808l1.704-2.784-1.712-2.792h.816l1.344 2.184 1.28-2.184h.816l-1.72 2.792zm4.968 0L71.381 42h-.824l-1.336-2.176L67.95 42h-.808l1.704-2.784-1.712-2.792h.816l1.344 2.184 1.28-2.184h.816l-1.72 2.792zm4.97 0L76.35 42h-.824l-1.336-2.176L72.918 42h-.808l1.704-2.784-1.712-2.792h.816l1.344 2.184 1.28-2.184h.816l-1.72 2.792zm4.968 0L81.319 42h-.824l-1.336-2.176L77.887 42h-.808l1.704-2.784-1.712-2.792h.816l1.344 2.184 1.28-2.184h.816l-1.72 2.792zm7.102 0L88.42 42h-.825l-1.336-2.176L84.988 42h-.808l1.704-2.784-1.712-2.792h.817l1.343 2.184 1.28-2.184h.817l-1.72 2.792zm4.968 0L93.39 42h-.824l-1.336-2.176L89.957 42h-.808l1.704-2.784-1.712-2.792h.816l1.344 2.184 1.28-2.184h.816l-1.72 2.792zm4.969 0L98.358 42h-.824l-1.336-2.176L94.926 42h-.808l1.704-2.784-1.712-2.792h.816l1.344 2.184 1.28-2.184h.816l-1.72 2.792zm4.969 0L103.327 42h-.824l-1.336-2.176L99.895 42h-.808l1.704-2.784-1.712-2.792h.816l1.344 2.184 1.28-2.184h.816l-1.72 2.792z" fill="#fff"/><rect x="12" y="100" width="115" height="24" rx="2" fill="#216BDB"/><path d="M22.344 60.056c0 .464-.16.85-.48 1.16-.315.304-.797.456-1.448.456h-1.072V64h-.728v-5.576h1.8c.63 0 1.107.152 1.432.456.33.304.496.696.496 1.176zm-1.928 1.016c.405 0 .704-.088.896-.264.192-.176.288-.427.288-.752 0-.688-.395-1.032-1.184-1.032h-1.072v2.048h1.072zm2.56.72c0-.448.091-.84.273-1.176.181-.341.43-.605.744-.792a2.07 2.07 0 0 1 1.064-.28c.384 0 .717.083 1 .248.283.165.493.373.632.624v-.8h.736V64h-.736v-.816c-.144.256-.36.47-.648.64a1.93 1.93 0 0 1-.992.248c-.39 0-.741-.096-1.056-.288a2.02 2.02 0 0 1-.744-.808 2.517 2.517 0 0 1-.272-1.184zm3.713.008c0-.33-.067-.619-.2-.864a1.377 1.377 0 0 0-.544-.56 1.428 1.428 0 0 0-.744-.2c-.272 0-.52.064-.744.192a1.393 1.393 0 0 0-.536.56c-.133.245-.2.533-.2.864 0 .336.067.63.2.88.133.245.312.435.536.568.224.128.472.192.744.192s.52-.064.744-.192c.23-.133.41-.323.544-.568.133-.25.2-.541.2-.872zm5.742-2.184-2.64 6.448h-.752l.864-2.112-1.768-4.336h.808l1.376 3.552 1.36-3.552h.752zM21.552 88l-1.328-2.28h-.88V88h-.728v-5.576h1.8c.421 0 .776.072 1.064.216a1.5 1.5 0 0 1 .656.584c.144.245.216.525.216.84 0 .384-.112.723-.336 1.016-.219.293-.55.488-.992.584l1.4 2.336h-.872zm-2.208-2.864h1.072c.395 0 .69-.096.888-.288.197-.197.296-.459.296-.784 0-.33-.099-.587-.296-.768-.192-.181-.488-.272-.888-.272h-1.072v2.112zm8.027-1.52V88h-.728v-.648c-.139.224-.333.4-.584.528a1.798 1.798 0 0 1-.816.184c-.341 0-.648-.07-.92-.208a1.592 1.592 0 0 1-.648-.64c-.155-.283-.232-.627-.232-1.032v-2.568h.72v2.472c0 .432.11.765.328 1 .219.23.518.344.896.344.39 0 .696-.12.92-.36.224-.24.336-.59.336-1.048v-2.408h.728zm1.957.808c.144-.25.358-.459.64-.624.288-.17.622-.256 1-.256.39 0 .742.093 1.056.28.32.187.571.45.752.792.182.336.272.728.272 1.176 0 .443-.09.837-.272 1.184a2.002 2.002 0 0 1-1.808 1.096 1.96 1.96 0 0 1-.992-.248 1.842 1.842 0 0 1-.648-.632v2.888H28.6v-6.464h.728v.808zm2.976 1.368c0-.33-.066-.619-.2-.864a1.378 1.378 0 0 0-.544-.56 1.473 1.473 0 0 0-.744-.192 1.455 1.455 0 0 0-1.288.768c-.133.245-.2.53-.2.856 0 .33.067.621.2.872.139.245.32.435.544.568.23.128.478.192.744.192.272 0 .52-.064.744-.192.23-.133.411-.323.544-.568.134-.25.2-.544.2-.88zm5.703-.152c0 .139-.008.285-.024.44h-3.504c.026.432.173.77.44 1.016.272.24.6.36.984.36.314 0 .576-.072.784-.216.213-.15.362-.347.448-.592h.784a1.904 1.904 0 0 1-.704 1.032c-.352.261-.79.392-1.312.392-.416 0-.79-.093-1.12-.28a1.997 1.997 0 0 1-.768-.792 2.493 2.493 0 0 1-.28-1.2c0-.453.09-.85.272-1.192.181-.341.434-.603.76-.784.33-.187.709-.28 1.136-.28a2.2 2.2 0 0 1 1.104.272c.32.181.565.432.736.752.176.315.264.672.264 1.072zm-.752-.152c0-.277-.062-.515-.184-.712a1.157 1.157 0 0 0-.504-.456 1.502 1.502 0 0 0-.696-.16c-.368 0-.683.117-.944.352-.256.235-.403.56-.44.976h2.768zm5.713.152c0 .139-.008.285-.024.44H39.44c.026.432.173.77.44 1.016.272.24.6.36.984.36.314 0 .576-.072.784-.216.213-.15.362-.347.448-.592h.784a1.904 1.904 0 0 1-.704 1.032c-.352.261-.79.392-1.312.392-.416 0-.79-.093-1.12-.28a1.996 1.996 0 0 1-.768-.792 2.492 2.492 0 0 1-.28-1.2c0-.453.09-.85.272-1.192a1.89 1.89 0 0 1 .76-.784c.33-.187.709-.28 1.136-.28a2.2 2.2 0 0 1 1.104.272c.32.181.565.432.736.752.176.315.264.672.264 1.072zm-.752-.152c0-.277-.062-.515-.184-.712a1.158 1.158 0 0 0-.504-.456 1.502 1.502 0 0 0-.696-.16c-.368 0-.683.117-.944.352-.256.235-.403.56-.44.976h2.768zm3.264 2.584a2.31 2.31 0 0 1-.903-.168 1.57 1.57 0 0 1-.633-.48 1.297 1.297 0 0 1-.256-.712h.752a.742.742 0 0 0 .305.536c.186.139.429.208.727.208.278 0 .496-.061.657-.184a.562.562 0 0 0 .24-.464.45.45 0 0 0-.257-.424c-.17-.096-.434-.19-.791-.28a6.52 6.52 0 0 1-.8-.256 1.519 1.519 0 0 1-.529-.392c-.143-.176-.215-.405-.215-.688 0-.224.066-.43.2-.616.133-.187.322-.333.568-.44a2 2 0 0 1 .84-.168c.485 0 .877.123 1.175.368.3.245.46.581.48 1.008h-.727a.747.747 0 0 0-.28-.552c-.166-.139-.39-.208-.672-.208-.262 0-.47.056-.624.168a.52.52 0 0 0-.233.44c0 .144.046.264.137.36.096.09.213.165.352.224.143.053.34.115.591.184.315.085.571.17.768.256.198.08.366.203.505.368.144.165.218.381.224.648 0 .24-.067.456-.2.648a1.358 1.358 0 0 1-.569.456 2.03 2.03 0 0 1-.831.16z" fill="#9E9E9E"/><path stroke="#D9D9D9" stroke-width=".5" d="M18 68.75h265m-265 24h200"/><rect x="227.25" y="73.25" width="79.5" height="23.5" rx="1.75" stroke="#8A8A8A" stroke-width=".5"/><path stroke="#8A8A8A" stroke-width=".5" d="M247.25 75v20"/><path d="m262.356 89-1.56-2.448-1.5 2.448h-1.14l2.124-3.264-2.124-3.312h1.236l1.56 2.436 1.488-2.436h1.14l-2.112 3.252L263.592 89h-1.236zm5.742 0-1.56-2.448-1.5 2.448h-1.14l2.124-3.264-2.124-3.312h1.236l1.56 2.436 1.488-2.436h1.14l-2.112 3.252L269.334 89h-1.236zm5.742 0-1.56-2.448-1.5 2.448h-1.14l2.124-3.264-2.124-3.312h1.236l1.56 2.436 1.488-2.436h1.14l-2.112 3.252L275.076 89h-1.236zm5.743 0-1.56-2.448-1.5 2.448h-1.14l2.124-3.264-2.124-3.312h1.236l1.56 2.436 1.488-2.436h1.14l-2.112 3.252L280.819 89h-1.236z" fill="#3E3E3E"/><path d="M21.912 113.76H19.48l-.448 1.24h-.768l2.016-5.544h.84L23.128 115h-.768l-.448-1.24zm-.208-.592-1.008-2.816-1.008 2.816h2.016zm5.023-5.704-2.192 8.896h-.72l2.184-8.896h.728zm.812 5.336c0-.453.091-.848.272-1.184.182-.341.432-.605.752-.792a2.19 2.19 0 0 1 1.112-.28c.539 0 .982.131 1.328.392.352.261.584.624.696 1.088h-.784a1.12 1.12 0 0 0-.44-.632c-.213-.155-.48-.232-.8-.232-.416 0-.752.144-1.008.432-.256.283-.384.685-.384 1.208 0 .528.128.936.384 1.224.256.288.592.432 1.008.432.32 0 .587-.075.8-.224.214-.149.36-.363.44-.64h.784a1.947 1.947 0 0 1-.704 1.08c-.352.267-.792.4-1.32.4a2.19 2.19 0 0 1-1.112-.28 1.963 1.963 0 0 1-.752-.792c-.181-.341-.272-.741-.272-1.2zM41.32 115h-.728l-2.928-4.44V115h-.728v-5.584h.728l2.928 4.432v-4.432h.728V115zm3.153.072c-.41 0-.784-.093-1.12-.28a2.04 2.04 0 0 1-.784-.792 2.493 2.493 0 0 1-.28-1.2c0-.448.096-.843.288-1.184a2 2 0 0 1 .8-.792 2.28 2.28 0 0 1 1.128-.28c.416 0 .792.093 1.128.28.336.181.6.443.792.784.198.341.296.739.296 1.192 0 .453-.101.853-.304 1.2a2.064 2.064 0 0 1-.808.792c-.341.187-.72.28-1.136.28zm0-.64c.262 0 .507-.061.736-.184a1.37 1.37 0 0 0 .552-.552c.144-.245.216-.544.216-.896s-.069-.651-.208-.896a1.335 1.335 0 0 0-.544-.544 1.488 1.488 0 0 0-.728-.184c-.266 0-.512.061-.736.184a1.3 1.3 0 0 0-.528.544c-.133.245-.2.544-.2.896 0 .357.064.659.192.904.134.245.31.429.528.552.219.117.459.176.72.176zm3.438.616a.479.479 0 0 1-.352-.144.478.478 0 0 1-.145-.352c0-.139.048-.256.145-.352a.479.479 0 0 1 .352-.144c.133 0 .245.048.335.144a.478.478 0 0 1 .145.352.478.478 0 0 1-.145.352.444.444 0 0 1-.336.144zm11.985-2.832L61.608 115h-.824l-1.336-2.176L58.176 115h-.808l1.704-2.784-1.712-2.792h.816l1.344 2.184 1.28-2.184h.816l-1.72 2.792zm4.969 0L66.577 115h-.824l-1.336-2.176L63.145 115h-.808l1.704-2.784-1.712-2.792h.816l1.344 2.184 1.28-2.184h.816l-1.72 2.792zm4.969 0L71.546 115h-.825l-1.336-2.176L68.113 115h-.808l1.704-2.784-1.712-2.792h.817l1.343 2.184 1.28-2.184h.817l-1.72 2.792zm4.968 0L76.514 115h-.824l-1.336-2.176L73.082 115h-.808l1.704-2.784-1.712-2.792h.816l1.344 2.184 1.28-2.184h.816l-1.72 2.792zm7.102 0L83.616 115h-.824l-1.336-2.176L80.184 115h-.808l1.704-2.784-1.712-2.792h.816l1.344 2.184 1.28-2.184h.816l-1.72 2.792zm4.969 0L88.585 115h-.824l-1.336-2.176L85.153 115h-.808l1.704-2.784-1.712-2.792h.816l1.344 2.184 1.28-2.184h.816l-1.72 2.792zm4.968 0L93.553 115h-.824l-1.336-2.176L90.121 115h-.808l1.704-2.784-1.712-2.792h.816l1.344 2.184 1.28-2.184h.816l-1.72 2.792zm4.97 0 1.71 2.784h-.824l-1.336-2.176L95.09 115h-.808l1.704-2.784-1.712-2.792h.816l1.344 2.184 1.28-2.184h.816l-1.72 2.792zm7.101 0 1.712 2.784h-.824l-1.336-2.176-1.272 2.176h-.808l1.704-2.784-1.712-2.792h.816l1.344 2.184 1.28-2.184h.816l-1.72 2.792zm4.968 0 1.712 2.784h-.824l-1.336-2.176L107.16 115h-.808l1.704-2.784-1.712-2.792h.816l1.344 2.184 1.28-2.184h.816l-1.72 2.792zm4.969 0 1.712 2.784h-.824l-1.336-2.176-1.272 2.176h-.808l1.704-2.784-1.712-2.792h.816l1.344 2.184 1.28-2.184h.816l-1.72 2.792zm4.969 0L120.53 115h-.824l-1.336-2.176-1.272 2.176h-.808l1.704-2.784-1.712-2.792h.816l1.344 2.184 1.28-2.184h.816l-1.72 2.792z" fill="#fff"/><defs><linearGradient id="a" x1="22" y1="62" x2="279.5" y2="62" gradientUnits="userSpaceOnUse"><stop stop-color="#DDFBFE"/><stop offset="0" stop-color="#DAFCFF"/><stop offset=".531" stop-color="#EDF8F9" stop-opacity=".87"/><stop offset="1" stop-color="#DDFBFE"/></linearGradient></defs></svg>