<svg width="16" height="17" viewBox="0 0 16 17" fill="white" xmlns="http://www.w3.org/2000/svg">
<path d="M5.78083 9.29681C5.78083 9.09184 5.61457 8.92578 5.40943 8.92578H4.11339C3.90848 8.92578 3.74219 9.09184 3.74219 9.29681V10.5927C3.74219 10.7979 3.90848 10.9641 4.11339 10.9641H5.40943C5.61457 10.9641 5.78083 10.7979 5.78083 10.5927V9.29681Z" fill="white" fill-opacity="0.75"/>
<path d="M9.01891 9.29681C9.01891 9.09184 8.85262 8.92578 8.64788 8.92578H7.35167C7.14676 8.92578 6.98047 9.09184 6.98047 9.29681V10.5927C6.98047 10.7979 7.14676 10.9641 7.35167 10.9641H8.64788C8.85262 10.9641 9.01891 10.7979 9.01891 10.5927V9.29681Z" fill="white" fill-opacity="0.75"/>
<path d="M12.2574 9.29681C12.2574 9.09184 12.0911 8.92578 11.8862 8.92578H10.5901C10.385 8.92578 10.2188 9.09184 10.2188 9.29681V10.5927C10.2188 10.7979 10.385 10.9641 10.5901 10.9641H11.8862C12.0911 10.9641 12.2574 10.7979 12.2574 10.5927V9.29681Z" fill="white" fill-opacity="0.75"/>
<path d="M5.78083 12.5363C5.78083 12.331 5.61457 12.165 5.40943 12.165H4.11339C3.90848 12.165 3.74219 12.331 3.74219 12.5363V13.8319C3.74219 14.037 3.90848 14.2031 4.11339 14.2031H5.40943C5.61457 14.2031 5.78083 14.037 5.78083 13.8319V12.5363Z" fill="white" fill-opacity="0.75"/>
<path d="M9.01891 12.5363C9.01891 12.331 8.85262 12.165 8.64788 12.165H7.35167C7.14676 12.165 6.98047 12.331 6.98047 12.5363V13.8319C6.98047 14.037 7.14676 14.2031 7.35167 14.2031H8.64788C8.85262 14.2031 9.01891 14.037 9.01891 13.8319V12.5363Z" fill="white" fill-opacity="0.75"/>
<path d="M12.2574 12.5363C12.2574 12.331 12.0911 12.165 11.8864 12.165H10.5901C10.385 12.165 10.2188 12.331 10.2188 12.5363V13.8319C10.2188 14.037 10.385 14.2031 10.5901 14.2031H11.8864C12.0911 14.2031 12.2574 14.037 12.2574 13.8319V12.5363Z" fill="white" fill-opacity="0.75"/>
<path d="M14.5758 2.09109V4.07043C14.5758 4.96508 13.8501 5.68602 12.9556 5.68602H11.9334C11.0389 5.68602 10.3035 4.96508 10.3035 4.07043V2.08398H5.69652V4.07043C5.69652 4.96508 4.96116 5.68602 4.06672 5.68602H3.0444C2.14993 5.68602 1.42419 4.96508 1.42419 4.07043V2.09109C0.642407 2.11466 0 2.76155 0 3.55668V15.1566C0 15.9666 0.656586 16.6319 1.46666 16.6319H14.5333C15.3422 16.6319 16 15.9653 16 15.1566V3.55668C16 2.76155 15.3576 2.11466 14.5758 2.09109ZM14.1011 14.4342C14.1011 14.7843 13.8173 15.0683 13.467 15.0683H2.50503C2.15482 15.0683 1.87097 14.7843 1.87097 14.4342V8.44245C1.87097 8.09224 2.15479 7.80823 2.50503 7.80823H13.467C13.8172 7.80823 14.1011 8.09224 14.1011 8.44245L14.1011 14.4342Z" fill="white" fill-opacity="0.75"/>
<path d="M3.04007 4.62526H4.05109C4.35796 4.62526 4.60678 4.37681 4.60678 4.06994V0.825055C4.60678 0.518148 4.35796 0.269531 4.05109 0.269531H3.04007C2.73316 0.269531 2.48438 0.518148 2.48438 0.825055V4.06994C2.48438 4.37681 2.73316 4.62526 3.04007 4.62526Z" fill="white" fill-opacity="0.75"/>
<path d="M11.9189 4.62526H12.93C13.2366 4.62526 13.4855 4.37681 13.4855 4.06994V0.825055C13.4855 0.518148 13.2367 0.269531 12.93 0.269531H11.9189C11.6121 0.269531 11.3633 0.518148 11.3633 0.825055V4.06994C11.3633 4.37681 11.6121 4.62526 11.9189 4.62526Z" fill="white" fill-opacity="0.75"/>
</svg>
