<svg width="73" height="70" fill="none" xmlns="http://www.w3.org/2000/svg"><path fill="#fff" d="M4.761 4.564h46.022v60.87H4.761z"/><rect x="10" y="6" width="43" height="60" rx="2" fill="#C6DDFF"/><path d="M17.688 42.688c.752 0 1.361-.623 1.361-1.392 0-.768-.61-1.392-1.361-1.392-.752 0-1.362.623-1.362 1.392 0 .769.61 1.392 1.362 1.392zM17.688 53.823c.752 0 1.361-.623 1.361-1.392 0-.769-.61-1.392-1.361-1.392-.752 0-1.362.623-1.362 1.392 0 .769.61 1.392 1.362 1.392zM17.688 48.255c.752 0 1.361-.624 1.361-1.392 0-.77-.61-1.392-1.361-1.392-.752 0-1.362.623-1.362 1.392 0 .768.61 1.392 1.362 1.392zM17.688 59.39c.752 0 1.361-.624 1.361-1.393 0-.768-.61-1.392-1.361-1.392-.752 0-1.362.624-1.362 1.392 0 .77.61 1.392 1.362 1.392z" fill="#002356"/><circle cx="31" cy="25" r="11" fill="#FCA"/><path fill-rule="evenodd" clip-rule="evenodd" d="M31.304 12.066c-6.763 0-12.254 5.614-12.254 12.527 0 6.914 5.49 12.527 12.254 12.527 6.762 0 12.253-5.613 12.253-12.527 0-6.913-5.49-12.527-12.253-12.527zm0 2.784c5.26 0 9.53 4.367 9.53 9.743 0 5.377-4.27 9.743-9.53 9.743s-9.531-4.366-9.531-9.743c0-5.377 4.271-9.743 9.53-9.743z" fill="#002356"/><path fill-rule="evenodd" clip-rule="evenodd" d="m25.964 25.556 2.887 2.953a1.34 1.34 0 0 0 1.926 0l5.775-5.905a1.414 1.414 0 0 0 0-1.968 1.341 1.341 0 0 0-1.925 0l-4.813 4.92-1.925-1.968a1.34 1.34 0 0 0-1.925 0 1.414 1.414 0 0 0 0 1.968z" fill="#002356"/><path d="m43.024 58.24-5.683.726-.71-3.631 1.42-3.631 24.153-25.417 3.552-.726 3.552 4.357-26.284 28.321z" fill="#C6DDFF" stroke="#002356" stroke-width=".957"/><path fill-rule="evenodd" clip-rule="evenodd" d="M62.42 24.165C60.85 25.77 35.866 51.45 35.866 51.45a1.41 1.41 0 0 0-.395.981v5.568c0 .768.608 1.392 1.361 1.392h5.446c.363 0 .71-.148.966-.411 0 0 12.486-12.849 20.76-21.343l.375.383c.128.13.199.307.199.492s-.071.362-.2.493l-5.28 5.398a3.52 3.52 0 0 0-.997 2.46c0 .923.358 1.809.996 2.462l1.28 1.306a1.342 1.342 0 0 0 1.925 0 1.415 1.415 0 0 0 0-1.968l-1.28-1.307a.709.709 0 0 1 0-.985l5.282-5.398a3.52 3.52 0 0 0 .997-2.46 3.52 3.52 0 0 0-.997-2.461l-.379-.387c1.595-1.639 2.939-3.015 3.866-3.963a3.535 3.535 0 0 0 0-4.92l-2.558-2.616a3.352 3.352 0 0 0-4.813 0zm-6.525 10.637 3.521 3.6c-7.096 7.29-15.761 16.204-17.704 18.204h-3.518v-3.602c1.934-1.992 10.6-10.907 17.701-18.202zm5.442 1.626-3.52-3.6c2.755-2.83 5.12-5.255 6.528-6.695a.67.67 0 0 1 .962 0l2.559 2.616a.707.707 0 0 1 0 .984c-1.41 1.439-3.774 3.865-6.529 6.695z" fill="#002356"/><path fill-rule="evenodd" clip-rule="evenodd" d="M54.45 34.377V7.195c0-1.923-1.524-3.48-3.404-3.48H11.56c-1.88 0-3.404 1.557-3.404 3.48V59.43c0 .768.61 1.391 1.362 1.391.751 0 1.361-.623 1.361-1.392V7.196c0-.385.305-.696.681-.696h39.485c.375 0 .68.311.68.696v27.182c0 .768.61 1.392 1.362 1.392.752 0 1.361-.624 1.361-1.392z" fill="#002356"/><path fill-rule="evenodd" clip-rule="evenodd" d="M8.157 57.998v6.263c0 1.922 1.524 3.48 3.404 3.48h39.485c1.88 0 3.404-1.558 3.404-3.48V48.214c0-.768-.61-1.392-1.362-1.392-.752 0-1.362.624-1.362 1.392v16.047a.689.689 0 0 1-.68.696H11.56a.689.689 0 0 1-.68-.696v-6.263c0-.768-.61-1.392-1.362-1.392-.752 0-1.362.624-1.362 1.392zM23.134 42.69h16.338c.752 0 1.362-.624 1.362-1.392 0-.768-.61-1.392-1.362-1.392H23.134c-.752 0-1.361.624-1.361 1.392 0 .768.61 1.392 1.361 1.392zM23.134 48.256h10.892c.752 0 1.362-.623 1.362-1.392 0-.768-.61-1.391-1.362-1.391H23.134c-.752 0-1.361.623-1.361 1.392 0 .768.61 1.391 1.361 1.391z" fill="#002356"/><path fill-rule="evenodd" clip-rule="evenodd" d="M23.134 53.825h8.17c.75 0 1.36-.624 1.36-1.392 0-.768-.61-1.392-1.36-1.392h-8.17c-.752 0-1.361.624-1.361 1.392 0 .768.61 1.392 1.361 1.392zM23.134 59.391h8.17c.75 0 1.36-.623 1.36-1.392 0-.768-.61-1.392-1.36-1.392h-8.17c-.752 0-1.361.624-1.361 1.392 0 .769.61 1.392 1.361 1.392z" fill="#002356"/></svg>