<svg width="24" height="24" viewBox="0 0 24 24" fill="none" xmlns="http://www.w3.org/2000/svg">
<g clip-path="url(#clip0_1224_6411)">
<path d="M17.5844 13.2422L21.3086 22.3456L18.412 21.518L17.1707 24.0008L13.4465 15.3112L17.5844 13.2422Z" fill="#DE4C3C"/>
<path d="M8.4793 12.8281L12.6172 15.3109L8.89306 24.0005L7.65167 21.5178L4.75512 22.3454L8.4793 12.8281Z" fill="#DE4C3C"/>
<path d="M17.5873 13.2422L18.957 16.5898L18.8867 16.6104L18.0012 19.358L15.1791 18.7539L14.997 18.9194L13.4495 15.3112L17.5873 13.2422Z" fill="#C74436"/>
<path d="M12.6211 15.3109L11.0735 18.9192L10.8915 18.7536L8.06939 19.3578L7.18388 16.6102L7.02248 16.5605L8.4832 12.8281L12.6211 15.3109Z" fill="#C74436"/>
<path d="M13.0338 0L10.8904 1.93655L8.0683 1.3283L7.18278 4.08L4.4352 4.96552L5.03933 7.78758L3.10278 9.93103L5.03933 12.0745L4.4352 14.8965L7.18278 15.7821L8.0683 18.5296L10.8904 17.9255L13.0338 19.8621L15.1773 17.9255L17.9993 18.5296L18.8848 15.7821L21.6365 14.8965L21.0283 12.0745L22.9648 9.93103L21.0283 7.78758L21.6365 4.96552L18.8848 4.08L17.9993 1.3283L15.1773 1.93655L13.0338 0Z" fill="#FDB62F"/>
<path d="M2.68859 3.31031C2.82927 2.46122 3.49466 1.79583 4.34375 1.65516C3.49466 1.51448 2.82927 0.849094 2.68859 0C2.54792 0.849094 1.88253 1.51448 1.03344 1.65516C1.88253 1.79583 2.54792 2.46117 2.68859 3.31031Z" fill="#FDB62F"/>
<path d="M3.10519 9.92998L5.04173 7.78653L4.43761 4.96447L6.57689 4.27344C8.89828 10.6831 14.4141 14.3079 18.7383 16.2403L18.0017 18.5286L15.1797 17.9245L13.0362 19.861L10.8928 17.9245L8.0707 18.5286L7.18519 15.781L4.43761 14.8955L5.04173 12.0734L3.10519 9.92998Z" fill="#FFA83D"/>
</g>
<defs>
<clipPath id="clip0_1224_6411">
<rect width="24" height="24" fill="white" transform="matrix(-1 0 0 1 24 0)"/>
</clipPath>
</defs>
</svg>
