<svg width="38" height="38" fill="none" xmlns="http://www.w3.org/2000/svg"><g clip-path="url(#a)"><path d="M21 36.5H7l-2-3L6 5l.5-2.5L9 1l22.5.5.5 2v24L28 33l-4.5 3.5H21z" fill="#FCA"/><path d="M31.5 28 24 36.5h-.5l-1-.5.5-6.5 1-1.5h7.5z" fill="#fff"/><path d="M32 4 13.5 36.5 7 36l-2-1.5v-29l1-3 4-2 20 1L32 4z" fill="#C6DDFF"/><path d="m32.196 30.113-7.156 6.77A4.066 4.066 0 0 1 22.234 38H8.61a4.087 4.087 0 0 1-4.082-4.082V4.082A4.087 4.087 0 0 1 8.61 0h20.782a4.087 4.087 0 0 1 4.082 4.082v23.066a4.098 4.098 0 0 1-1.277 2.965zm-2.163-1.02h-5.54a.371.371 0 0 0-.372.372v5.222l5.912-5.593zm-.642-26.866H8.609a1.858 1.858 0 0 0-1.855 1.855v29.836c0 1.023.832 1.855 1.855 1.855h13.286v-6.308a2.6 2.6 0 0 1 2.597-2.598h6.754V4.082a1.858 1.858 0 0 0-1.855-1.855z" fill="#002356"/><path d="M26.941 23.156H10.613a1.113 1.113 0 1 1 0-2.226h16.328a1.113 1.113 0 0 1 0 2.226zM26.941 17.219H10.613a1.113 1.113 0 0 1 0-2.227h16.328a1.113 1.113 0 0 1 0 2.227zM16.01 11.281h-5.397a1.113 1.113 0 1 1 0-2.226h5.398a1.113 1.113 0 0 1 0 2.226z" fill="#002356"/></g><defs><clipPath id="a"><path fill="#fff" transform="matrix(1 0 0 -1 0 38)" d="M0 0h38v38H0z"/></clipPath></defs></svg>