<svg width="67" height="71" viewBox="0 0 67 71" fill="none" xmlns="http://www.w3.org/2000/svg">
<path fill-rule="evenodd" clip-rule="evenodd" d="M10.3606 46.2448L1.96633 21.015C1.84572 20.6476 2.02484 20.2406 2.3646 20.1063C13.401 15.8157 25.8371 11.8254 36.4678 6.92242C36.9429 6.59848 37.3156 6.91854 37.5203 7.5309L50.7091 44.2773L54.2905 55.0432C54.4111 55.4105 54.2357 55.8215 53.8958 55.9519L28.6583 65.7618L18.8206 69.5862C18.4807 69.7205 18.1043 69.5269 17.98 69.1594L10.3606 46.2448Z" fill="white"/>
<path fill-rule="evenodd" clip-rule="evenodd" d="M17.3581 37.8718L13.1665 11.4489C13.1044 11.0617 13.3456 10.6943 13.7 10.6272L42.5663 5.2778L49.1772 4.10052C49.5391 3.93057 50.1274 4.12813 50.2662 5.00131L57.407 43.5454L59.194 54.821C59.2561 55.2041 59.0149 55.5755 58.6605 55.6427L32.2279 60.5417L21.9225 62.4539C21.5679 62.5171 21.2245 62.2563 21.1624 61.8731L17.3581 37.8718Z" fill="white"/>
<path fill-rule="evenodd" clip-rule="evenodd" d="M25.446 30.0809V55.4845C25.446 55.8914 25.753 56.2273 26.1294 56.2273H37.0379H53.1868H55.5075H65.0164C65.3928 56.2273 65.6997 55.8914 65.6997 55.4845V43.5491V10.5796V10.2358H58.7563C58.0875 10.2358 56.6988 10.3385 56.6988 8.69892L56.6842 1.37012H26.1294C25.753 1.37012 25.446 1.70196 25.446 2.10887V8.44989V11.1326V30.0809Z" fill="white"/>
<path fill-rule="evenodd" clip-rule="evenodd" d="M13.8614 15.8301C9.95118 17.2524 6.07751 18.6628 2.36462 20.1048C2.02473 20.2391 1.84573 20.646 1.96635 21.0135L10.3606 46.2433L17.9802 69.158C18.1044 69.5254 18.4808 69.719 18.8207 69.5847L28.6585 65.7603L51.0748 57.0488L13.8614 15.8301Z" fill="#C6DDFF"/>
<path fill-rule="evenodd" clip-rule="evenodd" d="M25.4453 8.45312L13.7 10.63C13.3455 10.6971 13.1044 11.0646 13.1665 11.4517L13.8608 15.8331L17.358 37.8747L21.1622 61.8759C21.2243 62.2591 21.5678 62.5199 21.9223 62.4567L32.2278 60.5445L51.0736 57.0519L55.5065 56.2302H53.1861L25.4453 8.45312Z" fill="#C6DDFF"/>
<path fill-rule="evenodd" clip-rule="evenodd" d="M65.6996 43.5491V10.5796V10.2358V10.1212C65.6996 9.90783 65.6156 9.87231 65.3122 9.55226L57.817 1.82446C57.4625 1.46099 57.4041 1.37012 57.1958 1.37012H56.6842H26.1294C25.753 1.37012 25.446 1.70196 25.446 2.10887V55.4842C25.446 55.8911 25.753 56.227 26.1294 56.227H65.0162C65.3927 56.227 65.6996 55.8911 65.6996 55.4842V43.5491Z" fill="#C6DDFF"/>
<path fill-rule="evenodd" clip-rule="evenodd" d="M25.4453 8.45312L22.6936 8.96283V58.2176C22.6936 58.6285 23.0005 58.9603 23.377 58.9603H34.2855H40.7758L51.0739 57.0521L55.5067 56.2304H53.1861H50.332H37.0372H26.1287C25.7522 56.2304 25.4453 55.8945 25.4453 55.4876C25.4453 39.8106 25.4453 24.1298 25.4453 8.45312Z" fill="#FFCCAA"/>
<path fill-rule="evenodd" clip-rule="evenodd" d="M17.3577 37.8716L13.8603 15.8301C12.9138 16.1739 11.971 16.5175 11.0317 16.8613L11.4666 19.5992L14.9639 41.6406L18.7719 65.6418C18.8304 66.025 19.1739 66.2858 19.5284 66.2226L29.8339 64.3104L34.7235 63.4057L49.4509 57.6771L49.2755 57.3807L40.7752 58.9572L32.2275 60.5415L21.922 62.4536C21.5675 62.5169 21.224 62.2561 21.1619 61.8729L17.3577 37.8716Z" fill="#FFCCAA"/>
<path fill-rule="evenodd" clip-rule="evenodd" d="M65.6985 43.5491V10.5796V10.2358C65.6985 9.8368 65.5778 9.83277 65.3111 9.55226L57.8159 1.82446C57.4614 1.46099 57.403 1.37012 57.1946 1.37012H56.683H49.0781C58.3713 14.8187 58.9013 39.0608 52.0054 54.1924C51.6874 54.8956 51.3549 55.5712 51.0078 56.227H53.1858H55.5064H65.0153C65.3918 56.227 65.6987 55.8911 65.6987 55.4842V43.5491H65.6985Z" fill="#FFCCAA"/>
<path fill-rule="evenodd" clip-rule="evenodd" d="M56.6981 8.69892C56.6981 10.3385 58.0868 10.2358 58.7555 10.2358H65.699V10.1212C65.699 9.90783 65.615 9.87231 65.3116 9.55226L57.8164 1.82446C57.4619 1.46099 57.4035 1.37012 57.1952 1.37012H56.6836L56.6981 8.69892Z" fill="white"/>
<path fill-rule="evenodd" clip-rule="evenodd" d="M65.3116 9.55226L57.8164 1.82446C57.4619 1.46099 57.4035 1.37012 57.1952 1.37012H56.6836L56.6982 8.69892C56.6982 10.3385 58.0869 10.2358 58.7557 10.2358H65.699V10.1212C65.699 9.90783 65.615 9.87231 65.3116 9.55226Z" fill="#FFCCAA"/>
<path d="M66.1207 8.95104C66.0817 8.91136 58.365 0.954383 58.365 0.954383C58.07 0.64834 57.7649 0.332031 57.1952 0.332031H26.1289C25.2215 0.332031 24.4832 1.1303 24.4832 2.11127V7.57496L13.5339 9.60433C12.6562 9.77081 12.066 10.6789 12.218 11.6269L12.7738 15.1302C9.21483 16.4251 5.56095 17.76 2.03359 19.1299C1.20009 19.4594 0.762686 20.4615 1.06011 21.3681L8.07659 42.4576C8.21773 42.882 8.58765 43.1461 8.9822 43.1461C9.09024 43.1461 9.20033 43.1263 9.30785 43.0844C9.808 42.8899 10.0676 42.2939 9.88768 41.7531L2.975 20.9756C6.29822 19.6892 9.73974 18.43 13.1031 17.206L16.4098 38.0498L20.2147 62.0549C20.3521 62.9023 21.041 63.5052 21.8186 63.5052C21.9066 63.5052 21.9959 63.4974 22.0854 63.4815L32.3908 61.5693L40.4435 60.0769L28.3322 64.7836L18.7815 68.4965L11.3641 46.1899C11.1844 45.6491 10.6333 45.3685 10.133 45.5628C9.63286 45.7572 9.37329 46.3532 9.55305 46.894L17.0756 69.5176C17.3162 70.229 17.9395 70.6713 18.5984 70.6713C18.7804 70.6713 18.9653 70.6374 19.1455 70.5663L28.9831 66.742L51.3211 58.0608L55.5885 57.2699H65.0155C65.9229 57.2699 66.6612 56.47 66.6612 55.4866V10.1235C66.6614 9.5007 66.3488 9.183 66.1207 8.95104ZM63.571 9.19757H58.7556L58.6362 9.19812C58.4057 9.19979 57.8659 9.20409 57.729 9.05703C57.6974 9.02304 57.6604 8.90956 57.6604 8.69882L57.6493 3.09197L63.571 9.19757ZM64.7367 55.1888H26.4078V34.9107C26.4078 34.3361 25.9769 33.8702 25.4455 33.8702C24.914 33.8702 24.4832 34.3361 24.4832 34.9107V55.4865C24.4832 56.4698 25.2215 57.2697 26.1289 57.2697H44.1964L32.0654 59.518L22.0595 61.3747L18.3067 37.698L14.1663 11.5983L24.483 9.68618V30.0828C24.483 30.6575 24.9139 31.1233 25.4454 31.1233C25.9768 31.1233 26.4077 30.6575 26.4077 30.0828V2.41287H55.7232L55.7358 8.70104C55.7358 9.46324 55.9502 10.0798 56.373 10.5337C57.0226 11.2311 57.9409 11.2797 58.511 11.2797C58.56 11.2797 58.6065 11.2792 58.65 11.279L64.7367 11.2785V55.1888Z" fill="#002356"/>
<path fill-rule="evenodd" clip-rule="evenodd" d="M2.03359 19.1283C5.56095 17.7583 9.21483 16.4234 12.7738 15.1285L12.218 11.6252C12.066 10.6773 12.6562 9.76915 13.5339 9.60267L24.4832 7.5733V2.10961C24.4832 1.12864 25.2215 0.330376 26.1289 0.330376H57.1952C57.7649 0.330376 58.07 0.646685 58.365 0.952728C58.365 0.952728 66.0817 8.90971 66.1207 8.94938C66.3488 9.18133 66.6614 9.49914 66.6612 10.1218V55.485C66.6612 56.4683 65.9229 57.2682 65.0155 57.2682H55.5885L51.3211 58.0592L19.1455 70.5646C18.9653 70.6358 18.7804 70.6696 18.5984 70.6696C17.9395 70.6696 17.3162 70.2273 17.0756 69.5159L9.55305 46.8923C9.37329 46.3516 9.63286 45.7556 10.133 45.5612C10.6333 45.3668 11.1844 45.6475 11.3641 46.1883L18.7815 68.4949L28.3322 64.782L40.4435 60.0752L22.0854 63.4798C21.9959 63.4958 21.9066 63.5036 21.8186 63.5036C21.041 63.5036 20.3521 62.9006 20.2147 62.0532L13.1031 17.2044C13.0055 17.2399 12.9078 17.2755 12.81 17.311C9.63713 18.4662 6.39994 19.6522 3.26273 20.8628C3.16672 20.8998 3.07081 20.9369 2.975 20.974L9.88768 41.7515C10.0676 42.2923 9.808 42.8882 9.30785 43.0827C9.20033 43.1246 9.09024 43.1445 8.9822 43.1445C8.58765 43.1445 8.21773 42.8803 8.07659 42.456L1.06011 21.3665C0.762686 20.4598 1.20009 19.4578 2.03359 19.1283ZM3.36616 21.1737C6.48542 19.9701 9.70423 18.7904 12.8623 17.6406L16.1086 38.104L19.9135 62.1091C20.0772 63.1183 20.8963 63.8339 21.8186 63.8339C21.9232 63.8339 22.0291 63.8247 22.1351 63.8058L37.0677 61.0361L28.2288 64.4711L18.9656 68.0722L11.6517 46.0765C11.6517 46.0765 11.6517 46.0765 11.6517 46.0765C11.4148 45.364 10.6887 44.9943 10.0297 45.2503C9.37064 45.5064 9.0287 46.2917 9.2655 47.0041L16.788 69.6277L16.7886 69.6294C17.0745 70.4749 17.815 71 18.5984 71C18.8155 71 19.0357 70.9596 19.2499 70.8751C19.2498 70.8751 19.2501 70.875 19.2499 70.8751L51.3992 58.3799L55.6145 57.5986H65.0155C66.0923 57.5986 66.9668 56.6501 66.9668 55.485V10.1218C66.967 9.3562 66.571 8.95373 66.3358 8.71465L66.33 8.70876L58.5773 0.715094L58.5655 0.70284C58.2711 0.397326 57.8883 0 57.1952 0H26.1289C25.0527 0 24.1776 0.946162 24.1776 2.10961V7.29474L13.4822 9.27704C12.4388 9.47498 11.7362 10.554 11.917 11.6815C11.9169 11.6814 11.917 11.6816 11.917 11.6815L12.4284 14.9056M58.7556 8.86553L62.8078 8.86553L57.9564 3.86345L57.966 8.69646C57.966 8.74867 57.9688 8.78986 57.9725 8.81981C58.0232 8.83369 58.092 8.84481 58.1741 8.85257C58.3386 8.86812 58.5173 8.86694 58.6342 8.8661L58.7556 8.86553ZM57.729 9.05538C57.6974 9.02139 57.6604 8.9079 57.6604 8.69717L57.6493 3.09031L63.571 9.19591H58.7556L58.6362 9.19647L58.6344 9.19648C58.4028 9.19815 57.8655 9.20203 57.729 9.05538ZM44.1964 57.2681H26.1289C25.2215 57.2681 24.4832 56.4682 24.4832 55.4848V34.9091C24.4832 34.3344 24.914 33.8686 25.4455 33.8686C25.9769 33.8686 26.4078 34.3344 26.4078 34.9091V55.1871H64.7367V11.2769L58.65 11.2773C58.6065 11.2776 58.56 11.278 58.511 11.278C57.9409 11.278 57.0226 11.2294 56.373 10.532C55.9502 10.0781 55.7358 9.46158 55.7358 8.69939L55.7232 2.41122H26.4077V30.0812C26.4077 30.6558 25.9768 31.1217 25.4454 31.1217C24.9139 31.1217 24.483 30.6558 24.483 30.0812V9.68452L14.1663 11.5967L22.0595 61.373L44.1964 57.2681ZM22.3091 60.9915L32.0137 59.1908L40.6052 57.5985H26.1289C25.0521 57.5985 24.1776 56.65 24.1776 55.4848V34.9091C24.1776 34.152 24.7453 33.5382 25.4455 33.5382C26.1457 33.5382 26.7134 34.152 26.7134 34.9091V54.8567H64.4312V11.6073L58.6518 11.6077C58.6515 11.6077 58.6521 11.6077 58.6518 11.6077C58.6094 11.608 58.5609 11.6084 58.511 11.6084C57.9411 11.6084 56.9037 11.5674 56.1577 10.7665C55.6668 10.2395 55.4304 9.53269 55.4302 8.7001M55.4302 8.7001L55.4183 2.74159H26.7132V30.0812C26.7132 30.8383 26.1456 31.4521 25.4454 31.4521C24.7451 31.4521 24.1775 30.8383 24.1775 30.0812V10.0764L14.5191 11.8665L18.6079 37.6405L22.3091 60.9915" fill="#002356"/>
<path d="M59.5234 17.5282H32.0092C31.4777 17.5282 31.0469 17.0624 31.0469 16.4878C31.0469 15.9131 31.4777 15.4473 32.0092 15.4473H59.5234C60.0549 15.4473 60.4857 15.9131 60.4857 16.4878C60.4857 17.0624 60.0549 17.5282 59.5234 17.5282Z" fill="#002356"/>
<path d="M59.5234 24.9169H32.0092C31.4777 24.9169 31.0469 24.4511 31.0469 23.8764C31.0469 23.3018 31.4777 22.8359 32.0092 22.8359H59.5234C60.0549 22.8359 60.4857 23.3018 60.4857 23.8764C60.4857 24.4511 60.0549 24.9169 59.5234 24.9169Z" fill="#002356"/>
<path d="M59.5234 32.3134H32.0092C31.4777 32.3134 31.0469 31.8475 31.0469 31.2729C31.0469 30.6983 31.4777 30.2324 32.0092 30.2324H59.5234C60.0549 30.2324 60.4857 30.6983 60.4857 31.2729C60.4857 31.8475 60.0549 32.3134 59.5234 32.3134Z" fill="#002356"/>
<path d="M59.5234 39.7021H32.0092C31.4777 39.7021 31.0469 39.2362 31.0469 38.6616C31.0469 38.087 31.4777 37.6211 32.0092 37.6211H59.5234C60.0549 37.6211 60.4857 38.087 60.4857 38.6616C60.4857 39.2362 60.0549 39.7021 59.5234 39.7021Z" fill="#002356"/>
<path d="M59.5234 47.0927H32.0092C31.4777 47.0927 31.0469 46.6268 31.0469 46.0522C31.0469 45.4776 31.4777 45.0117 32.0092 45.0117H59.5234C60.0549 45.0117 60.4857 45.4776 60.4857 46.0522C60.4857 46.6268 60.0549 47.0927 59.5234 47.0927Z" fill="#002356"/>
</svg>
