<svg width="60" height="60" viewBox="0 0 60 60" fill="none" xmlns="http://www.w3.org/2000/svg">
<g clip-path="url(#clip0_1101_1654)">
<path d="M49.3008 52.8145C44.0977 57.209 37.3478 59.998 30 59.998C19.0664 59.998 9.46863 53.9746 4.26562 45.1855L6.21352 36.2064L14.8477 34.6035C16.8516 41.0721 22.8983 45.8184 30 45.8184C33.4452 45.8184 36.6445 44.7285 39.2812 42.7949L47.5781 44.0605L49.3008 52.8145Z" fill="#59C36A"/>
<path d="M49.3008 52.8184L47.5781 44.0645L39.2813 42.7988C36.6445 44.7324 33.4452 45.8223 30 45.8223V60.002C37.3478 60.002 44.0977 57.2129 49.3008 52.8184Z" fill="#00A66C"/>
<path d="M14.1797 30.002C14.1797 31.619 14.4258 33.1659 14.8477 34.6074L4.26562 45.1895C1.62891 40.7598 0 35.5565 0 30.002C0 24.4471 1.62891 19.2441 4.26562 14.8145L12.7586 16.2761L14.8477 25.3965C14.4258 26.8378 14.1797 28.3846 14.1797 30.002Z" fill="#FFDA2D"/>
<path d="M60 30C60 39.1405 55.7696 47.332 49.3008 52.8164L39.2813 42.7969C41.3202 41.3202 43.043 39.3514 44.168 37.0312H30C29.0155 37.0312 28.2422 36.2577 28.2422 35.2734V24.7266C28.2422 23.7421 29.0155 22.9688 30 22.9688H57.75C58.5937 22.9688 59.332 23.5663 59.4727 24.41C59.8242 26.2383 60 28.1366 60 30Z" fill="#4086F4"/>
<path d="M44.1681 37.0312C43.0431 39.3514 41.3202 41.3202 39.2814 42.7969L49.3008 52.8164C55.7696 47.332 60 39.1406 60 30C60 28.1366 59.8242 26.2383 59.4725 24.41C59.332 23.5663 58.5936 22.9688 57.7499 22.9688H30V37.0312H44.1681Z" fill="#4175DF"/>
<path d="M49.793 8.37879C49.8281 8.87098 49.6172 9.32812 49.3008 9.67957L41.7773 17.1679C41.1798 17.8007 40.1954 17.871 39.4923 17.3436C36.7147 15.2695 33.4452 14.1797 30 14.1797C22.8983 14.1797 16.8516 18.9257 14.8477 25.3945L4.26562 14.8125C9.46863 6.02344 19.0664 0 30 0C36.9961 0 43.8164 2.57812 49.1602 7.07801C49.5469 7.39453 49.7578 7.8866 49.793 8.37879Z" fill="#FF641A"/>
<path d="M39.4922 17.3436C40.1953 17.8711 41.1796 17.8007 41.7772 17.1679L49.3007 9.67957C49.6172 9.32812 49.8281 8.87109 49.7929 8.37879C49.7576 7.88648 49.5468 7.39453 49.16 7.07801C43.8164 2.57812 36.9961 0 30 0V14.1797C33.4452 14.1797 36.7147 15.2695 39.4922 17.3436Z" fill="#F03800"/>
</g>
<defs>
<clipPath id="clip0_1101_1654">
<rect width="60" height="60" fill="white"/>
</clipPath>
</defs>
</svg>
