<svg width="33" height="32" fill="none" xmlns="http://www.w3.org/2000/svg"><circle cx="16.702" cy="16" r="15" fill="#fff" stroke="#002356" stroke-width="2"/><circle cx="16.702" cy="16" fill="#C6DDFF" r="9.625"/><path d="M16.702 25.626c1.85 0 6.663-.37 9.254-6.663H7.446c2.592 6.293 7.405 6.663 9.256 6.663z" fill="#FCA"/><path d="M17.912 23.125a.55.55 0 0 1-.326-.086 1.255 1.255 0 0 1-.223-.205l-3.924-4.49a.997.997 0 0 1-.189-.24c-.023-.08-.034-.2-.034-.36v-.377a.37.37 0 0 1 .103-.275c.08-.08.177-.12.291-.12h.926c.8 0 1.41-.102 1.833-.308.423-.206.709-.48.857-.823.16-.342.24-.737.24-1.182 0-.423-.08-.806-.24-1.149-.148-.354-.422-.634-.822-.84-.4-.205-.966-.308-1.697-.308h-1.251a.432.432 0 0 1-.291-.103.432.432 0 0 1-.103-.29v-.446a.37.37 0 0 1 .103-.275c.08-.08.177-.12.29-.12h6.822c.114 0 .206.04.274.12.08.069.12.16.12.275v.445c0 .114-.04.211-.12.291a.37.37 0 0 1-.274.103h-2.605l-.429-.463c.743.183 1.252.532 1.526 1.046s.411 1.108.411 1.782c0 .629-.137 1.206-.411 1.731-.263.526-.686.949-1.268 1.269-.572.308-1.309.474-2.211.497l-.514.017.017-.686 4.387 5.039c.091.091.137.177.137.257a.23.23 0 0 1-.103.205.453.453 0 0 1-.257.069h-1.045zm-4.456-8.02c-.126 0-.223-.035-.291-.104-.069-.068-.103-.165-.103-.29v-.43c0-.125.034-.222.103-.29a.432.432 0 0 1 .29-.104h6.822a.37.37 0 0 1 .274.103c.08.069.12.166.12.292v.428c0 .126-.04.223-.12.291a.37.37 0 0 1-.274.103h-6.821z" fill="#002356"/></svg>