<svg width="22" height="23" viewBox="0 0 22 23" fill="none" xmlns="http://www.w3.org/2000/svg">
<mask id="mask0_1870_30391" style="mask-type:luminance" maskUnits="userSpaceOnUse" x="0" y="0" width="22" height="23">
<path d="M22 11.5009C22 12.8803 21.7283 14.2463 21.2005 15.5207C20.6726 16.7951 19.8988 17.9531 18.9234 18.9285C17.948 19.904 16.79 20.6777 15.5156 21.2056C14.2411 21.7335 12.8752 22.0052 11.4958 22.0052C10.1163 22.0052 8.75037 21.7335 7.47593 21.2056C6.20149 20.6777 5.04351 19.904 4.06809 18.9285C3.09268 17.9531 2.31894 16.7951 1.79105 15.5207C1.26316 14.2463 0.991455 12.8803 0.991455 11.5009C0.991455 8.71497 2.09815 6.04316 4.06809 4.07322C6.03803 2.10328 8.70984 0.996582 11.4958 0.996582C14.2817 0.996582 16.9535 2.10328 18.9234 4.07322C20.8933 6.04316 22 8.71497 22 11.5009Z" fill="white"/>
</mask>
<g mask="url(#mask0_1870_30391)">
<path d="M0.996704 22.003V15.001H22.0025V22.003H0.996704Z" fill="#27AE60"/>
<path d="M0.996704 15.001V7.99911H22.0025V15.001H0.996704Z" fill="white"/>
<path d="M0.996704 7.99912V0.997192H22.0025V7.99912H0.996704Z" fill="#F39C12"/>
<path d="M11.4958 14.5652C13.1871 14.5652 14.5581 13.1942 14.5581 11.5029C14.5581 9.81169 13.1871 8.44067 11.4958 8.44067C9.80461 8.44067 8.43359 9.81169 8.43359 11.5029C8.43359 13.1942 9.80461 14.5652 11.4958 14.5652Z" fill="#000088"/>
<path d="M11.4959 14.1824C12.9757 14.1824 14.1753 12.9828 14.1753 11.503C14.1753 10.0231 12.9757 8.82349 11.4959 8.82349C10.016 8.82349 8.81641 10.0231 8.81641 11.503C8.81641 12.9828 10.016 14.1824 11.4959 14.1824Z" fill="white"/>
<path d="M11.4959 12.0389C11.7918 12.0389 12.0317 11.7989 12.0317 11.503C12.0317 11.207 11.7918 10.9671 11.4959 10.9671C11.1999 10.9671 10.96 11.207 10.96 11.503C10.96 11.7989 11.1999 12.0389 11.4959 12.0389Z" fill="#000088"/>
<path d="M14.1358 11.9855C14.2091 11.9952 14.2765 11.9436 14.2862 11.8703C14.2959 11.7969 14.2443 11.7296 14.1709 11.7199C14.0976 11.7102 14.0302 11.7618 14.0205 11.8351C14.0108 11.9085 14.0624 11.9758 14.1358 11.9855Z" fill="#000088"/>
<path d="M11.4959 14.1824L11.5878 12.5747L11.4959 11.8091L11.4041 12.5747L11.4959 14.1824Z" fill="#000088"/>
<path d="M13.9215 12.6528C13.9898 12.6811 14.0682 12.6487 14.0966 12.5803C14.1249 12.512 14.0925 12.4336 14.0242 12.4052C13.9558 12.3768 13.8774 12.4093 13.849 12.4776C13.8207 12.546 13.8531 12.6244 13.9215 12.6528Z" fill="#000088"/>
<path d="M10.802 14.0917L11.307 12.5622L11.4165 11.7988L11.1295 12.5146L10.802 14.0917Z" fill="#000088"/>
<path d="M13.5402 13.2405C13.5989 13.2855 13.683 13.2745 13.728 13.2158C13.7731 13.1571 13.7621 13.073 13.7034 13.028C13.6447 12.9829 13.5606 12.9939 13.5156 13.0526C13.4705 13.1113 13.4815 13.1954 13.5402 13.2405Z" fill="#000088"/>
<path d="M10.1556 13.823L11.039 12.4766L11.3423 11.7677L10.8799 12.3848L10.1556 13.823Z" fill="#000088"/>
<path d="M13.0207 13.711C13.0657 13.7697 13.1497 13.7809 13.2085 13.7359C13.2672 13.6909 13.2783 13.6068 13.2333 13.5481C13.1883 13.4893 13.1042 13.4782 13.0455 13.5232C12.9868 13.5682 12.9757 13.6523 13.0207 13.711Z" fill="#000088"/>
<path d="M9.60094 13.3971L10.8028 12.3256L11.2793 11.7194L10.6729 12.1957L9.60094 13.3971Z" fill="#000088"/>
<path d="M12.398 14.0302C12.4262 14.0985 12.5046 14.131 12.573 14.1028C12.6413 14.0745 12.6738 13.9961 12.6456 13.9278C12.6173 13.8594 12.5389 13.8269 12.4706 13.8552C12.4022 13.8834 12.3697 13.9618 12.398 14.0302Z" fill="#000088"/>
<path d="M9.17558 12.8424L10.6138 12.1181L11.2309 11.6558L10.5219 11.959L9.17558 12.8424Z" fill="#000088"/>
<path d="M11.7125 14.1783C11.7221 14.2517 11.7894 14.3034 11.8627 14.2938C11.9361 14.2842 11.9878 14.2169 11.9782 14.1435C11.9686 14.0701 11.9013 14.0184 11.828 14.028C11.7546 14.0377 11.7029 14.1049 11.7125 14.1783Z" fill="#000088"/>
<path d="M8.90716 12.196L10.4842 11.8689L11.2 11.5821L10.4366 11.6914L8.90716 12.196Z" fill="#000088"/>
<path d="M11.0132 14.1428C11.0035 14.2162 11.0551 14.2835 11.1285 14.2932C11.2018 14.3029 11.2691 14.2513 11.2788 14.1779C11.2885 14.1046 11.2369 14.0372 11.1636 14.0275C11.0902 14.0179 11.0229 14.0695 11.0132 14.1428Z" fill="#000088"/>
<path d="M8.81633 11.5029L10.424 11.5948L11.1896 11.5029L10.424 11.4111L8.81633 11.5029Z" fill="#000088"/>
<path d="M10.3462 13.9277C10.3178 13.9961 10.3502 14.0744 10.4186 14.1028C10.4869 14.1312 10.5653 14.0988 10.5937 14.0304C10.622 13.9621 10.5896 13.8837 10.5213 13.8553C10.4529 13.827 10.3746 13.8594 10.3462 13.9277Z" fill="#000088"/>
<path d="M8.90785 10.8091L10.4369 11.3141L11.2001 11.4236L10.4844 11.1366L8.90785 10.8091Z" fill="#000088"/>
<path d="M9.7568 13.5491C9.71172 13.6078 9.72275 13.6919 9.78143 13.737C9.84011 13.7821 9.92422 13.771 9.96929 13.7124C10.0144 13.6537 10.0033 13.5696 9.94466 13.5245C9.88598 13.4794 9.80187 13.4905 9.7568 13.5491Z" fill="#000088"/>
<path d="M9.17429 10.1645L10.5206 11.0479L11.2296 11.3512L10.6125 10.8888L9.17429 10.1645Z" fill="#000088"/>
<path d="M9.28687 13.028C9.22813 13.073 9.21701 13.1572 9.26203 13.2159C9.30706 13.2746 9.39117 13.2858 9.44992 13.2407C9.50866 13.1957 9.51977 13.1116 9.47475 13.0529C9.42973 12.9941 9.34561 12.983 9.28687 13.028Z" fill="#000088"/>
<path d="M9.60031 9.60707L10.6724 10.8091L11.2789 11.2857L10.8024 10.6792L9.60031 9.60707Z" fill="#000088"/>
<path d="M8.96811 12.4049C8.89973 12.4332 8.86722 12.5115 8.8955 12.5799C8.92378 12.6483 9.00214 12.6808 9.07052 12.6525C9.1389 12.6242 9.17141 12.5459 9.14313 12.4775C9.11485 12.4091 9.0365 12.3766 8.96811 12.4049Z" fill="#000088"/>
<path d="M10.1562 9.18222L10.8804 10.6206L11.3428 11.2378L11.0396 10.5288L10.1562 9.18222Z" fill="#000088"/>
<path d="M8.82051 11.7195C8.74713 11.7291 8.69544 11.7964 8.70504 11.8698C8.71465 11.9431 8.78192 11.9948 8.8553 11.9852C8.92868 11.9756 8.98037 11.9084 8.97077 11.835C8.96116 11.7616 8.89389 11.7099 8.82051 11.7195Z" fill="#000088"/>
<path d="M10.8029 8.91418L11.13 10.4912L11.4167 11.2071L11.3075 10.4437L10.8029 8.91418Z" fill="#000088"/>
<path d="M8.85603 11.0203C8.78268 11.0106 8.71535 11.0622 8.70566 11.1356C8.69596 11.2089 8.74756 11.2763 8.82092 11.286C8.89427 11.2957 8.9616 11.2441 8.97129 11.1707C8.98099 11.0974 8.92938 11.03 8.85603 11.0203Z" fill="#000088"/>
<path d="M11.4959 8.8235L11.404 10.4312L11.4959 11.1967L11.5878 10.4312L11.4959 8.8235Z" fill="#000088"/>
<path d="M9.07036 10.3531C9.002 10.3247 8.9236 10.3572 8.89524 10.4255C8.86687 10.4939 8.8993 10.5723 8.96766 10.6007C9.03602 10.629 9.11442 10.5966 9.14278 10.5282C9.17115 10.4599 9.13872 10.3815 9.07036 10.3531Z" fill="#000088"/>
<path d="M12.1897 8.91421L11.6847 10.4437L11.5752 11.2071L11.8622 10.4912L12.1897 8.91421Z" fill="#000088"/>
<path d="M9.45078 9.7654C9.3921 9.72033 9.308 9.73136 9.26292 9.79004C9.21785 9.84871 9.22888 9.93282 9.28755 9.9779C9.34623 10.023 9.43034 10.0119 9.47541 9.95326C9.52049 9.89459 9.50946 9.81048 9.45078 9.7654Z" fill="#000088"/>
<path d="M12.8353 9.18286L11.9519 10.5292L11.6487 11.2382L12.1111 10.6211L12.8353 9.18286Z" fill="#000088"/>
<path d="M9.97041 9.29472C9.92539 9.23598 9.84129 9.22487 9.78255 9.26988C9.72382 9.3149 9.7127 9.39901 9.75772 9.45774C9.80274 9.51647 9.88685 9.52759 9.94558 9.48257C10.0043 9.43756 10.0154 9.35345 9.97041 9.29472Z" fill="#000088"/>
<path d="M13.3909 9.60799L12.1889 10.68L11.7125 11.2863L12.3189 10.8099L13.3909 9.60799Z" fill="#000088"/>
<path d="M10.5939 8.97516C10.5656 8.90678 10.4873 8.87427 10.4189 8.90255C10.3505 8.93083 10.318 9.00919 10.3463 9.07757C10.3745 9.14595 10.4529 9.17846 10.5213 9.15018C10.5897 9.1219 10.6222 9.04355 10.5939 8.97516Z" fill="#000088"/>
<path d="M13.8166 10.1632L12.3782 10.8875L11.7611 11.3498L12.4701 11.0466L13.8166 10.1632Z" fill="#000088"/>
<path d="M11.2793 8.82759C11.2697 8.75421 11.2025 8.70252 11.1291 8.71212C11.0557 8.72173 11.004 8.789 11.0136 8.86238C11.0232 8.93576 11.0905 8.98745 11.1639 8.97785C11.2372 8.96824 11.2889 8.90097 11.2793 8.82759Z" fill="#000088"/>
<path d="M14.0847 10.8099L12.5077 11.137L11.7918 11.4238L12.5552 11.3145L14.0847 10.8099Z" fill="#000088"/>
<path d="M11.9785 8.86305C11.9882 8.7897 11.9366 8.72237 11.8632 8.71267C11.7899 8.70298 11.7226 8.75458 11.7129 8.82794C11.7032 8.90129 11.7548 8.96861 11.8281 8.97831C11.9015 8.98801 11.9688 8.9364 11.9785 8.86305Z" fill="#000088"/>
<path d="M14.1752 11.5029L12.5676 11.4111L11.802 11.5029L12.5676 11.5948L14.1752 11.5029Z" fill="#000088"/>
<path d="M12.6463 9.07752C12.6747 9.00916 12.6423 8.93074 12.574 8.90236C12.5056 8.87398 12.4272 8.90639 12.3988 8.97474C12.3704 9.0431 12.4028 9.12152 12.4712 9.1499C12.5395 9.17828 12.618 9.14587 12.6463 9.07752Z" fill="#000088"/>
<path d="M14.0846 12.1974L12.5552 11.692L11.7918 11.5823L12.5076 11.8695L14.0846 12.1974Z" fill="#000088"/>
<path d="M13.234 9.45779C13.279 9.3991 13.268 9.31499 13.2093 9.26991C13.1506 9.22484 13.0665 9.23587 13.0214 9.29456C12.9764 9.35324 12.9874 9.43736 13.0461 9.48243C13.1048 9.52751 13.1889 9.51647 13.234 9.45779Z" fill="#000088"/>
<path d="M13.8167 12.8427L12.4702 11.9593L11.7611 11.6561L12.3783 12.1184L13.8167 12.8427Z" fill="#000088"/>
<path d="M13.7048 9.97751C13.7636 9.93249 13.7747 9.84837 13.7297 9.78962C13.6847 9.73086 13.6006 9.71973 13.5418 9.76474C13.4831 9.80976 13.4719 9.89388 13.5169 9.95263C13.5619 10.0114 13.6461 10.0225 13.7048 9.97751Z" fill="#000088"/>
<path d="M13.3908 13.3985L12.3189 12.1962L11.7125 11.7195L12.1889 12.3261L13.3908 13.3985Z" fill="#000088"/>
<path d="M14.0232 10.5992C14.0916 10.5709 14.1241 10.4925 14.0958 10.4242C14.0675 10.3558 13.9892 10.3233 13.9208 10.3516C13.8524 10.3798 13.8199 10.4582 13.8482 10.5266C13.8765 10.5949 13.9548 10.6275 14.0232 10.5992Z" fill="#000088"/>
<path d="M12.8354 13.8216L12.1111 12.3834L11.6488 11.7663L11.952 12.4753L12.8354 13.8216Z" fill="#000088"/>
<path d="M14.1713 11.2863C14.2447 11.2767 14.2964 11.2094 14.2868 11.136C14.2772 11.0626 14.2099 11.0109 14.1365 11.0205C14.0631 11.0301 14.0114 11.0974 14.0211 11.1708C14.0307 11.2442 14.0979 11.2959 14.1713 11.2863Z" fill="#000088"/>
<path d="M12.189 14.0916L11.8619 12.5146L11.5751 11.7987L11.6844 12.5621L12.189 14.0916Z" fill="#000088"/>
</g>
</svg>
