<svg width="24" height="24" viewBox="0 0 24 24" fill="none" xmlns="http://www.w3.org/2000/svg">
<path d="M21.4142 9.79065H14.2092V6.71338L16.5507 5.04089C16.7355 4.90887 16.8452 4.69592 16.8452 4.46887C16.8452 4.24164 16.7355 4.02869 16.5507 3.89667L14.181 2.20404C13.9958 0.958557 12.9194 0 11.6234 0H2.586C1.15997 0 0 1.15997 0 2.586V11.6235C0 13.0494 1.15997 14.2094 2.586 14.2094H9.79083V17.2866L7.44928 18.9591C7.26453 19.0911 7.15485 19.3043 7.15485 19.5313C7.15485 19.7584 7.26453 19.9715 7.44928 20.1033L9.81903 21.796C10.0042 23.0414 11.0806 24 12.3766 24H21.4142C22.84 24 24 22.8398 24 21.414V12.3766C24 10.9506 22.84 9.79065 21.4142 9.79065ZM2.586 12.8031C1.93542 12.8031 1.40625 12.2739 1.40625 11.6234V2.58582C1.40625 1.93542 1.93542 1.40625 2.586 1.40625H11.6234C12.2737 1.40625 12.8029 1.93542 12.8029 2.58582C12.8029 2.81305 12.9126 3.02618 13.0974 3.15802L14.9323 4.46869L13.0974 5.77936C12.9126 5.91138 12.8029 6.12451 12.8029 6.35156V9.79065H12.3766C10.9508 9.79065 9.79083 10.9506 9.79083 12.3765V12.8031H2.586ZM22.5938 21.414C22.5938 22.0646 22.0646 22.5938 21.4142 22.5938H12.3766C11.7263 22.5938 11.1971 22.0646 11.1971 21.414C11.1971 21.187 11.0874 20.9738 10.9026 20.842L9.06775 19.5313L10.9026 18.2206C11.0874 18.0886 11.1971 17.8755 11.1971 17.6484V12.3766C11.1971 11.7261 11.7263 11.1969 12.3766 11.1969H13.5042H13.506H13.5079H21.4142C22.0646 11.1969 22.5938 11.7261 22.5938 12.3766V21.414Z" fill="#0072BC"/>
<rect x="11" y="11" width="12" height="11.7" rx="1.5" fill="#0072BC"/>
<path d="M8.75 19.933C8.41667 19.7406 8.41667 19.2594 8.75 19.067L11 17.7679C11.3333 17.5755 11.75 17.8161 11.75 18.201L11.75 20.799C11.75 21.1839 11.3333 21.4245 11 21.2321L8.75 19.933Z" fill="#0072BC"/>
<path d="M17.5243 14.4512C17.4565 14.2253 17.1779 14.1196 16.8917 14.1196C16.613 14.1196 16.3343 14.2253 16.2665 14.4512L14.8129 19.1885C14.8054 19.2188 14.7979 19.2488 14.7979 19.2638C14.7979 19.5049 15.1518 19.6705 15.4155 19.6705C15.5812 19.6705 15.7092 19.6179 15.7469 19.4747L16.0329 18.473H17.7578L18.0441 19.4747C18.0817 19.6179 18.2097 19.6705 18.3754 19.6705C18.639 19.6705 18.993 19.4974 18.993 19.2638C18.993 19.2413 18.9855 19.2186 18.978 19.1885L17.5243 14.4512ZM16.2363 17.7047L16.8915 15.3926L17.547 17.7047H16.2363Z" fill="#E3F4FF"/>
<rect x="1.2" y="1.3" width="11.7" height="11.5" rx="1.5" fill="#FFFFFF"/>
<path opacity="0.8" d="M9.24739 4.44484V9.45455H8.70383V7.05031L8.55749 7.09267L8.4007 7.12445L8.26481 7.14563H8.18118H7.99303L7.66899 7.03972L7.55401 6.98676L7.58537 7.09267L7.61672 7.16681L7.66899 7.41041L7.6899 7.64342C7.6899 8.39541 7.33449 8.84025 6.62369 8.96734C6.54007 8.97793 6.44599 8.98853 6.33101 8.98853C6.04878 8.98853 5.777 8.90379 5.49477 8.74492C5.223 8.58605 4.94077 8.34245 4.66899 8.01412C4.22997 7.47396 4 7.11386 4 6.92321L4.42857 6.63725L4.75261 7.21977L5.01394 7.61165C5.44251 8.25772 5.88153 8.57546 6.35192 8.57546C6.67596 8.57546 6.92683 8.37423 7.09408 7.98235C7.14634 7.86584 7.16725 7.74934 7.16725 7.62224C7.16725 7.45278 7.13589 7.3045 7.08362 7.188C7.03136 6.99735 6.90592 6.84907 6.71777 6.73257C6.52962 6.62665 6.32056 6.56311 6.10105 6.56311H5.92334C5.85017 6.56311 5.777 6.5737 5.70383 6.60547L5.65157 6.62665L5.58885 6.64784L5.41115 6.24537C5.5993 6.24537 5.74564 6.23477 5.86063 6.203C6.18467 6.11827 6.43554 5.93822 6.60279 5.67343C6.67596 5.53575 6.71777 5.39806 6.71777 5.24978C6.71777 5.12268 6.70732 5.01677 6.67596 4.93204C6.63415 4.74139 6.51916 4.60371 6.32056 4.50838C6.20557 4.45543 6.09059 4.43425 5.9547 4.43425C5.777 4.43425 5.5784 4.49779 5.36934 4.63548C5.27526 4.69903 5.20209 4.75199 5.14983 4.80494L4.98258 4.96381L4.77352 5.18623L4.36585 4.8579C4.37631 4.82613 4.40767 4.78376 4.48084 4.70962L4.82578 4.42365C5.17073 4.13769 5.55749 4 5.99652 4C6.34146 4 6.63415 4.1271 6.88502 4.39188C7.10453 4.6143 7.20906 4.90026 7.20906 5.24978C7.20906 5.70521 7.01045 6.04413 6.61324 6.25596L6.66551 6.26655L6.75958 6.28773C6.8223 6.30891 6.86411 6.3301 6.88502 6.34069L7.06272 6.42542L7.15679 6.47838L7.26132 6.52074L7.37631 6.58429L7.49129 6.62665L7.73171 6.71139L8.00348 6.73257L8.21254 6.74316L8.5784 6.63725L8.70383 6.58429V4.44484H7.7108V4H10V4.44484H9.24739Z" fill="#0072BC" stroke="#0072BC" stroke-width="0.3"/>
</svg>
