<svg width="21" height="21" fill="none" xmlns="http://www.w3.org/2000/svg"><path fill-rule="evenodd" clip-rule="evenodd" d="M10.133.339c5.433 0 9.838 4.349 9.838 9.715 0 5.365-4.405 9.716-9.838 9.716-5.434 0-9.838-4.35-9.838-9.716S4.699.34 10.133.34z" fill="#0072BC"/><path fill-rule="evenodd" clip-rule="evenodd" d="M5.256 10.916c.39 1.574 1.095 3.01 1.878 3.906.519.593 1.356 1.166 2.205 1.27.459.057 1.006-.018 1.415-.23 1.096-.57.553-1.403.05-2.241-.577-1.027-.903-1.267-1.614-1.094-.326.2-1.03-.518-1.41-1.574a7.44 7.44 0 0 1-.355-1.395c-.17-1.117.098-2.108.475-2.107.697-.224.867-.604.88-1.797.036-.956.085-1.995-1.107-1.913-.455.03-.965.254-1.336.544-.685.536-1.14 1.474-1.307 2.26-.254 1.189-.183 2.804.226 4.371z" fill="#0072BC"/><g clip-path="url(#a)" stroke-width="1.5" stroke-linecap="round" stroke-linejoin="round"><path d="M6.117 6.117h8.471c.582 0 1.059.477 1.059 1.059v6.353c0 .582-.477 1.059-1.059 1.059h-8.47a1.062 1.062 0 0 1-1.06-1.059V7.176c0-.582.477-1.059 1.06-1.059z" fill="#E3F4FF" stroke="#E3F4FF"/><path d="m15.647 7.177-5.294 3.706-5.294-3.706" stroke="#0072BC"/></g><defs><clipPath id="a"><path fill="#fff" transform="translate(4 4)" d="M0 0h12.706v12.706H0z"/></clipPath></defs></svg>