<svg width="45" height="45" fill="none" xmlns="http://www.w3.org/2000/svg"><path d="M20.5 5V2.5L22 2l2 .5 3-1h1l1.5 1h3l2-1 1 3 2 2.5L36 9.5l-3.5 1H27l-4.5-1-2-4.5z" fill="#fff"/><path d="M34 39.5H21L20 31l-.5-2-3-.5h-3v-9L13 16l-1.5-1L9 13 8 8l1-2.5 2.5-1h4L18 6l.5 7L23 9.5l2.5 1h8L36 12l4 5 4 9.5v5l-2 5-3 2-5 1z" fill="#C6DDFF"/><path d="m7 14.5-3 2V36l-3 2.5v3L5.5 44l4-1 1-1.5 2.5.5h4l3-.5V32l-.5-2.5-5-1L14 26l.5-9-1.5-2.5H7z" fill="#FCA"/><path d="M40.191 34.705a7.037 7.037 0 0 0 1.346-4.109.733.733 0 0 0-.697-.767.741.741 0 0 0-.768.697 5.613 5.613 0 0 1-1.03 3.269c-1.43 1.806-4.144 1.898-4.674 1.898a.733.733 0 1 0 0 1.465c.648 0 3.973-.118 5.823-2.453z" fill="#000"/><mask id="a" maskUnits="userSpaceOnUse" x="-.489" y="-.49" width="46" height="46" fill="#000"><path fill="#fff" d="M-.489-.49h46v46h-46z"/><path d="M43.877 25.264c-1.806-7.675-5.822-12.122-8.721-14.445 3.636.274 4.807 1.787 4.841 1.832a.733.733 0 0 0 1.214-.821c-.053-.08-1.071-1.534-4.032-2.2a3.362 3.362 0 0 0 1.227-2.523 3.764 3.764 0 0 0-2.803-3.414c.064-.53.097-1.062.098-1.596A1.466 1.466 0 0 0 33.663.75a4.19 4.19 0 0 0-1.02.655 1.89 1.89 0 0 1-1.371.571 1.892 1.892 0 0 1-1.369-.571 3.372 3.372 0 0 0-4.575 0c-.36.37-.856.577-1.372.571a1.884 1.884 0 0 1-1.368-.571A4.195 4.195 0 0 0 21.571.75a1.466 1.466 0 0 0-2.036 1.347c0 1.824.36 5.077 2.644 7.26-1.2.73-2.32 1.583-3.344 2.545V6.374c0-1.671-2.364-2.932-5.497-2.932-3.134 0-5.497 1.261-5.497 2.932v7.385c-2.571.256-4.398 1.41-4.398 2.877v18.643C1.672 35.755.51 36.72.51 37.892v3.665c0 1.671 2.364 2.932 5.497 2.932 2.802 0 4.984-1.01 5.415-2.419a8.233 8.233 0 0 0 4.114.953c3.133 0 5.497-1.26 5.497-2.932v-9.529c0-1.67-2.364-2.931-5.497-2.931-.367 0-.734.018-1.1.055v-11.05c0-1.605-2.182-2.828-5.13-2.922v-5.31a8.347 8.347 0 0 0 4.03.902 8.347 8.347 0 0 0 4.032-.902v4.999a23.66 23.66 0 0 0-1.447 1.78.733.733 0 0 0 1.182.866c.47-.637.975-1.249 1.511-1.832l.017-.019a19.267 19.267 0 0 1 4.865-3.899c.36.174.74.3 1.13.376l-1.889 1.764a.733.733 0 0 0 1.002 1.071l2.932-2.734h.233v2.199a.733.733 0 0 0 1.466 0v-2.203h.234l2.932 2.735a.733.733 0 1 0 1.001-1.072l-1.902-1.77a4.62 4.62 0 0 0 1.124-.378c1.937 1.048 8.305 5.19 10.69 15.312 1.037 4.407.664 7.778-1.11 10.017-2.27 2.863-6.207 3.01-6.973 3.01h-13.4a.733.733 0 1 0 0 1.465h13.4c1.246 0 5.501-.257 8.121-3.564 2.066-2.609 2.534-6.399 1.389-11.263zM6.008 36.426c2.424 0 4.032.88 4.032 1.466 0 .587-1.608 1.466-4.032 1.466s-4.031-.88-4.031-1.466 1.607-1.466 4.031-1.466zm0 6.597c-2.424 0-4.031-.88-4.031-1.466v-1.635a8.347 8.347 0 0 0 4.031.902 8.347 8.347 0 0 0 4.032-.902v1.635c0 .587-1.608 1.466-4.032 1.466zm9.529-1.466c-2.424 0-4.032-.88-4.032-1.466v-7.499a8.348 8.348 0 0 0 4.032.902 8.348 8.348 0 0 0 4.031-.902v7.5c0 .586-1.607 1.465-4.031 1.465zm4.031-10.995c0 .587-1.607 1.466-4.031 1.466-2.424 0-4.032-.88-4.032-1.466s1.608-1.466 4.032-1.466 4.031.88 4.031 1.466zm-9.529 0v5.3a8.347 8.347 0 0 0-4.03-.902c-.368 0-.735.018-1.1.055v-16.35a8.348 8.348 0 0 0 4.031.903 8.348 8.348 0 0 0 4.031-.902v9.283c-1.77.476-2.931 1.44-2.931 2.613zm2.932-13.926c0 .586-1.607 1.466-4.031 1.466-2.424 0-4.031-.88-4.031-1.466 0-.587 1.607-1.466 4.031-1.466 2.424 0 4.031.88 4.031 1.466zm.367-8.796c-2.424 0-4.032-.88-4.032-1.466s1.608-1.466 4.032-1.466 4.031.88 4.031 1.466c0 .587-1.607 1.466-4.031 1.466zm23.602-.733c0 1.201-1.301 2.187-2.932 2.2a3.786 3.786 0 0 1-.81-.094 8.684 8.684 0 0 0 2.14-4.053 2.246 2.246 0 0 1 1.602 1.947zM21.67 2.548c.62.58 1.438.9 2.286.894a3.308 3.308 0 0 0 2.287-.894 1.93 1.93 0 0 1 2.741 0c.62.58 1.439.901 2.288.894a3.308 3.308 0 0 0 2.287-.894c.203-.18.43-.331.672-.452 0 1.362-.253 4.727-2.614 6.572a3.144 3.144 0 0 1-1.84.63 15.852 15.852 0 0 0 1.496-3.461.733.733 0 1 0-1.413-.393 13.445 13.445 0 0 1-1.849 3.862h-.753a13.573 13.573 0 0 1-1.85-3.862.733.733 0 0 0-1.412.394c.36 1.21.862 2.372 1.498 3.463a3.152 3.152 0 0 1-1.878-.633C21.254 6.824 21 3.46 21 2.102c.243.117.468.267.67.446z"/></mask><path d="M43.877 25.264c-1.806-7.675-5.822-12.122-8.721-14.445 3.636.274 4.807 1.787 4.841 1.832a.733.733 0 0 0 1.214-.821c-.053-.08-1.071-1.534-4.032-2.2a3.362 3.362 0 0 0 1.227-2.523 3.764 3.764 0 0 0-2.803-3.414c.064-.53.097-1.062.098-1.596A1.466 1.466 0 0 0 33.663.75a4.19 4.19 0 0 0-1.02.655 1.89 1.89 0 0 1-1.371.571 1.892 1.892 0 0 1-1.369-.571 3.372 3.372 0 0 0-4.575 0c-.36.37-.856.577-1.372.571a1.884 1.884 0 0 1-1.368-.571A4.195 4.195 0 0 0 21.571.75a1.466 1.466 0 0 0-2.036 1.347c0 1.824.36 5.077 2.644 7.26-1.2.73-2.32 1.583-3.344 2.545V6.374c0-1.671-2.364-2.932-5.497-2.932-3.134 0-5.497 1.261-5.497 2.932v7.385c-2.571.256-4.398 1.41-4.398 2.877v18.643C1.672 35.755.51 36.72.51 37.892v3.665c0 1.671 2.364 2.932 5.497 2.932 2.802 0 4.984-1.01 5.415-2.419a8.233 8.233 0 0 0 4.114.953c3.133 0 5.497-1.26 5.497-2.932v-9.529c0-1.67-2.364-2.931-5.497-2.931-.367 0-.734.018-1.1.055v-11.05c0-1.605-2.182-2.828-5.13-2.922v-5.31a8.347 8.347 0 0 0 4.03.902 8.347 8.347 0 0 0 4.032-.902v4.999a23.66 23.66 0 0 0-1.447 1.78.733.733 0 0 0 1.182.866c.47-.637.975-1.249 1.511-1.832l.017-.019a19.267 19.267 0 0 1 4.865-3.899c.36.174.74.3 1.13.376l-1.889 1.764a.733.733 0 0 0 1.002 1.071l2.932-2.734h.233v2.199a.733.733 0 0 0 1.466 0v-2.203h.234l2.932 2.735a.733.733 0 1 0 1.001-1.072l-1.902-1.77a4.62 4.62 0 0 0 1.124-.378c1.937 1.048 8.305 5.19 10.69 15.312 1.037 4.407.664 7.778-1.11 10.017-2.27 2.863-6.207 3.01-6.973 3.01h-13.4a.733.733 0 1 0 0 1.465h13.4c1.246 0 5.501-.257 8.121-3.564 2.066-2.609 2.534-6.399 1.389-11.263zM6.008 36.426c2.424 0 4.032.88 4.032 1.466 0 .587-1.608 1.466-4.032 1.466s-4.031-.88-4.031-1.466 1.607-1.466 4.031-1.466zm0 6.597c-2.424 0-4.031-.88-4.031-1.466v-1.635a8.347 8.347 0 0 0 4.031.902 8.347 8.347 0 0 0 4.032-.902v1.635c0 .587-1.608 1.466-4.032 1.466zm9.529-1.466c-2.424 0-4.032-.88-4.032-1.466v-7.499a8.348 8.348 0 0 0 4.032.902 8.348 8.348 0 0 0 4.031-.902v7.5c0 .586-1.607 1.465-4.031 1.465zm4.031-10.995c0 .587-1.607 1.466-4.031 1.466-2.424 0-4.032-.88-4.032-1.466s1.608-1.466 4.032-1.466 4.031.88 4.031 1.466zm-9.529 0v5.3a8.347 8.347 0 0 0-4.03-.902c-.368 0-.735.018-1.1.055v-16.35a8.348 8.348 0 0 0 4.031.903 8.348 8.348 0 0 0 4.031-.902v9.283c-1.77.476-2.931 1.44-2.931 2.613zm2.932-13.926c0 .586-1.607 1.466-4.031 1.466-2.424 0-4.031-.88-4.031-1.466 0-.587 1.607-1.466 4.031-1.466 2.424 0 4.031.88 4.031 1.466zm.367-8.796c-2.424 0-4.032-.88-4.032-1.466s1.608-1.466 4.032-1.466 4.031.88 4.031 1.466c0 .587-1.607 1.466-4.031 1.466zm23.602-.733c0 1.201-1.301 2.187-2.932 2.2a3.786 3.786 0 0 1-.81-.094 8.684 8.684 0 0 0 2.14-4.053 2.246 2.246 0 0 1 1.602 1.947zM21.67 2.548c.62.58 1.438.9 2.286.894a3.308 3.308 0 0 0 2.287-.894 1.93 1.93 0 0 1 2.741 0c.62.58 1.439.901 2.288.894a3.308 3.308 0 0 0 2.287-.894c.203-.18.43-.331.672-.452 0 1.362-.253 4.727-2.614 6.572a3.144 3.144 0 0 1-1.84.63 15.852 15.852 0 0 0 1.496-3.461.733.733 0 1 0-1.413-.393 13.445 13.445 0 0 1-1.849 3.862h-.753a13.573 13.573 0 0 1-1.85-3.862.733.733 0 0 0-1.412.394c.36 1.21.862 2.372 1.498 3.463a3.152 3.152 0 0 1-1.878-.633C21.254 6.824 21 3.46 21 2.102c.243.117.468.267.67.446z" fill="#002356"/><path d="M43.877 25.264c-1.806-7.675-5.822-12.122-8.721-14.445 3.636.274 4.807 1.787 4.841 1.832a.733.733 0 0 0 1.214-.821c-.053-.08-1.071-1.534-4.032-2.2a3.362 3.362 0 0 0 1.227-2.523 3.764 3.764 0 0 0-2.803-3.414c.064-.53.097-1.062.098-1.596A1.466 1.466 0 0 0 33.663.75a4.19 4.19 0 0 0-1.02.655 1.89 1.89 0 0 1-1.371.571 1.892 1.892 0 0 1-1.369-.571 3.372 3.372 0 0 0-4.575 0c-.36.37-.856.577-1.372.571a1.884 1.884 0 0 1-1.368-.571A4.195 4.195 0 0 0 21.571.75a1.466 1.466 0 0 0-2.036 1.347c0 1.824.36 5.077 2.644 7.26-1.2.73-2.32 1.583-3.344 2.545V6.374c0-1.671-2.364-2.932-5.497-2.932-3.134 0-5.497 1.261-5.497 2.932v7.385c-2.571.256-4.398 1.41-4.398 2.877v18.643C1.672 35.755.51 36.72.51 37.892v3.665c0 1.671 2.364 2.932 5.497 2.932 2.802 0 4.984-1.01 5.415-2.419a8.233 8.233 0 0 0 4.114.953c3.133 0 5.497-1.26 5.497-2.932v-9.529c0-1.67-2.364-2.931-5.497-2.931-.367 0-.734.018-1.1.055v-11.05c0-1.605-2.182-2.828-5.13-2.922v-5.31a8.347 8.347 0 0 0 4.03.902 8.347 8.347 0 0 0 4.032-.902v4.999a23.66 23.66 0 0 0-1.447 1.78.733.733 0 0 0 1.182.866c.47-.637.975-1.249 1.511-1.832l.017-.019a19.267 19.267 0 0 1 4.865-3.899c.36.174.74.3 1.13.376l-1.889 1.764a.733.733 0 0 0 1.002 1.071l2.932-2.734h.233v2.199a.733.733 0 0 0 1.466 0v-2.203h.234l2.932 2.735a.733.733 0 1 0 1.001-1.072l-1.902-1.77a4.62 4.62 0 0 0 1.124-.378c1.937 1.048 8.305 5.19 10.69 15.312 1.037 4.407.664 7.778-1.11 10.017-2.27 2.863-6.207 3.01-6.973 3.01h-13.4a.733.733 0 1 0 0 1.465h13.4c1.246 0 5.501-.257 8.121-3.564 2.066-2.609 2.534-6.399 1.389-11.263zM6.008 36.426c2.424 0 4.032.88 4.032 1.466 0 .587-1.608 1.466-4.032 1.466s-4.031-.88-4.031-1.466 1.607-1.466 4.031-1.466zm0 6.597c-2.424 0-4.031-.88-4.031-1.466v-1.635a8.347 8.347 0 0 0 4.031.902 8.347 8.347 0 0 0 4.032-.902v1.635c0 .587-1.608 1.466-4.032 1.466zm9.529-1.466c-2.424 0-4.032-.88-4.032-1.466v-7.499a8.348 8.348 0 0 0 4.032.902 8.348 8.348 0 0 0 4.031-.902v7.5c0 .586-1.607 1.465-4.031 1.465zm4.031-10.995c0 .587-1.607 1.466-4.031 1.466-2.424 0-4.032-.88-4.032-1.466s1.608-1.466 4.032-1.466 4.031.88 4.031 1.466zm-9.529 0v5.3a8.347 8.347 0 0 0-4.03-.902c-.368 0-.735.018-1.1.055v-16.35a8.348 8.348 0 0 0 4.031.903 8.348 8.348 0 0 0 4.031-.902v9.283c-1.77.476-2.931 1.44-2.931 2.613zm2.932-13.926c0 .586-1.607 1.466-4.031 1.466-2.424 0-4.031-.88-4.031-1.466 0-.587 1.607-1.466 4.031-1.466 2.424 0 4.031.88 4.031 1.466zm.367-8.796c-2.424 0-4.032-.88-4.032-1.466s1.608-1.466 4.032-1.466 4.031.88 4.031 1.466c0 .587-1.607 1.466-4.031 1.466zm23.602-.733c0 1.201-1.301 2.187-2.932 2.2a3.786 3.786 0 0 1-.81-.094 8.684 8.684 0 0 0 2.14-4.053 2.246 2.246 0 0 1 1.602 1.947zM21.67 2.548c.62.58 1.438.9 2.286.894a3.308 3.308 0 0 0 2.287-.894 1.93 1.93 0 0 1 2.741 0c.62.58 1.439.901 2.288.894a3.308 3.308 0 0 0 2.287-.894c.203-.18.43-.331.672-.452 0 1.362-.253 4.727-2.614 6.572a3.144 3.144 0 0 1-1.84.63 15.852 15.852 0 0 0 1.496-3.461.733.733 0 1 0-1.413-.393 13.445 13.445 0 0 1-1.849 3.862h-.753a13.573 13.573 0 0 1-1.85-3.862.733.733 0 0 0-1.412.394c.36 1.21.862 2.372 1.498 3.463a3.152 3.152 0 0 1-1.878-.633C21.254 6.824 21 3.46 21 2.102c.243.117.468.267.67.446z" stroke="#002356" stroke-width=".6" mask="url(#a)"/><path d="M40.191 34.705a7.037 7.037 0 0 0 1.346-4.109.733.733 0 0 0-.697-.767.742.742 0 0 0-.768.697 5.613 5.613 0 0 1-1.03 3.269c-1.43 1.806-4.144 1.897-4.674 1.897a.733.733 0 0 0 0 1.466c.648 0 3.973-.118 5.823-2.453zM28.387 31a.47.47 0 0 1-.278-.073 1.066 1.066 0 0 1-.19-.176l-3.353-3.835a.851.851 0 0 1-.16-.205c-.02-.069-.03-.171-.03-.308v-.322c0-.097.03-.175.088-.234a.339.339 0 0 1 .249-.102h.79c.683 0 1.206-.088 1.567-.264.36-.176.605-.41.732-.703.136-.292.204-.629.204-1.01 0-.36-.068-.688-.204-.98-.127-.303-.361-.542-.703-.718-.342-.175-.825-.263-1.45-.263h-1.068a.37.37 0 0 1-.249-.088.37.37 0 0 1-.088-.249v-.38c0-.098.03-.176.088-.235a.339.339 0 0 1 .249-.102h5.826c.098 0 .176.034.235.102a.293.293 0 0 1 .102.235v.38c0 .098-.034.18-.102.249a.316.316 0 0 1-.235.088h-2.225l-.366-.395c.635.156 1.069.453 1.303.893.234.439.351.946.351 1.522 0 .537-.117 1.03-.35 1.478-.225.45-.587.81-1.084 1.084-.488.263-1.118.405-1.889.424l-.439.015.015-.586 3.747 4.304c.079.078.117.152.117.22 0 .078-.029.136-.087.175a.387.387 0 0 1-.22.059h-.893zm-3.806-6.851c-.107 0-.19-.03-.249-.088-.058-.058-.088-.141-.088-.249v-.366c0-.107.03-.19.088-.248a.37.37 0 0 1 .249-.088h5.826c.098 0 .176.029.235.088a.31.31 0 0 1 .102.248v.366a.31.31 0 0 1-.102.25.317.317 0 0 1-.235.087h-5.826z" fill="#002356"/></svg>