<svg width="32" height="38" fill="none" xmlns="http://www.w3.org/2000/svg"><path d="m20.5 34.5-4 1.5V2L23 5l7 2.5L31 9v5l-1 6.5-1.5 4-3 5.5-5 4.5z" fill="#FCA"/><path d="m12.5 34.5 4 1.5V2L10 5 3 7.5 2 9v5l1 6.5 1.5 4 3 5.5 5 4.5z" fill="#C6DDFF"/><path d="M30.844 7.023A59.682 59.682 0 0 1 16.485.933a.957.957 0 0 0-.973 0c-4.586 2.708-9.283 4.7-14.36 6.09a.957.957 0 0 0-.704.924v7.737c0 8.036 3.71 13.359 6.82 16.406a23.703 23.703 0 0 0 5.057 3.778c.786.432 1.515.764 2.138.987.62.223 1.15.344 1.536.344.385 0 .916-.121 1.535-.344a15.176 15.176 0 0 0 2.138-.987 23.706 23.706 0 0 0 5.058-3.778c3.11-3.047 6.819-8.37 6.819-16.406V7.947a.957.957 0 0 0-.705-.924zm-1.21 8.66c0 7.375-3.395 12.247-6.244 15.04a21.587 21.587 0 0 1-4.655 3.476c-.682.374-1.284.647-1.762.826-.486.183-.82.26-.974.26-.155 0-.488-.077-.975-.26-.477-.179-1.08-.452-1.761-.826a21.587 21.587 0 0 1-4.655-3.476c-2.85-2.793-6.245-7.665-6.245-15.04v-7.01a59.816 59.816 0 0 0 13.636-5.807 61.755 61.755 0 0 0 13.635 5.806v7.012z" fill="#002356" stroke="#002356" stroke-width=".4"/><path d="M25.02 25.418a.758.758 0 0 0-1.047.22 18.435 18.435 0 0 1-2.177 2.718 19.337 19.337 0 0 1-2.172 1.933.758.758 0 0 0 .919 1.204 20.88 20.88 0 0 0 2.342-2.084 19.922 19.922 0 0 0 2.355-2.943.757.757 0 0 0-.22-1.048zM17.865 31.475l-.044.025a.757.757 0 0 0 .759 1.311l.05-.03a.757.757 0 1 0-.765-1.306z" fill="#002356"/><path d="M10.377 17.913a1.796 1.796 0 0 0-1.281-.53c-.485 0-.938.187-1.282.53a1.816 1.816 0 0 0 0 2.563l2.563-2.563zm0 0 2.73 2.73.46.46.46-.46 7.593-7.593c.343-.343.796-.53 1.282-.53.485 0 .938.187 1.281.53a1.815 1.815 0 0 1 0 2.563l-9.334 9.334c-.343.343-.796.531-1.282.531-.485 0-.938-.188-1.281-.53l-4.472-4.472 2.563-2.563z" fill="#fff" stroke="#002356" stroke-width="1.3"/></svg>