<svg width="23" height="25" fill="none" xmlns="http://www.w3.org/2000/svg"><path d="M21.07 16.695c-.673 1.821-1.689 3.404-3.022 4.706-1.517 1.481-3.503 2.658-5.903 3.498a1.848 1.848 0 0 1-.574.101h-.022a1.832 1.832 0 0 1-.594-.1c-2.403-.839-4.392-2.015-5.91-3.497-1.334-1.301-2.35-2.884-3.02-4.705C.803 13.388.872 9.74.928 6.808l.001-.045c.011-.242.019-.496.023-.777A2.65 2.65 0 0 1 3.448 3.39c2.874-.16 5.098-1.097 6.998-2.95l.016-.014a1.6 1.6 0 0 1 2.174 0l.017.015c1.9 1.852 4.123 2.79 6.998 2.95a2.65 2.65 0 0 1 2.495 2.595c.004.283.011.537.022.777l.001.02c.056 2.936.125 6.59-1.1 9.912z" fill="#00DD80"/><path d="M21.07 16.695c-.673 1.82-1.689 3.404-3.022 4.706-1.517 1.48-3.503 2.658-5.903 3.498a1.858 1.858 0 0 1-.574.1V0c.381.005.761.147 1.065.425l.017.016c1.9 1.851 4.123 2.789 6.998 2.95a2.65 2.65 0 0 1 2.495 2.595c.004.283.011.537.022.777l.001.02c.056 2.936.125 6.59-1.1 9.912z" fill="#00AA63"/><path d="M17.78 12.5a6.238 6.238 0 0 1-6.21 6.23h-.021a6.238 6.238 0 0 1-6.23-6.23 6.238 6.238 0 0 1 6.23-6.23h.022a6.238 6.238 0 0 1 6.208 6.23z" fill="#fff"/><path d="M17.78 12.5a6.238 6.238 0 0 1-6.21 6.23V6.27a6.238 6.238 0 0 1 6.21 6.23z" fill="#E1EBF0"/><path d="m14.377 11.602-2.806 2.806-.607.607a.731.731 0 0 1-1.037 0L8.623 13.71a.733.733 0 1 1 1.037-1.037l.786.786 2.894-2.894a.733.733 0 1 1 1.037 1.037z" fill="#B4D2D7"/><path d="m14.377 11.602-2.806 2.806v-2.075l1.769-1.768a.733.733 0 1 1 1.037 1.037z" fill="#6FA5AA"/></svg>