<svg width="60" height="60" viewBox="0 0 60 60" fill="none" xmlns="http://www.w3.org/2000/svg">
<path d="M30 60C46.5685 60 60 46.5685 60 30C60 13.4315 46.5685 0 30 0C13.4315 0 0 13.4315 0 30C0 46.5685 13.4315 60 30 60Z" fill="#03A9F4"/>
<path d="M49.4331 17.948C47.9713 18.5864 46.4251 19.0105 44.8423 19.2073C46.5109 18.2178 47.7582 16.6502 48.3475 14.802C46.7858 15.729 45.0769 16.3818 43.2949 16.7323C42.2029 15.5644 40.7848 14.7522 39.2249 14.4013C37.6651 14.0504 36.0357 14.1769 34.5488 14.7645C33.0619 15.3522 31.7862 16.3736 30.8876 17.6961C29.9891 19.0186 29.5093 20.5808 29.5107 22.1796C29.5051 22.7899 29.5673 23.3989 29.6962 23.9954C26.5264 23.8397 23.425 23.0171 20.5948 21.5812C17.7645 20.1453 15.269 18.1285 13.2712 15.6625C12.2443 17.4168 11.9262 19.497 12.3818 21.4779C12.8374 23.4589 14.0324 25.1911 15.7225 26.3204C14.461 26.2864 13.2263 25.9493 12.1225 25.3375V25.4244C12.1261 27.2632 12.7625 29.0447 13.9249 30.4694C15.0873 31.8942 16.7048 32.8754 18.5054 33.248C17.824 33.4271 17.1218 33.5147 16.4173 33.5086C15.91 33.5179 15.4031 33.473 14.9054 33.3744C15.4213 34.9558 16.4145 36.3385 17.7483 37.3323C19.0822 38.3262 20.6912 38.8824 22.3541 38.9244C19.5362 41.1269 16.0623 42.3234 12.4857 42.323C11.8484 42.3285 11.2115 42.2915 10.5791 42.2125C14.226 44.5638 18.4768 45.8062 22.8159 45.7888C37.4804 45.7888 45.4975 33.6428 45.4975 23.1152C45.4975 22.7638 45.4975 22.4244 45.4699 22.0849C47.0312 20.9581 48.3742 19.5562 49.4331 17.948Z" fill="white"/>
</svg>
