<svg width="17" height="22" fill="none" xmlns="http://www.w3.org/2000/svg"><path d="M0 12.31s-.059-1.443 1.128-1.874c1.049-.382 1.453.38 1.453.38s-.038-1.169 1.221-1.602c1.186-.408 1.73.586 1.73.586s.194-1.144 1.443-1.477c1.051-.281 1.835.712 1.835.712v-7.46C8.81.988 9.152 0 10.41 0c1.259 0 1.547 1.014 1.547 1.574v12.528c0 .611.63.611.63 0v-1.63c0-2.317 1.281-3.753 1.73-4.15.448-.397 1.049-.599 1.774-.448 1.231.254.962 1.173.613 1.953-.84 1.881-1.418 4.562-1.594 5.83-.497 3.579-3.655 6.34-7.478 6.343-4.17.002-7.628-3.238-7.632-7.287v-2.402z" fill="#FFDC5D"/></svg>