<svg width="48" height="45" viewBox="0 0 48 45" fill="none" xmlns="http://www.w3.org/2000/svg">
<path d="M38.162 12.2301C37.6702 9.27433 36.2229 6.57681 34.0095 4.52975C31.5501 2.25311 28.3529 1 25.0232 1C22.4503 1 19.9437 1.74613 17.7964 3.15228C16.0086 4.3193 14.5235 5.89764 13.4736 7.75339C13.0195 7.6673 12.5466 7.61947 12.0736 7.61947C8.05347 7.61947 4.78059 10.9292 4.78059 14.9946C4.78059 15.5207 4.83734 16.0277 4.93194 16.5251C2.33066 18.4383 0.750977 21.5184 0.750977 24.7995C0.750977 27.4492 1.72527 30.0224 3.5036 32.0598C5.32922 34.1452 7.74131 35.3791 10.3142 35.5226C10.3426 35.5226 10.3615 35.5226 10.3899 35.5226H18.5248C19.2342 35.5226 19.8018 34.9487 19.8018 34.2313C19.8018 33.5138 19.2342 32.9399 18.5248 32.9399H10.4277C6.55891 32.7007 3.30496 28.9797 3.30496 24.7899C3.30496 22.0828 4.74275 19.5575 7.06025 18.1896C7.59942 17.8739 7.82644 17.2139 7.61834 16.6208C7.42916 16.1042 7.33457 15.559 7.33457 14.9755C7.33457 12.3354 9.46288 10.1831 12.0736 10.1831C12.6317 10.1831 13.1803 10.2787 13.6911 10.47C14.3154 10.6996 15.006 10.4127 15.2897 9.81001C17.0586 6.01243 20.8801 3.56361 25.0327 3.56361C30.6136 3.56361 35.2202 7.79165 35.75 13.3972C35.8067 13.9807 36.2418 14.4494 36.8094 14.545C41.0187 15.272 44.197 19.2035 44.197 23.6899C44.197 28.444 40.4985 32.5764 35.9391 32.9303H28.9677C28.2583 32.9303 27.6907 33.5043 27.6907 34.2217C27.6907 34.9391 28.2583 35.5131 28.9677 35.5131H35.9864C36.0148 35.5131 36.0432 35.5131 36.081 35.5131C38.9661 35.3026 41.6619 33.9634 43.6673 31.725C45.6632 29.5058 46.751 26.6552 46.751 23.6899C46.7415 18.3235 43.1187 13.5502 38.162 12.2301Z" fill="#BCBCBC" stroke="#BCBCBC" stroke-width="0.804769"/>
<path d="M31.4142 26.0257C31.9156 25.5187 31.9156 24.7057 31.4142 24.1987L24.6509 17.3592C24.4144 17.12 24.0834 16.9766 23.7523 16.9766C23.4212 16.9766 23.0902 17.1105 22.8537 17.3592L16.0904 24.1987C15.589 24.7057 15.589 25.5187 16.0904 26.0257C16.3363 26.2744 16.6674 26.4084 16.989 26.4084C17.3106 26.4084 17.6417 26.284 17.8876 26.0257L22.4753 21.3864V42.7083C22.4753 43.4257 23.0429 43.9997 23.7523 43.9997C24.4617 43.9997 25.0293 43.4257 25.0293 42.7083V21.3864L29.617 26.0257C30.1089 26.5327 30.9129 26.5327 31.4142 26.0257Z" fill="#BCBCBC" stroke="#BCBCBC" stroke-width="0.804769"/>
</svg>
