<svg width="24" height="27" viewBox="0 0 24 27" fill="none" xmlns="http://www.w3.org/2000/svg">
<path d="M21.9997 0.898438H7.5979C6.49367 0.899873 5.59902 1.83923 5.59766 2.99866V12.6597H6.39776V2.99866C6.39776 2.30275 6.93513 1.73852 7.5979 1.73852H17.5991V3.83874C17.6005 4.99817 18.4952 5.93752 19.5994 5.93896H21.5996V22.3207C21.5996 23.0166 21.0623 23.5808 20.3995 23.5808H14.3987V24.4209H21.9997C23.1039 24.4194 23.9986 23.4801 23.9999 22.3207V2.99866C23.9986 1.83923 23.1039 0.899873 21.9997 0.898438ZM19.5994 5.09887C18.9366 5.09887 18.3992 4.53464 18.3992 3.83874V2.33249L21.0339 5.09887H19.5994ZM23.1998 22.3207C23.1998 23.0166 22.6625 23.5808 21.9997 23.5808H21.9893C22.254 23.2194 22.3982 22.7766 22.3997 22.3207V5.51892C22.3997 5.50969 22.3952 5.50169 22.3945 5.49246C22.3925 5.45575 22.3857 5.41924 22.3742 5.38458C22.3697 5.37104 22.3665 5.35812 22.3609 5.34499C22.3415 5.29925 22.3146 5.25762 22.281 5.22193L18.9649 1.73852H21.9997C22.6625 1.73852 23.1998 2.30275 23.1998 2.99866V22.3207Z" fill="white"/>
<path d="M7.60156 11.8199V12.66H16.0026V13.9202H12.0021V14.7602H16.0026V16.0204H14.4024V16.8605H16.0026V18.1206H14.4024V18.9607H16.0026V20.2208H13.6023V21.0609H20.4032V20.2208H16.8027V18.9607H20.4032V18.1206H16.8027V16.8605H20.4032V16.0204H16.8027V14.7602H20.4032V13.9202H16.8027V12.66H20.4032V11.8199H16.8027V10.5598H20.4032V9.71973H7.60156V10.5598H16.0026V11.8199H7.60156Z" fill="white"/>
<path d="M13.6016 21.8984H20.4024V22.7385H13.6016V21.8984Z" fill="white"/>
<path d="M12 3.83691H16.8006V4.677H12V3.83691Z" fill="white"/>
<path d="M12 5.51904H14.4003V6.35913H12V5.51904Z" fill="white"/>
<path d="M15.207 5.51904H16.8072V6.35913H15.207V5.51904Z" fill="white"/>
<path d="M12 7.19971H16.8006V8.03979H12V7.19971Z" fill="white"/>
<path d="M13.2016 23.5797H12.8016V18.5392H13.2016C13.4226 18.5392 13.6017 18.3511 13.6017 18.1191V16.0189C13.6017 15.8355 13.4884 15.6733 13.3216 15.6181L6.92078 13.5179C6.84284 13.4921 6.75885 13.4921 6.68091 13.5179L0.280113 15.6181C0.113295 15.6733 0 15.8355 0 16.0189V18.1191C0 18.3511 0.179124 18.5392 0.40005 18.5392H0.800099V23.5797H0.40005C0.179124 23.5797 0 23.7678 0 23.9997V25.6799C0 25.9119 0.179124 26.0999 0.40005 26.0999H13.2016C13.4226 26.0999 13.6017 25.9119 13.6017 25.6799V23.9997C13.6017 23.7678 13.4226 23.5797 13.2016 23.5797ZM12.0015 23.5797H11.2014V18.5392H12.0015V23.5797ZM9.60119 23.5797V18.5392H10.4013V23.5797H9.60119ZM6.40079 23.5797V18.5392H7.20089V23.5797H6.40079ZM3.2004 23.5797V18.5392H4.0005V23.5797H3.2004ZM4.8006 18.5392H5.6007V23.5797H4.8006V18.5392ZM8.00099 18.5392H8.80109V23.5797H8.00099V18.5392ZM0.800099 16.3276L6.80084 14.3588L12.8016 16.3276V17.6991H0.800099V16.3276ZM1.6002 18.5392H2.4003V23.5797H1.6002V18.5392ZM12.8016 25.2599H0.800099V24.4198H12.8016V25.2599Z" fill="white"/>
<path d="M7.6002 16.0208C7.6002 16.4847 7.24195 16.8608 6.8001 16.8608C6.35825 16.8608 6 16.4847 6 16.0208C6 15.5568 6.35825 15.1807 6.8001 15.1807C7.24195 15.1807 7.6002 15.5568 7.6002 16.0208Z" fill="white"/>
<path d="M11.2152 4.7748C10.9583 4.7748 10.7012 4.77421 10.4443 4.7754C10.4128 4.7754 10.3979 4.77155 10.3904 4.73277C10.3432 4.48736 10.2407 4.2683 10.0846 4.07618C10.0774 4.0673 10.0628 4.06108 10.0677 4.04243H10.1224C10.4904 4.04243 10.8584 4.04243 11.2261 4.04243C11.3203 4.04243 11.3658 3.99655 11.3676 3.90004C11.3684 3.84291 11.3676 3.78548 11.3676 3.72835C11.3676 3.5901 11.3312 3.5531 11.1957 3.5531C10.0479 3.55251 8.89983 3.55251 7.75145 3.55251C7.73656 3.55251 7.72195 3.55192 7.70706 3.55251C7.62659 3.55695 7.58134 3.60313 7.57905 3.68691C7.57733 3.75351 7.57848 3.82041 7.57876 3.88732C7.57934 3.99892 7.62172 4.04214 7.73026 4.04243C8.15181 4.04243 8.57336 4.04036 8.99491 4.04303C9.29733 4.0448 9.5459 4.16972 9.73692 4.41187C9.82026 4.51756 9.87954 4.63685 9.91104 4.7751H9.84546C9.13925 4.7751 8.43275 4.7751 7.72654 4.7751C7.62229 4.7751 7.57934 4.8198 7.57848 4.92785C7.57819 4.98321 7.57848 5.03856 7.57848 5.09392C7.57848 5.22476 7.61714 5.26443 7.74372 5.26443C8.44248 5.26443 9.14154 5.26443 9.8403 5.26443C9.89071 5.26443 9.90798 5.28831 9.89214 5.33607L9.88985 5.3414C9.75611 5.7363 9.40014 5.99532 8.98575 5.9968C8.60859 5.99828 8.23142 5.9968 7.85426 5.9971C7.81932 5.9971 7.7841 5.99503 7.74973 6.00657C7.66153 6.03617 7.60483 6.09656 7.58592 6.1904C7.56502 6.29431 7.60196 6.37631 7.681 6.44143C8.37232 7.01158 9.06336 7.58202 9.7541 8.15306C9.78933 8.18207 9.82656 8.19569 9.87095 8.19539C10.0078 8.1945 10.1447 8.1951 10.2813 8.1951C10.2905 8.1951 10.2999 8.19539 10.3091 8.1945C10.3635 8.18829 10.4028 8.16224 10.4194 8.1057C10.4354 8.05123 10.4162 8.0089 10.3767 7.97367C10.3598 7.95887 10.3415 7.94584 10.324 7.93193C9.7269 7.46036 9.13008 6.98879 8.53327 6.51692C8.52296 6.50893 8.50434 6.50597 8.50807 6.48347C8.61002 6.48347 8.7114 6.48377 8.81306 6.48347C8.95167 6.48288 9.09056 6.49057 9.22802 6.46512C9.82054 6.35499 10.2576 5.9228 10.387 5.31476C10.3967 5.26917 10.4145 5.26354 10.452 5.26384C10.7089 5.26502 10.9661 5.26502 11.2229 5.26443C11.3206 5.26443 11.3656 5.21766 11.3667 5.1179C11.3676 5.05692 11.3667 4.99594 11.3667 4.93466C11.3664 4.81832 11.3252 4.7754 11.2141 4.7751L11.2152 4.7748Z" fill="white"/>
</svg>
