<svg width="22" height="22" viewBox="0 0 22 22" fill="none" xmlns="http://www.w3.org/2000/svg">
<path d="M20.9258 9.92578C20.3328 9.92578 19.8516 10.407 19.8516 11C19.8516 15.8812 15.8813 19.8516 11 19.8516C6.11875 19.8516 2.14844 15.8812 2.14844 11C2.14844 10.407 1.66719 9.92578 1.07422 9.92578C0.48125 9.92578 0 10.407 0 11C0 13.9391 1.14297 16.702 3.22266 18.7773C5.30234 20.857 8.06094 22 11 22C13.9391 22 16.702 20.857 18.7773 18.7773C20.857 16.6977 22 13.9391 22 11C22 10.407 21.5187 9.92578 20.9258 9.92578Z" fill="white"/>
<path d="M9.52676 14.7641C9.92207 15.1594 10.4463 15.3742 11.0006 15.3742C11.5592 15.3742 12.0834 15.1551 12.4744 14.7641L15.1771 12.0613C15.5982 11.6402 15.5982 10.9613 15.1771 10.5402C14.7561 10.1191 14.0771 10.1191 13.6561 10.5402L12.0748 12.1258V1.07422C12.0748 0.48125 11.5936 0 11.0006 0C10.4076 0 9.92637 0.48125 9.92637 1.07422V12.1258L8.34082 10.5402C7.91973 10.1191 7.24082 10.1191 6.81973 10.5402C6.39863 10.9613 6.39863 11.6402 6.81973 12.0613L9.52676 14.7641Z" fill="white"/>
</svg>
