<svg width="22" height="27" viewBox="0 0 22 27" fill="none" xmlns="http://www.w3.org/2000/svg">
<path d="M3.81075 3.14328H2.92863V2.5552H5.43679V3.14328H4.55467V5.71907H3.81075V3.14328ZM6.05133 5.71907H5.47796L6.70116 2.56108H7.44508L8.66534 5.71907H8.10373C8.04845 5.72101 7.99395 5.70559 7.94789 5.67496C7.90752 5.64726 7.87752 5.60692 7.86262 5.56029L7.67443 5.01043H6.47475L6.2895 5.56029C6.27016 5.60748 6.23715 5.64782 6.19471 5.67611C6.15227 5.7044 6.10234 5.71936 6.05133 5.71907ZM6.63941 4.51057H7.50095L7.20691 3.64609C7.18926 3.59316 7.16574 3.52847 7.14222 3.45496C7.1187 3.38145 7.09223 3.29912 7.06577 3.21091C7.04225 3.29912 7.01872 3.38145 6.9952 3.4579C6.97168 3.53436 6.94815 3.59904 6.92463 3.65197L6.63941 4.51057ZM9.71507 5.71907C9.75434 5.72043 9.79285 5.70794 9.82386 5.68378C9.85034 5.65983 9.87313 5.63209 9.89149 5.60145L10.4796 4.5782C10.4952 4.55218 10.508 4.52458 10.5178 4.49586L11.15 5.60145C11.1677 5.63338 11.1917 5.66138 11.2205 5.68378C11.2536 5.70836 11.2941 5.72082 11.3352 5.71907H12.0674L11.0559 4.06363L12.0468 2.56108H11.3529C11.3225 2.56179 11.2928 2.57061 11.2669 2.58664C11.2411 2.60266 11.22 2.62531 11.2058 2.65224L10.656 3.59904L10.6236 3.65197C10.6146 3.66905 10.6067 3.68673 10.6001 3.7049L9.97088 2.64342C9.95766 2.61758 9.93724 2.59613 9.91207 2.58167C9.87879 2.5669 9.8426 2.55987 9.80622 2.56108H9.07406L10.0532 4.09597L9.03583 5.71907H9.71507ZM21.5149 26.2813H6.50121V20.0064H1.98771V19.9859C1.75137 19.99 1.51663 19.9465 1.29741 19.8581C1.07819 19.7697 0.878968 19.6382 0.711576 19.4713C0.0176424 18.7744 0 17.6306 0 17.5042V0H15.0107V6.64235H19.1273C19.4192 6.62489 19.7117 6.66639 19.9872 6.76436C20.2628 6.86233 20.5158 7.01477 20.7312 7.21261C20.9466 7.41044 21.12 7.64961 21.241 7.91587C21.362 8.18212 21.4281 8.47001 21.4355 8.76238L21.5149 26.2813ZM1.98771 18.8097C2.9698 18.8097 3.03155 17.6335 3.03743 17.4895V9.04466C3.06095 8.2037 3.5814 6.64235 5.36622 6.64235H5.62498H13.7669V1.17616H1.17616V17.5042C1.17616 17.5571 1.19086 18.8097 1.98771 18.8097ZM6.50121 18.8303V8.77708C6.50121 8.56831 6.37772 7.81851 5.36622 7.81851C4.35472 7.81851 4.21065 8.85941 4.21065 9.06818V17.5042C4.19638 17.9653 4.082 18.4178 3.87544 18.8303H6.50121ZM20.3358 25.1051L20.2681 8.78002C20.2681 8.56831 20.1476 7.81851 19.1361 7.81851H7.42744C7.58041 8.11043 7.66583 8.433 7.67737 8.76238V25.1051H20.3358ZM14.9695 10.95H9.82386C9.70688 10.95 9.5947 10.9965 9.51198 11.0792C9.42927 11.1619 9.3828 11.2741 9.3828 11.3911C9.3828 11.5081 9.42927 11.6203 9.51198 11.703C9.5947 11.7857 9.70688 11.8321 9.82386 11.8321H14.9695C15.0865 11.8321 15.1987 11.7857 15.2814 11.703C15.3641 11.6203 15.4106 11.5081 15.4106 11.3911C15.4106 11.2741 15.3641 11.1619 15.2814 11.0792C15.1987 10.9965 15.0865 10.95 14.9695 10.95ZM14.9695 14.6226H9.82386C9.70688 14.6226 9.5947 14.6691 9.51198 14.7518C9.42927 14.8345 9.3828 14.9467 9.3828 15.0636C9.3828 15.1806 9.42927 15.2928 9.51198 15.3755C9.5947 15.4582 9.70688 15.5047 9.82386 15.5047H14.9695C15.0865 15.5047 15.1987 15.4582 15.2814 15.3755C15.3641 15.2928 15.4106 15.1806 15.4106 15.0636C15.4106 14.9467 15.3641 14.8345 15.2814 14.7518C15.1987 14.6691 15.0865 14.6226 14.9695 14.6226ZM14.9695 18.2922H9.82386C9.70688 18.2922 9.5947 18.3387 9.51198 18.4214C9.42927 18.5041 9.3828 18.6163 9.3828 18.7333C9.3828 18.8502 9.42927 18.9624 9.51198 19.0451C9.5947 19.1278 9.70688 19.1743 9.82386 19.1743H14.9695C15.0865 19.1743 15.1987 19.1278 15.2814 19.0451C15.3641 18.9624 15.4106 18.8502 15.4106 18.7333C15.4106 18.6163 15.3641 18.5041 15.2814 18.4214C15.1987 18.3387 15.0865 18.2922 14.9695 18.2922ZM14.9695 21.9648H9.82386C9.70688 21.9648 9.5947 22.0112 9.51198 22.0939C9.42927 22.1766 9.3828 22.2888 9.3828 22.4058C9.3828 22.5228 9.42927 22.635 9.51198 22.7177C9.5947 22.8004 9.70688 22.8469 9.82386 22.8469H14.9695C15.0865 22.8469 15.1987 22.8004 15.2814 22.7177C15.3641 22.635 15.4106 22.5228 15.4106 22.4058C15.4106 22.2888 15.3641 22.1766 15.2814 22.0939C15.1987 22.0112 15.0865 21.9648 14.9695 21.9648ZM18.2746 10.95H16.7308C16.6139 10.95 16.5017 10.9965 16.419 11.0792C16.3363 11.1619 16.2898 11.2741 16.2898 11.3911C16.2898 11.5081 16.3363 11.6203 16.419 11.703C16.5017 11.7857 16.6139 11.8321 16.7308 11.8321H18.2746C18.3915 11.8321 18.5037 11.7857 18.5864 11.703C18.6691 11.6203 18.7156 11.5081 18.7156 11.3911C18.7156 11.2741 18.6691 11.1619 18.5864 11.0792C18.5037 10.9965 18.3915 10.95 18.2746 10.95ZM18.2746 14.6226H16.7308C16.6139 14.6226 16.5017 14.6691 16.419 14.7518C16.3363 14.8345 16.2898 14.9467 16.2898 15.0636C16.2898 15.1806 16.3363 15.2928 16.419 15.3755C16.5017 15.4582 16.6139 15.5047 16.7308 15.5047H18.2746C18.3915 15.5047 18.5037 15.4582 18.5864 15.3755C18.6691 15.2928 18.7156 15.1806 18.7156 15.0636C18.7156 14.9467 18.6691 14.8345 18.5864 14.7518C18.5037 14.6691 18.3915 14.6226 18.2746 14.6226ZM18.2746 18.2922H16.7308C16.6139 18.2922 16.5017 18.3387 16.419 18.4214C16.3363 18.5041 16.2898 18.6163 16.2898 18.7333C16.2898 18.8502 16.3363 18.9624 16.419 19.0451C16.5017 19.1278 16.6139 19.1743 16.7308 19.1743H18.2746C18.3915 19.1743 18.5037 19.1278 18.5864 19.0451C18.6691 18.9624 18.7156 18.8502 18.7156 18.7333C18.7156 18.6163 18.6691 18.5041 18.5864 18.4214C18.5037 18.3387 18.3915 18.2922 18.2746 18.2922ZM18.2746 21.9648H16.7308C16.6139 21.9648 16.5017 22.0112 16.419 22.0939C16.3363 22.1766 16.2898 22.2888 16.2898 22.4058C16.2898 22.5228 16.3363 22.635 16.419 22.7177C16.5017 22.8004 16.6139 22.8469 16.7308 22.8469H18.2746C18.3915 22.8469 18.5037 22.8004 18.5864 22.7177C18.6691 22.635 18.7156 22.5228 18.7156 22.4058C18.7156 22.2888 18.6691 22.1766 18.5864 22.0939C18.5037 22.0112 18.3915 21.9648 18.2746 21.9648Z" fill="white"/>
</svg>
