<svg width="25" height="25" viewBox="0 0 25 25" fill="none" xmlns="http://www.w3.org/2000/svg">
<path d="M16 1.60107H16.8001V2.40118H16V1.60107Z" fill="white"/>
<path d="M11.875 3.64233L12.4408 3.07657L13.0065 3.64233L12.4408 4.2081L11.875 3.64233Z" fill="white"/>
<path d="M21.5829 14.5758L17.79 16.7661C17.5982 16.5772 17.3611 16.4406 17.1015 16.3692L11.652 14.909C11.3664 14.8328 11.0675 14.8205 10.7767 14.873L7.20098 15.5223V14.8022C7.20098 14.6961 7.15883 14.5944 7.0838 14.5194C7.00878 14.4443 6.90702 14.4022 6.80092 14.4022H2.80038C2.69428 14.4022 2.59252 14.4443 2.5175 14.5194C2.44247 14.5944 2.40033 14.6961 2.40033 14.8022V15.2023H0.400054C0.293953 15.2023 0.192198 15.2444 0.117173 15.3195C0.0421484 15.3945 0 15.4962 0 15.6023V22.8033C0 22.9094 0.0421484 23.0112 0.117173 23.0862C0.192198 23.1612 0.293953 23.2034 0.400054 23.2034H2.40033V23.6034C2.40033 23.7095 2.44247 23.8113 2.5175 23.8863C2.59252 23.9613 2.69428 24.0035 2.80038 24.0035H6.80092C6.90702 24.0035 7.00878 23.9613 7.0838 23.8863C7.15883 23.8113 7.20098 23.7095 7.20098 23.6034V22.4501L13.3914 23.1382C13.8493 23.1885 14.3105 23.0797 14.6976 22.8301L23.1831 17.3494C23.4276 17.2101 23.6305 17.0082 23.7711 16.7645C23.9117 16.5208 23.9849 16.2441 23.9833 15.9628C23.9834 15.6818 23.9095 15.4058 23.7691 15.1624C23.6288 14.919 23.4268 14.7169 23.1835 14.5764C22.9402 14.4359 22.6642 14.3618 22.3832 14.3618C22.1023 14.3618 21.8262 14.4357 21.5829 14.5762V14.5758ZM0.800108 22.4033V16.0024H2.40033V22.4033H0.800108ZM6.40087 23.2034H3.20043V15.2023H6.40087V23.2034ZM22.7659 16.6665L14.2631 22.158C14.0307 22.3074 13.7541 22.3726 13.4794 22.3429L7.20098 21.6452V16.3364L10.9215 15.6604C11.0958 15.6283 11.2751 15.6356 11.4464 15.6816L16.8959 17.1418C17.1009 17.1967 17.2756 17.3309 17.3817 17.5147C17.4878 17.6985 17.5165 17.9169 17.4616 18.1219C17.4066 18.3269 17.2725 18.5016 17.0887 18.6077C16.9048 18.7138 16.6864 18.7425 16.4814 18.6876L12.5053 17.6226C12.4541 17.6074 12.4003 17.6026 12.3472 17.6085C12.2941 17.6143 12.2427 17.6308 12.196 17.6569C12.1494 17.683 12.1084 17.7181 12.0756 17.7603C12.0428 17.8025 12.0187 17.8508 12.0049 17.9024C11.991 17.954 11.9876 18.0079 11.995 18.0609C12.0023 18.1138 12.0201 18.1647 12.0475 18.2107C12.0748 18.2566 12.1111 18.2966 12.1541 18.3283C12.1971 18.3599 12.2461 18.3827 12.2981 18.3951L16.273 19.4605C16.476 19.5149 16.6878 19.5288 16.8962 19.5014C17.1046 19.474 17.3056 19.4058 17.4876 19.3007C17.6696 19.1956 17.8292 19.0557 17.9571 18.8889C18.0851 18.7221 18.1789 18.5318 18.2333 18.3287C18.3101 18.0385 18.303 17.7325 18.2129 17.4462L21.9814 15.2699C22.0731 15.2184 22.174 15.1854 22.2785 15.1729C22.3829 15.1603 22.4888 15.1685 22.5901 15.1969C22.6914 15.2253 22.7861 15.2734 22.8688 15.3384C22.9515 15.4034 23.0206 15.484 23.0721 15.5757C23.1237 15.6674 23.1566 15.7684 23.1692 15.8728C23.1817 15.9773 23.1735 16.0832 23.1451 16.1845C23.1167 16.2857 23.0686 16.3804 23.0036 16.4631C22.9386 16.5459 22.8576 16.615 22.7659 16.6665Z" fill="white"/>
<path d="M23.6028 5.60076H21.6341C21.5981 5.50675 21.5593 5.41233 21.5165 5.31672L22.9095 3.92333C22.9845 3.84831 23.0266 3.74657 23.0266 3.64049C23.0266 3.53441 22.9845 3.43268 22.9095 3.35766L20.6452 1.09335C20.5702 1.01835 20.4684 0.976218 20.3623 0.976218C20.2563 0.976218 20.1545 1.01835 20.0795 1.09335L18.6865 2.48634C18.5909 2.44353 18.4961 2.40633 18.4021 2.36872V0.400054C18.4021 0.293953 18.3599 0.192198 18.2849 0.117173C18.2099 0.0421484 18.1081 0 18.002 0H14.8016C14.6955 0 14.5937 0.0421484 14.5187 0.117173C14.4437 0.192198 14.4015 0.293953 14.4015 0.400054V2.36872C14.3075 2.40473 14.2127 2.44353 14.1171 2.48634L12.7241 1.09335C12.6491 1.01835 12.5474 0.976218 12.4413 0.976218C12.3352 0.976218 12.2335 1.01835 12.1584 1.09335L9.89413 3.35766C9.81913 3.43268 9.777 3.53441 9.777 3.64049C9.777 3.74657 9.81913 3.84831 9.89413 3.92333L11.2871 5.31632C11.2443 5.41193 11.2071 5.50675 11.1695 5.60076H9.20084C9.09473 5.60076 8.99298 5.64291 8.91795 5.71793C8.84293 5.79296 8.80078 5.89471 8.80078 6.00081V9.20125C8.80078 9.30735 8.84293 9.4091 8.91795 9.48413C8.99298 9.55915 9.09473 9.6013 9.20084 9.6013H11.1695C11.2055 9.69531 11.2443 9.79013 11.2871 9.88574L9.89413 11.2787C9.81913 11.3538 9.777 11.4555 9.777 11.5616C9.777 11.6676 9.81913 11.7694 9.89413 11.8444L12.1584 14.1087C12.2335 14.1837 12.3352 14.2258 12.4413 14.2258C12.5474 14.2258 12.6491 14.1837 12.7241 14.1087L14.1171 12.7157C14.2127 12.7585 14.3075 12.7957 14.4015 12.8333V14.802C14.4015 14.9081 14.4437 15.0099 14.5187 15.0849C14.5937 15.1599 14.6955 15.2021 14.8016 15.2021H18.002C18.1081 15.2021 18.2099 15.1599 18.2849 15.0849C18.3599 15.0099 18.4021 14.9081 18.4021 14.802V12.8333C18.4961 12.7973 18.5909 12.7585 18.6865 12.7157L20.0795 14.1087C20.1559 14.181 20.2572 14.2213 20.3623 14.2213C20.4675 14.2213 20.5688 14.181 20.6452 14.1087L22.9095 11.8444C22.9845 11.7694 23.0266 11.6676 23.0266 11.5616C23.0266 11.4555 22.9845 11.3538 22.9095 11.2787L21.5165 9.88534C21.5593 9.78973 21.5965 9.69531 21.6341 9.6013H23.6028C23.7089 9.6013 23.8106 9.55915 23.8857 9.48413C23.9607 9.4091 24.0028 9.30735 24.0028 9.20125V6.00081C24.0028 5.89471 23.9607 5.79296 23.8857 5.71793C23.8106 5.64291 23.7089 5.60076 23.6028 5.60076ZM23.2027 8.80119H21.3505C21.2654 8.80127 21.1826 8.82847 21.114 8.87882C21.0455 8.92918 20.9948 9.00008 20.9692 9.08123C20.8904 9.32531 20.7926 9.56286 20.6768 9.79173C20.6393 9.8668 20.6263 9.95178 20.6397 10.0346C20.6531 10.1175 20.6923 10.194 20.7516 10.2534L22.061 11.5616L20.3623 13.2602L19.053 11.9508C18.9936 11.8915 18.9171 11.8524 18.8342 11.8389C18.7514 11.8255 18.6664 11.8385 18.5913 11.876C18.3624 11.9918 18.1249 12.0896 17.8808 12.1685C17.7997 12.194 17.7288 12.2447 17.6784 12.3133C17.628 12.3818 17.6009 12.4646 17.6008 12.5497V14.402H15.2016V12.5497C15.2016 12.4646 15.1744 12.3818 15.124 12.3133C15.0737 12.2447 15.0028 12.194 14.9216 12.1685C14.6775 12.0896 14.44 11.9918 14.2111 11.876C14.136 11.8385 14.0511 11.8255 13.9682 11.8389C13.8854 11.8524 13.8088 11.8915 13.7495 11.9508L12.4413 13.2602L10.7426 11.5616L12.052 10.2522C12.1113 10.1928 12.1505 10.1163 12.1639 10.0334C12.1773 9.95058 12.1644 9.8656 12.1268 9.79053C12.011 9.56166 11.9132 9.32411 11.8344 9.08003C11.8089 8.99888 11.7582 8.92798 11.6896 8.87762C11.621 8.82727 11.5382 8.80007 11.4531 8.79999H9.60089V6.40087H11.4531C11.5382 6.40079 11.621 6.37359 11.6896 6.32324C11.7582 6.27288 11.8089 6.20198 11.8344 6.12083C11.9132 5.87675 12.011 5.6392 12.1268 5.41033C12.1644 5.33526 12.1773 5.25028 12.1639 5.16743C12.1505 5.08458 12.1113 5.00805 12.052 4.94867L10.7426 3.64049L12.4413 1.94186L13.7507 3.25124C13.81 3.31056 13.8866 3.34971 13.9694 3.36313C14.0523 3.37656 14.1372 3.36359 14.2123 3.32605C14.4408 3.21029 14.6779 3.11252 14.9216 3.03361C15.0028 3.00809 15.0737 2.95737 15.124 2.88881C15.1744 2.82025 15.2016 2.73743 15.2016 2.65236V0.800108H17.602V2.65236C17.6021 2.73743 17.6292 2.82025 17.6796 2.88881C17.73 2.95737 17.8009 3.00809 17.882 3.03361C18.1261 3.11246 18.3636 3.21024 18.5925 3.32605C18.6676 3.36359 18.7526 3.37656 18.8354 3.36313C18.9183 3.34971 18.9948 3.31056 19.0542 3.25124L20.3623 1.94186L22.061 3.64049L20.7516 4.94987C20.6923 5.00925 20.6531 5.08578 20.6397 5.16863C20.6263 5.25148 20.6393 5.33646 20.6768 5.41153C20.7926 5.6404 20.8904 5.87795 20.9692 6.12203C20.9948 6.20318 21.0455 6.27408 21.114 6.32444C21.1826 6.37479 21.2654 6.40199 21.3505 6.40207H23.2027V8.80119Z" fill="white"/>
<path d="M16.4036 4.39966C15.7706 4.39966 15.1518 4.58736 14.6255 4.93903C14.0992 5.2907 13.689 5.79054 13.4467 6.37534C13.2045 6.96014 13.1411 7.60364 13.2646 8.22447C13.3881 8.84529 13.6929 9.41555 14.1405 9.86314C14.5881 10.3107 15.1584 10.6155 15.7792 10.739C16.4 10.8625 17.0435 10.7991 17.6283 10.5569C18.2131 10.3147 18.713 9.90447 19.0646 9.37816C19.4163 8.85185 19.604 8.23308 19.604 7.60009C19.603 6.75158 19.2655 5.93809 18.6656 5.3381C18.0656 4.7381 17.2521 4.40061 16.4036 4.39966ZM16.4036 10.0004C15.9288 10.0004 15.4647 9.85964 15.07 9.59589C14.6753 9.33214 14.3676 8.95726 14.1859 8.51866C14.0043 8.08006 13.9567 7.59743 14.0494 7.13181C14.142 6.66619 14.3706 6.2385 14.7063 5.90281C15.042 5.56711 15.4697 5.33851 15.9353 5.24589C16.4009 5.15327 16.8835 5.20081 17.3221 5.38248C17.7607 5.56416 18.1356 5.87181 18.3994 6.26654C18.6631 6.66127 18.8039 7.12535 18.8039 7.60009C18.8033 8.2365 18.5502 8.84667 18.1001 9.29668C17.6501 9.74669 17.04 9.99978 16.4036 10.0004Z" fill="white"/>
<path d="M4.79782 22.8027C5.03519 22.8027 5.26723 22.7323 5.46459 22.6004C5.66196 22.4685 5.81579 22.2811 5.90663 22.0618C5.99746 21.8425 6.02123 21.6012 5.97492 21.3684C5.92861 21.1356 5.81431 20.9217 5.64646 20.7539C5.47862 20.586 5.26477 20.4717 5.03196 20.4254C4.79915 20.3791 4.55784 20.4029 4.33854 20.4937C4.11924 20.5845 3.9318 20.7384 3.79992 20.9357C3.66804 21.1331 3.59766 21.3651 3.59766 21.6025C3.59766 21.9208 3.7241 22.2261 3.94918 22.4511C4.17425 22.6762 4.47952 22.8027 4.79782 22.8027ZM4.79782 21.2025C4.87694 21.2025 4.95429 21.2259 5.02008 21.2699C5.08587 21.3138 5.13714 21.3763 5.16742 21.4494C5.1977 21.5225 5.20562 21.603 5.19019 21.6806C5.17475 21.7582 5.13665 21.8294 5.0807 21.8854C5.02475 21.9413 4.95347 21.9794 4.87587 21.9949C4.79826 22.0103 4.71783 22.0024 4.64472 21.9721C4.57162 21.9418 4.50914 21.8906 4.46519 21.8248C4.42123 21.759 4.39776 21.6816 4.39776 21.6025C4.39776 21.4964 4.43991 21.3947 4.51494 21.3196C4.58996 21.2446 4.69172 21.2025 4.79782 21.2025Z" fill="white"/>
<path d="M10.4023 7.20166H11.2025V8.00177H10.4023V7.20166Z" fill="white"/>
<path d="M11.875 11.5618L12.4408 10.996L13.0065 11.5618L12.4408 12.1275L11.875 11.5618Z" fill="white"/>
<path d="M16 12.8003H16.8001V13.6004H16V12.8003Z" fill="white"/>
<path d="M19.793 11.5635L20.3587 10.9977L20.9245 11.5635L20.3587 12.1292L19.793 11.5635Z" fill="white"/>
<path d="M21.6016 7.20166H22.4017V8.00177H21.6016V7.20166Z" fill="white"/>
<path d="M19.793 3.64233L20.3587 3.07657L20.9245 3.64233L20.3587 4.2081L19.793 3.64233Z" fill="white"/>
</svg>
