<svg width="26" height="25" viewBox="0 0 26 25" fill="none" xmlns="http://www.w3.org/2000/svg">
<path d="M24.0194 0.232422H1.81407C0.871993 0.232422 0.105469 0.998996 0.105469 1.94102V16.033C0.105469 16.2687 0.296787 16.46 0.532494 16.46H25.3009C25.5366 16.46 25.7279 16.2687 25.7279 16.033V1.94102C25.728 0.998996 24.9615 0.232422 24.0194 0.232422ZM24.8739 15.6059H0.95957V1.94102C0.95957 1.46956 1.34306 1.08652 1.81407 1.08652H24.0194C24.4904 1.08652 24.8739 1.46956 24.8739 1.94102V15.6059Z" fill="white" />
<path d="M25.301 15.605H0.532494C0.296787 15.605 0.105469 15.7963 0.105469 16.032V18.1668C0.105469 19.1089 0.871993 19.8754 1.81407 19.8754H24.0194C24.9615 19.8754 25.728 19.1089 25.728 18.1668V16.032C25.728 15.7963 25.5367 15.605 25.301 15.605ZM24.8739 18.1668C24.8739 18.6383 24.4904 19.0213 24.0194 19.0213H1.81407C1.34306 19.0213 0.95957 18.6383 0.95957 18.1668V16.4591H24.8739L24.8739 18.1668Z" fill="white" />
<path d="M14.1885 17.3115H11.6262C11.3905 17.3115 11.1992 17.5028 11.1992 17.7385C11.1992 17.9743 11.3905 18.1656 11.6262 18.1656H14.1885C14.4242 18.1656 14.6155 17.9743 14.6155 17.7385C14.6155 17.5028 14.4242 17.3115 14.1885 17.3115Z" fill="white" />
<path d="M23.5916 1.93848H2.23953C2.00382 1.93848 1.8125 2.12979 1.8125 2.3655V16.0309C1.8125 16.2666 2.00382 16.4579 2.23953 16.4579H23.5916C23.8274 16.4579 24.0187 16.2666 24.0187 16.0309V2.3655C24.0187 2.12979 23.8274 1.93848 23.5916 1.93848ZM23.1646 15.6038H2.66655V2.79253H23.1646V15.6038Z" fill="white" />
<path d="M18.4662 22.4346H7.36316C6.65684 22.4346 6.08203 23.0094 6.08203 23.7157C6.08203 24.422 6.65684 24.9968 7.36316 24.9968H18.4663C19.1726 24.9968 19.7474 24.422 19.7474 23.7157C19.7474 23.0094 19.1725 22.4346 18.4662 22.4346ZM18.4662 24.1427H7.36316C7.12745 24.1427 6.93613 23.951 6.93613 23.7157C6.93613 23.4804 7.12745 23.2887 7.36316 23.2887H18.4663C18.702 23.2887 18.8933 23.4804 18.8933 23.7157C18.8933 23.951 18.702 24.1427 18.4662 24.1427Z" fill="white" />
<path d="M17.6188 22.4339C16.2019 22.4339 15.4836 21.4282 15.4836 19.4446C15.4836 19.2089 15.2923 19.0176 15.0566 19.0176H10.7862C10.5504 19.0176 10.3591 19.2089 10.3591 19.4446C10.3591 21.4282 9.64085 22.4339 8.2239 22.4339C7.98819 22.4339 7.79688 22.6252 7.79688 22.8609C7.79688 23.0966 7.98819 23.2879 8.2239 23.2879H17.6188C17.8545 23.2879 18.0458 23.0966 18.0458 22.8609C18.0458 22.6252 17.8545 22.4339 17.6188 22.4339ZM10.304 22.4339C10.8297 21.8514 11.1393 20.9841 11.2016 19.8716H14.6414C14.7033 20.9841 15.013 21.8514 15.5391 22.4339H10.304Z" fill="white" />
<path d="M20.5073 12.8109L19.4764 11.78L20.0499 11.2065C20.1563 11.1002 20.1989 10.9456 20.1622 10.7999C20.1255 10.6543 20.0149 10.539 19.8709 10.4955L15.6005 9.21434C15.4498 9.16905 15.2871 9.21049 15.1761 9.32154C15.0646 9.43259 15.0236 9.59568 15.0689 9.74601L16.35 14.0164C16.3931 14.1607 16.5088 14.2713 16.6545 14.3081C16.7997 14.344 16.9547 14.3021 17.061 14.1958L17.6649 13.5915L18.6957 14.6228C18.7756 14.7031 18.8845 14.7479 18.9976 14.7479C19.1108 14.7479 19.2197 14.7031 19.2995 14.6228L20.5072 13.4147C20.6742 13.2477 20.6742 12.9779 20.5073 12.8109ZM18.9976 13.7171L18.059 12.778C17.9501 12.6691 17.8075 12.6148 17.6649 12.6148C17.5218 12.6148 17.3792 12.6695 17.2707 12.7775L16.9624 13.0858L16.1147 10.2601L18.9404 11.1078L18.6099 11.4383C18.5189 11.5297 18.469 11.651 18.469 11.78C18.469 11.9094 18.5194 12.0315 18.6107 12.1221L19.6015 13.1128L18.9976 13.7171Z" fill="white" />
<path d="M18.0365 3.6499H6.07937C5.84366 3.6499 5.65234 3.84122 5.65234 4.07693V6.21215C5.65234 6.44786 5.84366 6.63918 6.07937 6.63918H18.0365C18.2722 6.63918 18.4636 6.44786 18.4636 6.21215V4.07693C18.4636 3.84122 18.2722 3.6499 18.0365 3.6499ZM17.6095 5.78513H6.50639V4.504H17.6095V5.78513Z" fill="white" />
<path d="M11.2106 8.34326H7.79421C7.55851 8.34326 7.36719 8.53458 7.36719 8.77029V10.4784C7.36719 10.7141 7.55851 10.9055 7.79421 10.9055H11.2106C11.4463 10.9055 11.6376 10.7141 11.6376 10.4784V8.77029C11.6376 8.53458 11.4463 8.34326 11.2106 8.34326ZM10.7835 10.0514H8.22124V9.19731H10.7835V10.0514Z" fill="white" />
<path d="M18.0365 3.6499H6.07937C5.84366 3.6499 5.65234 3.84122 5.65234 4.07693V12.1907C5.65234 12.4264 5.84366 12.6177 6.07937 12.6177H16.2456C16.3809 12.6177 16.5077 12.5541 16.5881 12.4456C16.6688 12.3372 16.6936 12.1971 16.6547 12.0677L16.114 10.2652L17.914 10.8054C18.0434 10.8443 18.1835 10.8195 18.2915 10.7388C18.4 10.6585 18.4636 10.5313 18.4636 10.3963V4.07693C18.4636 3.84122 18.2722 3.6499 18.0365 3.6499ZM17.6095 9.82238L15.5994 9.2194C15.4487 9.17411 15.286 9.21554 15.1749 9.32659C15.0635 9.43804 15.0225 9.60073 15.0677 9.75152L15.6716 11.7637H6.50639V4.504H17.6095V9.82238Z" fill="white" />
</svg>