<svg width="24" height="28" viewBox="0 0 24 28" fill="none" xmlns="http://www.w3.org/2000/svg">
<path d="M18.2146 12.2466V7.29832C18.2146 7.15669 18.1512 7.02582 18.0614 6.92229L12.6828 1.0967C12.5824 0.98778 12.4396 0.927734 12.2971 0.927734H3.76937C2.19504 0.927734 0.9375 2.25192 0.9375 3.87594V20.5081C0.9375 22.1321 2.19504 23.4345 3.76937 23.4345H10.5007C11.7739 25.6143 14.0882 27.0748 16.7246 27.0748C20.7295 27.0748 24 23.7178 24 19.5817C24.0054 15.9686 21.4903 12.9496 18.2146 12.2466ZM12.8255 2.84061L16.4341 6.75871H14.0935C13.396 6.75871 12.8255 6.16484 12.8255 5.44549V2.84061ZM3.76937 22.3446C2.78145 22.3446 1.99428 21.5271 1.99428 20.5081V3.87594C1.99428 2.85138 2.78145 2.01773 3.76937 2.01773H11.7687V5.44549C11.7687 6.76968 12.8096 7.8487 14.0935 7.8487H17.1578V12.1047C16.9994 12.0994 16.8725 12.083 16.7352 12.083C14.8913 12.083 13.1953 12.8133 11.9167 13.9578H5.20658C4.91589 13.9578 4.67819 14.2029 4.67819 14.5026C4.67819 14.8024 4.91589 15.0476 5.20658 15.0476H10.934C10.5587 15.5926 10.247 16.1375 10.0041 16.737H5.20658C4.91589 16.737 4.67819 16.9822 4.67819 17.282C4.67819 17.5816 4.91589 17.827 5.20658 17.827H9.66057C9.52847 18.372 9.45981 18.9768 9.45981 19.5817C9.45981 20.5625 9.64471 21.5326 9.97756 22.3501H3.76937V22.3446ZM16.73 25.9904C13.3063 25.9904 10.5218 23.1184 10.5218 19.5871C10.5218 16.0558 13.3009 13.1838 16.73 13.1838C20.1589 13.1838 22.938 16.0558 22.938 19.5871C22.938 23.1184 20.1537 25.9904 16.73 25.9904Z" fill="white"/>
<path d="M5.21198 12.3185H10.5641C10.8548 12.3185 11.0925 12.0731 11.0925 11.7735C11.0925 11.4737 10.8548 11.2285 10.5641 11.2285H5.21198C4.92129 11.2285 4.68359 11.4737 4.68359 11.7735C4.68359 12.0731 4.92129 12.3185 5.21198 12.3185Z" fill="white"/>
<path d="M17.103 15.5669C17.0027 15.458 16.8653 15.3926 16.7174 15.3926C16.5694 15.3926 16.4321 15.458 16.3317 15.5669L13.2355 18.9947C13.0347 19.2127 13.0506 19.5614 13.262 19.7631C13.4734 19.9702 13.8167 19.9538 14.0174 19.736L16.2049 17.3218V23.2727C16.2049 23.5725 16.4425 23.8177 16.7332 23.8177C17.0237 23.8177 17.2616 23.5725 17.2616 23.2727V17.3218L19.433 19.736C19.5388 19.8503 19.6761 19.9103 19.8189 19.9103C19.9455 19.9103 20.0724 19.8613 20.178 19.7631C20.3894 19.5561 20.4053 19.2127 20.2045 18.9947L17.103 15.5669Z" fill="white"/>
</svg>
