<svg width="22" height="22" viewBox="0 0 22 22" fill="none" xmlns="http://www.w3.org/2000/svg">
<path d="M2.75 5.5H4.58333H19.25" stroke="#75787B" stroke-width="1.83333" stroke-linecap="round" stroke-linejoin="round"/>
<path d="M17.4168 5.50065V18.334C17.4168 18.8202 17.2237 19.2865 16.8799 19.6303C16.536 19.9742 16.0697 20.1673 15.5835 20.1673H6.41683C5.9306 20.1673 5.46428 19.9742 5.12047 19.6303C4.77665 19.2865 4.5835 18.8202 4.5835 18.334V5.50065M7.3335 5.50065V3.66732C7.3335 3.18109 7.52665 2.71477 7.87047 2.37096C8.21428 2.02714 8.6806 1.83398 9.16683 1.83398H12.8335C13.3197 1.83398 13.786 2.02714 14.1299 2.37096C14.4737 2.71477 14.6668 3.18109 14.6668 3.66732V5.50065" stroke="#75787B" stroke-width="1.83333" stroke-linecap="round" stroke-linejoin="round"/>
<path d="M9.1665 10.084V15.584" stroke="#75787B" stroke-width="1.83333" stroke-linecap="round" stroke-linejoin="round"/>
<path d="M12.8335 10.084V15.584" stroke="#75787B" stroke-width="1.83333" stroke-linecap="round" stroke-linejoin="round"/>
</svg>
