<svg width="28" height="28" viewBox="0 0 28 28" fill="none" xmlns="http://www.w3.org/2000/svg">
<path d="M12.5715 9.44572C12.5715 10.3277 13.2883 11.0461 14.1719 11.0461C15.0555 11.0461 15.7722 10.3277 15.7722 9.44572C15.7722 8.56378 15.0555 7.84539 14.1719 7.84539C13.2883 7.84539 12.5715 8.56378 12.5715 9.44572ZM11.8964 19.5732C11.8964 20.084 12.3108 20.4984 12.8215 20.4984H15.5222C16.033 20.4984 16.4474 20.084 16.4474 19.5732C16.4474 19.0624 16.033 18.648 15.5222 18.648H15.097V12.8215C15.097 12.3108 14.6826 11.8964 14.1719 11.8964H12.8215C12.3108 11.8964 11.8964 12.3108 11.8964 12.8215C11.8964 13.3323 12.3108 13.7467 12.8215 13.7467H13.2467V18.648H12.8215C12.3108 18.648 11.8964 19.0624 11.8964 19.5732ZM2.94408 14.1719C2.94408 7.98095 7.98095 2.94408 14.1719 2.94408C20.3628 2.94408 25.3997 7.98095 25.3997 14.1719C25.3997 20.3628 20.3628 25.3997 14.1719 25.3997C7.98095 25.3997 2.94408 20.3628 2.94408 14.1719ZM1.09375 14.1719C1.09375 21.383 6.96078 27.25 14.1719 27.25C21.383 27.25 27.25 21.383 27.25 14.1719C27.25 6.96078 21.383 1.09375 14.1719 1.09375C6.96078 1.09375 1.09375 6.96078 1.09375 14.1719Z" fill="white" stroke="white" stroke-width="0.5"/>
</svg>
