<svg width="20" height="20" viewBox="0 0 20 20" fill="none" xmlns="http://www.w3.org/2000/svg">
<path d="M18.3334 18.4834H18.4834V18.3334V1.66668V1.51668H18.3334H1.66668H1.51668V1.66668V18.3334V18.4834H1.66668H18.3334ZM0.833322 0.15H19.1667C19.5441 0.15 19.85 0.455925 19.85 0.833309V19.1667C19.85 19.5441 19.5441 19.85 19.1667 19.85H0.833322C0.455969 19.85 0.15 19.5441 0.15 19.1667V0.833322C0.15 0.455934 0.455964 0.15 0.833322 0.15Z" fill="white" stroke="#126FB5" stroke-width="0.3"/>
<path d="M15.9371 10.6334L15.9371 10.6334L15.9383 10.6371L17.3204 14.7833C17.4397 15.1413 17.2462 15.5283 16.8882 15.6476C16.5302 15.767 16.1432 15.5735 16.0238 15.2155L14.8249 11.6186L14.7907 11.516H14.6826H11.995H11.8869L11.8527 11.6186L10.6537 15.2155C10.5344 15.5735 10.1474 15.767 9.78936 15.6476L9.74192 15.7899L9.78936 15.6476C9.43132 15.5283 9.23784 15.1413 9.35715 14.7833C9.35716 14.7833 9.35716 14.7833 9.35716 14.7833L10.7403 10.6338L10.7407 10.6327L10.7411 10.6313L12.6905 4.78325C12.8982 4.16027 13.7794 4.16027 13.9871 4.78325L15.9328 10.6205L15.933 10.6211L15.9361 10.6303L15.9369 10.6327C15.9371 10.6332 15.9372 10.6334 15.9371 10.6334ZM12.4082 9.9519L12.3424 10.1493H12.5505H14.127H14.3351L14.2693 9.9519L13.481 7.58713L13.3387 7.16023L13.1964 7.58713L12.4082 9.9519Z" fill="white" stroke="#126FB5" stroke-width="0.3"/>
<path d="M8.16315 14.8344L8.16315 14.8344C8.25472 15.2005 8.0321 15.5715 7.66595 15.663C7.29985 15.7546 6.92886 15.5319 6.83731 15.1658L6.57844 14.1304L6.55004 14.0168H6.43292H4.53608H4.43213L4.39563 14.1141L3.9734 15.24C3.84089 15.5934 3.44701 15.7724 3.09363 15.6399C2.74025 15.5074 2.56121 15.1135 2.69375 14.7602L2.69375 14.7601L5.19376 8.09345L5.19376 8.09345C5.42918 7.46561 6.33388 7.51714 6.4965 8.16767L8.16315 14.8344ZM5.02059 12.4474L4.94459 12.6501H5.16104H6.01624H6.20836L6.16176 12.4637L5.81969 11.0954L5.70286 10.6281L5.53372 11.0791L5.02059 12.4474Z" fill="white" stroke="#126FB5" stroke-width="0.3"/>
<path d="M6.26124 2.80487L6.26092 2.8046C6.25771 2.80195 6.25619 2.80087 6.25309 2.79868C6.25013 2.79657 6.24573 2.79345 6.237 2.78693L6.23696 2.7869C6.23142 2.78275 6.22716 2.77952 6.22365 2.77686C6.21679 2.77165 6.21275 2.76859 6.20745 2.76504L6.20744 2.76503C6.20244 2.76169 6.19827 2.75924 6.19099 2.75498C6.1875 2.75293 6.1833 2.75046 6.17794 2.74728L6.17752 2.74702C6.1711 2.74318 6.16665 2.74045 6.16319 2.73833L6.26124 2.80487ZM6.26124 2.80487C6.27899 2.81942 6.29572 2.83448 6.31137 2.85013L7.97806 4.51681C8.24491 4.78366 8.24491 5.21635 7.97806 5.4832C7.7112 5.75005 7.27852 5.75005 7.01167 5.4832L6.76761 5.23914L6.51154 4.98307V5.3452V5.83337C6.51154 6.21076 6.20561 6.51669 5.82822 6.51669C5.45083 6.51669 5.1449 6.21076 5.1449 5.83337V5.3452V4.98307L4.88883 5.23914L4.64477 5.48319L4.75083 5.58926M6.26124 2.80487L4.64477 5.4832M5.69459 2.66325L5.69435 2.6633C5.68862 2.66443 5.68439 2.66553 5.67694 2.66748C5.67277 2.66857 5.66758 2.66993 5.66055 2.6717L5.66047 2.67172C5.65288 2.67363 5.64772 2.67486 5.64378 2.67581C5.63786 2.67723 5.63467 2.67799 5.63003 2.67941L5.62982 2.67947C5.62408 2.68122 5.61978 2.68279 5.61249 2.68546C5.60845 2.68694 5.6035 2.68875 5.59688 2.69111L5.54646 2.54984M5.69459 2.66325L5.49385 2.73785C5.49886 2.73478 5.50163 2.73308 5.50604 2.73073L5.50614 2.73067C5.51152 2.7278 5.51607 2.72569 5.52387 2.72207C5.52743 2.72042 5.53167 2.71845 5.53697 2.71596L5.53699 2.71595C5.54365 2.71281 5.54839 2.71053 5.55214 2.70871C5.55826 2.70576 5.56177 2.70407 5.56675 2.702L5.50931 2.56344M5.69459 2.66325C5.70069 2.66204 5.7055 2.66138 5.71381 2.66025M5.69459 2.66325L5.71381 2.66025M5.54646 2.54984L5.59708 2.69104C5.59079 2.6933 5.58609 2.69494 5.58229 2.69627C5.57549 2.69865 5.57155 2.70003 5.56647 2.70212L5.50931 2.56344M5.54646 2.54984C5.54313 2.55104 5.53979 2.55221 5.53645 2.55338C5.52735 2.55657 5.51826 2.55975 5.50931 2.56344M5.54646 2.54984C5.55003 2.54857 5.55358 2.54727 5.55713 2.54597C5.56676 2.54245 5.57639 2.53893 5.58626 2.53594C5.59515 2.53323 5.60413 2.53106 5.61313 2.52888C5.61671 2.52802 5.6203 2.52715 5.62388 2.52625C5.62755 2.52532 5.63121 2.52437 5.63487 2.52342C5.64494 2.52079 5.65501 2.51817 5.66533 2.51613C5.67609 2.51399 5.68692 2.51252 5.69776 2.51104L5.36548 2.64027M5.50931 2.56344C5.50043 2.56712 5.49181 2.57127 5.48319 2.57541C5.47983 2.57703 5.47647 2.57865 5.4731 2.58023C5.47006 2.58166 5.46702 2.58307 5.46398 2.58449C5.45438 2.58894 5.44478 2.59339 5.4354 2.5984C5.42729 2.60273 5.41946 2.6075 5.41164 2.61227C5.40832 2.6143 5.405 2.61633 5.40165 2.61832C5.39846 2.62022 5.39527 2.6221 5.39207 2.62398C5.38313 2.62922 5.3742 2.63446 5.36548 2.64027M5.36548 2.64027C5.35599 2.64663 5.34693 2.65352 5.33786 2.6604C5.33507 2.66253 5.33227 2.66465 5.32947 2.66676C5.32611 2.66927 5.32273 2.67172 5.31935 2.67417C5.31281 2.6789 5.30628 2.68363 5.29997 2.68883C5.27872 2.70625 5.25829 2.72461 5.23888 2.74402L3.5722 4.41071C3.24677 4.73614 3.24677 5.26379 3.5722 5.58922C3.89763 5.91466 4.42536 5.91469 4.75083 5.58926M5.36548 2.64027L6.35634 2.68887C6.37759 2.70629 6.39802 2.72465 6.41744 2.74406L8.08412 4.41075C8.40955 4.73618 8.40955 5.26383 8.08412 5.58926C7.75869 5.91469 7.23103 5.91469 6.9056 5.58926L6.81154 5.4952V5.3452H6.66154L6.55547 5.45127L6.66154 5.55733V5.83337C6.66154 6.2936 6.28845 6.66669 5.82822 6.66669C5.36798 6.66669 4.9949 6.2936 4.9949 5.83337V5.55733L5.10096 5.45127L4.9949 5.3452H4.8449V5.4952L4.75083 5.58926M5.36548 2.64027L5.44896 2.7649C5.44342 2.76861 5.43896 2.772 5.43144 2.77771C5.42816 2.7802 5.42431 2.78312 5.41953 2.78671L5.41947 2.78676C5.41026 2.79366 5.4059 2.79675 5.403 2.7988C5.40012 2.80084 5.39869 2.80185 5.3954 2.80456L5.39508 2.80483C5.37732 2.81938 5.36059 2.83444 5.34495 2.85009L3.67826 4.51677C3.41141 4.78362 3.41141 5.21631 3.67826 5.48316C3.94512 5.75001 4.37788 5.75005 4.64477 5.4832M5.36548 2.64027L5.44869 2.76508C5.45369 2.76175 5.45766 2.75942 5.46447 2.75543C5.46811 2.75329 5.47257 2.75068 5.47843 2.74718L4.64477 5.4832M4.75083 5.58926L4.64477 5.4832M5.71381 2.66025C5.71817 2.65966 5.7235 2.65893 5.73048 2.65793L5.71381 2.66025Z" fill="white" stroke="#126FB5" stroke-width="0.3"/>
</svg>
