<svg width="29" height="21" viewBox="0 0 29 21" fill="none" xmlns="http://www.w3.org/2000/svg">
<path d="M2.50978 13.9923H13.5278C13.7671 13.9923 13.961 13.7983 13.961 13.5591C13.961 13.3198 13.7671 13.1259 13.5278 13.1259H2.50978C2.27047 13.1259 2.07656 13.3198 2.07656 13.5591C2.07656 13.7983 2.27053 13.9923 2.50978 13.9923Z" fill="#FFF4F4" stroke="white" stroke-width="0.05"/>
<path d="M12.4126 17.7277L12.4126 17.7277C12.3533 17.5241 12.2831 17.2509 12.2033 16.9146L11.7134 18.2466C11.6489 18.4218 11.4831 18.5303 11.3067 18.5303C11.257 18.5303 11.2065 18.5217 11.1572 18.5036L11.1572 18.5036C10.9327 18.421 10.8176 18.172 10.9002 17.9474L10.9002 17.9474L11.9018 15.225L11.9018 15.225C11.9686 15.0434 12.1469 14.9276 12.3412 14.9426L12.3392 14.9675M12.4126 17.7277L15.2014 15.7436M12.4126 17.7277L12.4133 17.7301C12.4634 17.9022 12.5157 18.0818 12.6013 18.2181C12.6884 18.3568 12.8115 18.4531 13.0019 18.4531H13.0022C13.0514 18.4531 13.1004 18.4531 13.169 18.4228C13.2365 18.3931 13.3218 18.3346 13.4476 18.2214C13.6973 17.9967 14.1126 17.5503 14.8726 16.6636M12.4126 17.7277L14.8726 16.6636M12.3392 14.9675L12.3411 14.9426C12.5342 14.9572 12.6941 15.0983 12.7328 15.288L12.7328 15.288C12.8734 15.9777 13.0493 16.7561 13.1819 17.2605C13.5432 16.8719 14.08 16.2605 14.5462 15.7108C14.6311 15.6107 14.7571 15.5547 14.8879 15.5579L14.888 15.5579C15.0191 15.5613 15.1417 15.6241 15.2212 15.7284M12.3392 14.9675C12.5212 14.9813 12.6718 15.1142 12.7083 15.293M12.3392 14.9675C12.1562 14.9534 11.9883 15.0625 11.9252 15.2336L12.7083 15.293M15.2212 15.7284L15.2014 15.7436M15.2212 15.7284C15.2212 15.7284 15.2212 15.7284 15.2212 15.7284L15.2014 15.7436M15.2212 15.7284C15.441 16.016 15.7663 16.367 16.0929 16.6393C16.2563 16.7754 16.4193 16.8913 16.569 16.9698C16.7195 17.0487 16.8532 17.0881 16.9592 17.0759L16.9592 17.0759C17.0647 17.0638 17.1824 17.0054 17.3074 16.9215C17.432 16.8378 17.5608 16.7308 17.6886 16.6246L17.6905 16.623C17.9569 16.4017 18.2371 16.1689 18.5667 16.0671C18.7176 16.0205 18.9076 15.9941 19.1176 16.0388C19.3278 16.0835 19.5564 16.1991 19.7845 16.4338C20.0967 16.7549 20.4229 16.8144 20.6805 16.7887C20.9388 16.7629 21.1292 16.6511 21.167 16.6275M15.2014 15.7436C15.6428 16.3215 16.5079 17.153 16.962 17.1007C17.1854 17.0752 17.4494 16.8559 17.7046 16.6438C17.9724 16.4213 18.2493 16.1913 18.574 16.091C18.8697 15.9997 19.3165 15.9882 19.7666 16.4512C20.4028 17.1056 21.1027 16.6973 21.1805 16.6486M21.167 16.6275C21.167 16.6275 21.1669 16.6276 21.1668 16.6276L21.1805 16.6486M21.167 16.6275C21.1671 16.6275 21.1671 16.6274 21.1672 16.6274L21.1805 16.6486M21.167 16.6275C21.3676 16.4972 21.6346 16.5551 21.7648 16.7556C21.8953 16.9563 21.8368 17.2255 21.6363 17.3558C21.1781 17.6538 20.0709 17.9712 19.1634 17.0377C19.1036 16.9762 19.0542 16.9323 19.0048 16.9069C18.9567 16.8823 18.9077 16.8749 18.8469 16.889C18.7849 16.9033 18.7099 16.9401 18.6116 17.006C18.5135 17.0718 18.3938 17.1652 18.2424 17.291L18.2394 17.2935C17.9102 17.567 17.5301 17.8827 17.0577 17.9367L17.0576 17.9367C17.0145 17.9416 16.971 17.944 16.9276 17.944C16.5303 17.944 16.1251 17.7455 15.7641 17.4852C15.4125 17.2317 15.0997 16.9175 14.8726 16.6636M21.1805 16.6486C21.3694 16.5257 21.621 16.5802 21.7439 16.7692C21.8667 16.9583 21.8117 17.212 21.6226 17.3349C21.1702 17.6291 20.0774 17.942 19.1813 17.0203C18.9415 16.7736 18.8327 16.768 18.2264 17.2718L18.2261 17.2721C17.895 17.5471 17.5199 17.8587 17.0548 17.9119C17.0126 17.9167 16.9701 17.919 16.9276 17.919C16.1581 17.9191 15.348 17.1579 14.889 16.6445C14.8835 16.6509 14.8781 16.6573 14.8726 16.6636M12.7083 15.293L12.7085 15.293L12.7083 15.293ZM13.1894 17.2891C13.1827 17.2963 13.176 17.3035 13.1693 17.3106C13.1668 17.3012 13.1643 17.2917 13.1618 17.2821L13.1894 17.2891Z" fill="#FFF4F4" stroke="white" stroke-width="0.05"/>
<path d="M2.50978 12.1559H13.5278C13.7671 12.1559 13.961 11.9619 13.961 11.7227C13.961 11.4834 13.7671 11.2895 13.5278 11.2895H2.50978C2.27047 11.2895 2.07656 11.4834 2.07656 11.7227C2.07656 11.9619 2.27053 12.1559 2.50978 12.1559Z" fill="#FFF4F4" stroke="white" stroke-width="0.05"/>
<path d="M3.13048 10.3372H17.2304C17.8115 10.3372 18.2843 9.86441 18.2843 9.28324V8.09337C18.2843 7.5122 17.8115 7.03945 17.2304 7.03945H3.13048C2.54931 7.03945 2.07656 7.5122 2.07656 8.09337V9.28324C2.07651 9.86436 2.54931 10.3372 3.13048 10.3372ZM2.94294 8.09332C2.94294 7.98995 3.0271 7.90583 3.13043 7.90583H17.2303C17.3337 7.90583 17.4178 7.98994 17.4178 8.09332V9.28319C17.4178 9.38656 17.3337 9.47067 17.2303 9.47067H3.13048C3.02716 9.47067 2.94299 9.38656 2.94299 9.28319L2.94294 8.09332Z" fill="#FFF4F4" stroke="white" stroke-width="0.05"/>
<path d="M25.2493 17.474C25.01 17.474 24.8161 17.668 24.8161 17.9072V18.8744C24.8161 19.0992 24.6332 19.2821 24.4084 19.2821H12.2871C12.0478 19.2821 11.8539 19.4761 11.8539 19.7154C11.8539 19.9546 12.0478 20.1486 12.2871 20.1486H24.4084C25.111 20.1486 25.6825 19.577 25.6825 18.8744V17.9072C25.6825 17.668 25.4886 17.474 25.2493 17.474Z" fill="#FFF4F4" stroke="white" stroke-width="0.05"/>
<path d="M24.7325 1.39831L24.7567 1.40473L23.2095 7.22235L24.4171 7.54353L25.9644 1.72591C25.9893 1.63245 25.9729 1.53182 25.9167 1.44223C25.8553 1.34419 25.7558 1.27225 25.6359 1.24034L24.7325 1.39831ZM24.7325 1.39831L24.7567 1.40473C24.8007 1.23931 24.9646 1.1295 25.1542 1.1295M24.7325 1.39831L25.1542 1.1295M25.1542 1.1295C25.157 1.1295 25.1663 1.13071 25.1833 1.13388M25.1542 1.1295L25.1833 1.13388M25.1833 1.13388C25.1993 1.13686 25.22 1.14116 25.2438 1.14637M25.1833 1.13388L25.2438 1.14637M25.2438 1.14637C25.2914 1.15678 25.3508 1.17069 25.409 1.18463M25.2438 1.14637L25.409 1.18463M25.409 1.18463C25.4672 1.19857 25.5239 1.2125 25.5662 1.22296M25.409 1.18463L25.5662 1.22296M25.5662 1.22296L25.617 1.23559M25.5662 1.22296L25.617 1.23559M25.617 1.23559L25.6311 1.23913M25.617 1.23559L25.6311 1.23913M25.6311 1.23913L25.6348 1.24006M25.6311 1.23913L25.6348 1.24006M25.6348 1.24006L25.6358 1.2403L25.6348 1.24006ZM27.7345 3.29693L27.7345 3.29691C27.488 2.90317 27.1126 2.60865 26.6672 2.45462L26.8018 1.94859C26.8891 1.6201 26.8355 1.27683 26.6511 0.98238L26.63 0.995591L26.6511 0.982375C26.4724 0.697055 26.1908 0.491325 25.8585 0.402923L25.5059 0.309142L25.4995 0.333293L25.5059 0.309142C24.8094 0.123919 24.097 0.514214 23.9194 1.18195L22.7734 5.49084H1.4751C0.772871 5.4909 0.201562 6.06244 0.201562 6.76503V18.8749C0.201562 19.5775 0.772871 20.149 1.4751 20.149H10.439C10.6783 20.149 10.8722 19.9551 10.8722 19.7158C10.8722 19.4766 10.6783 19.2826 10.439 19.2826H1.4751C1.25065 19.2826 1.06799 19.0997 1.06799 18.8749V6.76503C1.06799 6.54025 1.25071 6.35733 1.4751 6.35733H22.543L22.2617 7.41513C22.2618 7.41479 22.2618 7.41457 22.2616 7.41516L22.2616 7.4154L22.2607 7.41802L22.26 7.42128L22.26 7.42134L22.26 7.42146L22.2599 7.42183L21.4231 10.568C21.4231 10.568 21.4231 10.568 21.4231 10.568C21.423 10.5683 21.4227 10.5691 21.4224 10.5701C21.4223 10.5707 21.4221 10.5714 21.4219 10.5721L21.4218 10.5728L21.4217 10.5732L21.0515 11.965C20.9 12.5348 21.1872 13.1225 21.707 13.3977L21.4196 14.4784L21.4413 14.4842L21.4196 14.4784C21.3581 14.7096 21.4957 14.9469 21.7269 15.0084C21.7642 15.0183 21.8016 15.0231 21.8385 15.0231C22.03 15.0231 22.2054 14.8951 22.2569 14.7011L22.5389 13.6411C22.5926 13.6475 22.6464 13.6509 22.7 13.6509C22.917 13.6509 23.1306 13.5984 23.3231 13.4953C23.6294 13.3313 23.8465 13.0601 23.9338 12.7316L24.3038 11.3405L24.3045 11.338L24.3048 11.3368L24.3049 11.3364L24.3051 11.3355L24.8185 9.40516V16.0572C24.8185 16.2964 25.0124 16.4904 25.2517 16.4904C25.4911 16.4904 25.685 16.2964 25.685 16.0572V6.76509C25.685 6.63146 25.6644 6.50119 25.6242 6.37604L26.4434 3.29591C26.6761 3.38988 26.8704 3.54958 26.9999 3.75636C27.151 3.99839 27.1955 4.27498 27.1262 4.53552L26.4536 7.06433L26.4778 7.07076L26.4536 7.06434C26.3922 7.29555 26.5297 7.53284 26.7609 7.59436C26.7982 7.60428 26.8356 7.60902 26.8726 7.60902C27.0641 7.60902 27.2394 7.48101 27.291 7.28706L27.9635 4.75825L27.9412 4.75231L27.9635 4.75825C28.0952 4.26307 28.0138 3.74418 27.7345 3.29693ZM22.5702 12.7671L22.5638 12.7909L22.5702 12.7671L22.2176 12.6733C21.9788 12.6098 21.8352 12.3898 21.8889 12.1876L22.1483 11.2123L23.356 11.5335L23.0966 12.5088C23.0717 12.6023 23.0075 12.6814 22.9143 12.7314C22.8124 12.786 22.6901 12.799 22.5702 12.7671ZM24.1945 8.3809L23.5787 10.6962L22.371 10.375L22.9868 8.05973L24.1945 8.3809Z" fill="#FFF4F4" stroke="white" stroke-width="0.05"/>
</svg>
