<svg width="18" height="18" viewBox="0 0 18 18" fill="none" xmlns="http://www.w3.org/2000/svg">
<path d="M10.8799 9.00057L16.6133 3.28057C16.8643 3.0295 17.0054 2.68897 17.0054 2.33391C17.0054 1.97884 16.8643 1.63831 16.6133 1.38724C16.3622 1.13617 16.0217 0.995117 15.6666 0.995117C15.3115 0.995117 14.971 1.13617 14.7199 1.38724L8.99992 7.12057L3.27992 1.38724C3.02885 1.13617 2.68832 0.995117 2.33325 0.995117C1.97818 0.995117 1.63766 1.13617 1.38659 1.38724C1.13551 1.63831 0.994463 1.97884 0.994463 2.33391C0.994463 2.68897 1.13551 3.0295 1.38659 3.28057L7.11992 9.00057L1.38659 14.7206C1.26161 14.8445 1.16242 14.992 1.09473 15.1545C1.02704 15.3169 0.992188 15.4912 0.992188 15.6672C0.992188 15.8433 1.02704 16.0175 1.09473 16.18C1.16242 16.3425 1.26161 16.49 1.38659 16.6139C1.51054 16.7389 1.658 16.8381 1.82048 16.9058C1.98296 16.9735 2.15724 17.0083 2.33325 17.0083C2.50927 17.0083 2.68354 16.9735 2.84602 16.9058C3.0085 16.8381 3.15597 16.7389 3.27992 16.6139L8.99992 10.8806L14.7199 16.6139C14.8439 16.7389 14.9913 16.8381 15.1538 16.9058C15.3163 16.9735 15.4906 17.0083 15.6666 17.0083C15.8426 17.0083 16.0169 16.9735 16.1794 16.9058C16.3418 16.8381 16.4893 16.7389 16.6133 16.6139C16.7382 16.49 16.8374 16.3425 16.9051 16.18C16.9728 16.0175 17.0077 15.8433 17.0077 15.6672C17.0077 15.4912 16.9728 15.3169 16.9051 15.1545C16.8374 14.992 16.7382 14.8445 16.6133 14.7206L10.8799 9.00057Z" fill="black"/>
</svg>
