<svg width="54" height="54" viewBox="0 0 54 54" fill="none" xmlns="http://www.w3.org/2000/svg">
<g clip-path="url(#clip0_3184_18134)">
<rect x="1" y="1" width="52" height="52" rx="26" fill="#51C9EB"/>
<g clip-path="url(#clip1_3184_18134)">
<path d="M14.8344 55.6961V39.5912H12.0918V32.3003H15.0303C12.8754 31.7494 12.1571 30.1616 12.1571 30.1292C12.0265 29.87 12.1571 29.5459 12.4509 29.4163C12.7121 29.2867 13.0386 29.4163 13.1692 29.708C13.1692 29.7404 14.5079 32.6567 19.8299 30.7773C20.7441 30.4533 21.7889 30.3884 22.8011 30.4533C21.4298 29.8052 20.1564 29.0923 19.4707 28.4766C18.23 27.3749 18.5239 25.3658 19.5034 24.0696C20.4829 22.8059 22.4093 21.8662 24.7274 23.3567C26.8824 24.7177 28.0578 27.1156 28.6781 29.0923C29.2332 25.8195 30.3433 22.3522 32.0738 21.0885C32.7268 20.6024 33.4451 20.4728 34.196 20.6672C35.9918 21.1533 37.1999 22.1254 37.6243 23.4216C37.9182 24.2641 37.9835 25.625 36.7101 27.2777C35.9265 28.3146 34.5552 29.4811 33.2165 30.5181C35.5021 29.8376 38.4732 29.2867 41.5424 29.5783C41.8362 29.6108 42.0648 29.87 42.0321 30.1616C41.9995 30.4533 41.7383 30.6801 41.4444 30.6477C37.4284 30.2588 33.6083 31.393 31.2902 32.3327H32.3023H45.591V39.5912H42.8484V55.6961H149.684C150.656 55.6961 151.443 56.4839 151.443 57.4558C151.443 58.4276 150.656 59.2154 149.684 59.2154H43.9676H42.2933H32.3023C32.3023 59.2154 31.6456 59.2154 31.2249 59.2154C29.3633 59.2154 27.1266 59.2154 27.1266 59.2154H25.3804H15.3895H14.8344H-2.92572C-3.89757 59.2154 -4.68539 58.4276 -4.68539 57.4558C-4.68539 56.4839 -3.89757 55.6961 -2.92572 55.6961H14.8344ZM13.1692 38.4895H14.8344H25.3804V33.402H13.1692V38.4895ZM20.1564 31.8142C19.5034 32.0411 18.9157 32.2031 18.3606 32.3327H25.3478H26.1314C24.3683 31.717 21.9848 31.1662 20.1564 31.8142ZM24.1071 24.2641C23.4541 23.8428 22.8664 23.6808 22.344 23.6808C21.2665 23.6808 20.5482 24.4261 20.3197 24.7501C19.536 25.7871 19.4381 27.1156 20.1237 27.6989C21.5604 28.9951 26.1967 30.8097 28.1231 31.555C27.8619 29.8376 26.8497 26.0139 24.1071 24.2641ZM35.8286 26.5648C36.6122 25.5602 36.8734 24.5557 36.5795 23.7132C36.253 22.7735 35.3061 22.0606 33.8695 21.6717C33.7716 21.6393 33.641 21.6393 33.543 21.6393C33.2492 21.6393 32.988 21.7365 32.7268 21.931C31.029 23.1947 29.7229 27.8285 29.4617 31.8466C31.0616 30.7449 34.4246 28.4118 35.8286 26.5648ZM44.5135 38.4895V33.402H32.3023V38.5219H42.8484H44.5135V38.4895ZM32.3023 55.6961H41.7709V39.5912H32.3023V55.6961ZM26.4579 55.6961H31.2249V39.5912V38.5219V33.402H26.4579V38.5219V39.5912V55.6961ZM15.9118 55.6961H25.3804V39.5912H15.9118V55.6961Z" fill="white"/>
</g>
<path d="M48.4629 52.7445C48.4629 53.1657 48.1037 53.5222 47.6793 53.5222C47.2548 53.5222 46.8957 53.1657 46.8957 52.7445C46.8957 52.3232 47.2548 51.9668 47.6793 51.9668C48.1037 51.9668 48.4629 52.3232 48.4629 52.7445Z" fill="white"/>
<path d="M48.6921 46.9757C48.4309 46.9757 48.235 46.7813 48.235 46.522C48.235 46.2628 48.4309 46.0684 48.6921 46.0684C48.9533 46.0684 49.1492 46.2628 49.1492 46.522C49.1819 46.7813 48.9533 46.9757 48.6921 46.9757Z" fill="white"/>
<path d="M53.6875 38.357C53.6875 38.6162 53.4916 38.8106 53.2304 38.8106C52.9692 38.8106 52.7733 38.6162 52.7733 38.357C52.7733 38.0977 52.9692 37.9033 53.2304 37.9033C53.4916 37.9033 53.6875 38.0977 53.6875 38.357Z" fill="white"/>
<path d="M47.7456 31.8758C47.06 31.8758 46.5049 31.3249 46.5049 30.6444C46.5049 29.964 47.06 29.4131 47.7456 29.4131C48.4313 29.4131 48.9863 29.964 48.9863 30.6444C48.9537 31.3249 48.3986 31.8758 47.7456 31.8758Z" fill="white"/>
<path d="M8.79452 25.5559C8.36174 25.5559 8.01091 25.2077 8.01091 24.7782C8.01091 24.3487 8.36174 24.0005 8.79452 24.0005C9.22729 24.0005 9.57812 24.3487 9.57812 24.7782C9.57812 25.2077 9.22729 25.5559 8.79452 25.5559Z" fill="white"/>
<path d="M8.33789 31.8111C8.33789 32.4592 7.81548 32.9776 7.16248 32.9776C6.50947 32.9776 5.98706 32.4592 5.98706 31.8111C5.98706 31.163 6.50947 30.6445 7.16248 30.6445C7.81548 30.6445 8.33789 31.163 8.33789 31.8111Z" fill="white"/>
<path d="M1.12154 39.7178C0.729739 39.7178 0.403232 39.3937 0.403232 39.0049C0.403232 38.616 0.729739 38.292 1.12154 38.292C1.51335 38.292 1.83984 38.616 1.83984 39.0049C1.83984 39.4261 1.51335 39.7178 1.12154 39.7178Z" fill="white"/>
<path d="M7.29249 43.7016C7.29249 43.3776 7.5537 43.0859 7.91285 43.0859C8.23935 43.0859 8.5332 43.3452 8.5332 43.7016C8.5332 44.0257 8.272 44.3173 7.91285 44.3173C7.58635 44.3173 7.29249 44.0581 7.29249 43.7016Z" fill="white"/>
<path d="M7.2598 52.4851C6.44354 52.4851 5.75789 51.837 5.75789 50.9945C5.75789 50.152 6.41089 49.5039 7.2598 49.5039C8.07606 49.5039 8.76172 50.152 8.76172 50.9945C8.76172 51.837 8.07606 52.4851 7.2598 52.4851Z" fill="white"/>
<path d="M14.8009 22.6729C14.3438 22.6729 13.9847 22.3165 13.9847 21.8628C13.9847 21.4092 14.3438 21.0527 14.8009 21.0527C15.258 21.0527 15.6172 21.4092 15.6172 21.8628C15.6172 22.3165 15.258 22.6729 14.8009 22.6729Z" fill="white"/>
<path d="M7.65227 21.9601C7.39107 21.9601 7.19517 21.7656 7.19517 21.5064C7.19517 21.2472 7.39107 21.0527 7.65227 21.0527C7.91348 21.0527 8.10938 21.2472 8.10938 21.5064C8.10938 21.7656 7.91348 21.9601 7.65227 21.9601Z" fill="white"/>
<path d="M2.00413 26.1401C1.80822 26.1401 1.64498 25.9781 1.64498 25.7837C1.64498 25.5893 1.80822 25.4272 2.00413 25.4272C2.20003 25.4272 2.36328 25.5893 2.36328 25.7837C2.36328 25.9781 2.20003 26.1401 2.00413 26.1401Z" fill="white"/>
<path d="M49.6747 41.2726C49.5768 41.2726 49.4788 41.1754 49.4788 41.0782C49.4788 40.981 49.5768 40.8838 49.6747 40.8838C49.7727 40.8838 49.8706 40.981 49.8706 41.0782C49.9033 41.1754 49.8053 41.2726 49.6747 41.2726Z" fill="white"/>
<path d="M51.241 24.6171C50.9145 24.6171 50.6206 24.3579 50.6206 24.0014C50.6206 23.6774 50.8818 23.3857 51.241 23.3857C51.5675 23.3857 51.8613 23.645 51.8613 24.0014C51.8613 24.3579 51.5675 24.6171 51.241 24.6171Z" fill="white"/>
<path d="M41.9675 21.8627C41.641 21.8627 41.3472 21.6035 41.3472 21.247C41.3472 20.923 41.6084 20.6313 41.9675 20.6313C42.294 20.6313 42.5879 20.8906 42.5879 21.247C42.5879 21.6035 42.3267 21.8627 41.9675 21.8627Z" fill="white"/>
<path d="M36.8406 16.2567C36.498 16.2567 36.2202 15.9811 36.2202 15.6411C36.2202 15.301 36.498 15.0254 36.8406 15.0254C37.1832 15.0254 37.4609 15.301 37.4609 15.6411C37.4609 15.9811 37.1832 16.2567 36.8406 16.2567Z" fill="white"/>
<path d="M30.7676 18.6874C30.7676 18.9142 30.5717 19.1086 30.3431 19.1086C30.1146 19.1086 29.9187 18.9142 29.9187 18.6874C29.9187 18.4605 30.1146 18.2661 30.3431 18.2661C30.5717 18.2985 30.7676 18.4605 30.7676 18.6874Z" fill="white"/>
<path d="M20.2211 12.4649C19.5681 12.4649 19.0457 11.9465 19.0457 11.2984C19.0457 10.6503 19.5681 10.1318 20.2211 10.1318C20.8741 10.1318 21.3965 10.6503 21.3965 11.2984C21.3965 11.9465 20.8741 12.4649 20.2211 12.4649Z" fill="white"/>
<path d="M22.1826 19.0116C21.6275 19.0116 21.2031 18.5904 21.2031 18.0395C21.2031 17.4886 21.6275 17.0674 22.1826 17.0674C22.7377 17.0674 23.1621 17.4886 23.1621 18.0395C23.1621 18.558 22.705 19.0116 22.1826 19.0116Z" fill="white"/>
<path d="M16.5655 19.2053C16.4023 19.2053 16.2717 19.0757 16.2717 18.9137C16.2717 18.7517 16.4023 18.6221 16.5655 18.6221C16.7288 18.6221 16.8594 18.7517 16.8594 18.9137C16.8594 19.0757 16.7288 19.2053 16.5655 19.2053Z" fill="white"/>
<path d="M31.7481 11.5583C31.0298 11.5583 30.4748 10.975 30.4748 10.2945C30.4748 9.58163 31.0625 9.03076 31.7481 9.03076C32.4664 9.03076 33.0215 9.61404 33.0215 10.2945C33.0215 10.975 32.4338 11.5583 31.7481 11.5583Z" fill="white"/>
<path d="M26.3269 14.5063C26.0004 14.5063 25.7065 14.247 25.7065 13.8906C25.7065 13.5665 25.9677 13.2749 26.3269 13.2749C26.6861 13.2749 26.9473 13.5341 26.9473 13.8906C26.9473 14.247 26.6861 14.5063 26.3269 14.5063Z" fill="white"/>
</g>
<rect x="0.5" y="0.5" width="53" height="53" rx="26.5" stroke="white"/>
<defs>
<clipPath id="clip0_3184_18134">
<rect x="1" y="1" width="52" height="52" rx="26" fill="white"/>
</clipPath>
<clipPath id="clip1_3184_18134">
<rect width="35.6897" height="34.1035" fill="white" transform="matrix(-1 0 0 1 46.6875 20.8965)"/>
</clipPath>
</defs>
</svg>
