<svg width="84" height="55" viewBox="0 0 84 55" fill="none" xmlns="http://www.w3.org/2000/svg">
<path d="M82.3027 52.9085C82.3027 53.6848 81.6441 54.3385 80.8619 54.3385C80.0797 54.3385 79.421 53.6848 79.421 52.9085C79.421 52.1322 80.0797 51.4785 80.8619 51.4785C81.6441 51.4785 82.3027 52.1322 82.3027 52.9085Z" fill="white"/>
<path d="M82.5498 40.9373C82.1382 40.9373 81.7677 40.6105 81.7677 40.1611C81.7677 39.7525 82.097 39.3848 82.5498 39.3848C82.9615 39.3848 83.332 39.7116 83.332 40.1611C83.332 40.5696 82.9615 40.9373 82.5498 40.9373Z" fill="white"/>
<g clip-path="url(#clip0_417_7321)">
<path d="M20.8383 58.8776V38.5715H17.3802V29.3786H21.0853C18.3682 28.684 17.4625 26.682 17.4625 26.6411C17.2979 26.3143 17.4625 25.9057 17.833 25.7423C18.1624 25.5788 18.574 25.7423 18.7387 26.11C18.7387 26.1509 20.4266 29.828 27.1369 27.4583C28.2896 27.0497 29.607 26.968 30.8832 27.0497C29.1541 26.2326 27.5486 25.3337 26.6841 24.5574C25.1197 23.1683 25.4902 20.6351 26.7252 19.0008C27.9603 17.4074 30.3892 16.2225 33.3121 18.102C36.0292 19.818 37.5112 22.8414 38.2934 25.3337C38.9932 21.2071 40.3929 16.8354 42.5748 15.2419C43.3982 14.6291 44.3038 14.4657 45.2507 14.7108C47.5149 15.3237 49.0381 16.5494 49.5733 18.1837C49.9438 19.246 50.0262 20.962 48.4206 23.0457C47.4326 24.3531 45.7036 25.824 44.0157 27.1314C46.8974 26.2734 50.6437 25.5788 54.5134 25.9466C54.884 25.9874 55.1721 26.3143 55.131 26.682C55.0898 27.0497 54.7605 27.3357 54.39 27.2949C49.3263 26.8046 44.5097 28.2346 41.5868 29.4194H42.863H59.6182V38.5715H56.1602V58.8776H190.865C192.091 58.8776 193.084 59.8709 193.084 61.0963C193.084 62.3216 192.091 63.315 190.865 63.315H57.5713H55.4603H42.863C42.863 63.315 42.035 63.315 41.5045 63.315C39.1572 63.315 36.3371 63.315 36.3371 63.315H34.1354H21.5381H20.8383H-1.55489C-2.78024 63.315 -3.77359 62.3216 -3.77359 61.0963C-3.77359 59.8709 -2.78024 58.8776 -1.55489 58.8776H20.8383ZM18.7387 37.1823H20.8383H34.1354V30.7677H18.7387V37.1823ZM27.5486 28.7657C26.7253 29.0517 25.9842 29.256 25.2844 29.4194H34.0943H35.0823C32.8592 28.6432 29.854 27.9486 27.5486 28.7657ZM32.5299 19.246C31.7065 18.7148 30.9655 18.5105 30.3068 18.5105C28.9483 18.5105 28.0426 19.4502 27.7544 19.8588C26.7664 21.1663 26.6429 22.8414 27.5074 23.5768C29.3188 25.2111 35.1646 27.4991 37.5935 28.4389C37.2642 26.2734 35.988 21.4523 32.5299 19.246ZM47.3091 22.1468C48.2971 20.8803 48.6265 19.6137 48.256 18.5514C47.8443 17.3665 46.6504 16.4677 44.839 15.9774C44.7155 15.9365 44.5509 15.9365 44.4274 15.9365C44.0569 15.9365 43.7275 16.0591 43.3982 16.3042C41.2574 17.8977 39.6107 23.7403 39.2814 28.8066C41.2986 27.4174 45.5389 24.4757 47.3091 22.1468ZM58.2597 37.1823V30.7677H42.863V37.2232H56.1602H58.2597V37.1823ZM42.863 58.8776H54.8016V38.5715H42.863V58.8776ZM35.494 58.8776H41.5045V38.5715V37.2232V30.7677H35.494V37.2232V38.5715V58.8776ZM22.1968 58.8776H34.1354V38.5715H22.1968V58.8776Z" fill="white"/>
</g>
<path d="M63.2402 55.1564C63.2402 55.6875 62.7874 56.1369 62.2522 56.1369C61.717 56.1369 61.2642 55.6875 61.2642 55.1564C61.2642 54.6252 61.717 54.1758 62.2522 54.1758C62.7874 54.1758 63.2402 54.6252 63.2402 55.1564Z" fill="white"/>
<path d="M63.5291 47.8823C63.1997 47.8823 62.9527 47.6371 62.9527 47.3103C62.9527 46.9834 63.1997 46.7383 63.5291 46.7383C63.8584 46.7383 64.1054 46.9834 64.1054 47.3103C64.1466 47.6371 63.8584 47.8823 63.5291 47.8823Z" fill="white"/>
<path d="M72.3802 43.512C71.6804 43.512 71.1452 42.9808 71.1452 42.2863C71.1452 41.5917 71.6804 41.0605 72.3802 41.0605C73.0801 41.0605 73.6152 41.5917 73.6152 42.2863C73.6152 42.9808 73.0389 43.512 72.3802 43.512Z" fill="white"/>
<path d="M69.8281 37.0154C69.8281 37.3422 69.5811 37.5874 69.2518 37.5874C68.9224 37.5874 68.6754 37.3422 68.6754 37.0154C68.6754 36.6885 68.9224 36.4434 69.2518 36.4434C69.5811 36.4434 69.8281 36.6885 69.8281 37.0154Z" fill="white"/>
<path d="M62.336 28.8434C61.4715 28.8434 60.7716 28.1489 60.7716 27.2909C60.7716 26.4329 61.4715 25.7383 62.336 25.7383C63.2005 25.7383 63.9004 26.4329 63.9004 27.2909C63.8592 28.1489 63.1594 28.8434 62.336 28.8434Z" fill="white"/>
<path d="M13.2229 20.8752C12.6772 20.8752 12.2349 20.4362 12.2349 19.8946C12.2349 19.3531 12.6772 18.9141 13.2229 18.9141C13.7686 18.9141 14.2109 19.3531 14.2109 19.8946C14.2109 20.4362 13.7686 20.8752 13.2229 20.8752Z" fill="white"/>
<path d="M12.6465 28.7619C12.6465 29.579 11.9878 30.2327 11.1644 30.2327C10.3411 30.2327 9.6824 29.579 9.6824 28.7619C9.6824 27.9447 10.3411 27.291 11.1644 27.291C11.9878 27.291 12.6465 27.9447 12.6465 28.7619Z" fill="white"/>
<path d="M3.5494 38.7313C3.05538 38.7313 2.6437 38.3227 2.6437 37.8325C2.6437 37.3422 3.05538 36.9336 3.5494 36.9336C4.04341 36.9336 4.45508 37.3422 4.45508 37.8325C4.45508 38.3636 4.04341 38.7313 3.5494 38.7313Z" fill="white"/>
<path d="M11.3302 43.7548C11.3302 43.3462 11.6595 42.9785 12.1123 42.9785C12.524 42.9785 12.8945 43.3054 12.8945 43.7548C12.8945 44.1634 12.5652 44.5311 12.1123 44.5311C11.7007 44.5311 11.3302 44.2042 11.3302 43.7548Z" fill="white"/>
<path d="M11.2879 54.8292C10.2587 54.8292 9.39421 54.012 9.39421 52.9498C9.39421 51.8875 10.2176 51.0703 11.2879 51.0703C12.3171 51.0703 13.1816 51.8875 13.1816 52.9498C13.1816 54.012 12.3171 54.8292 11.2879 54.8292Z" fill="white"/>
<path d="M1.03739 49.1899C0.790381 49.1899 0.58454 48.9856 0.58454 48.7404C0.58454 48.4953 0.790381 48.291 1.03739 48.291C1.28439 48.291 1.49023 48.4953 1.49023 48.7404C1.49023 48.9856 1.28439 49.1899 1.03739 49.1899Z" fill="white"/>
<path d="M2.56084 55.768C2.31074 55.768 2.10799 55.5668 2.10799 55.3186C2.10799 55.0704 2.31074 54.8691 2.56084 54.8691C2.81094 54.8691 3.01367 55.0704 3.01367 55.3186C3.01367 55.5668 2.81094 55.768 2.56084 55.768Z" fill="white"/>
<path d="M0.913302 29.8656C0.789799 29.8656 0.707464 29.7839 0.707464 29.6613C0.707464 29.5387 0.789799 29.457 0.913302 29.457C1.03681 29.457 1.11914 29.5387 1.11914 29.6613C1.11914 29.7839 0.995637 29.8656 0.913302 29.8656Z" fill="white"/>
<path d="M20.797 17.2401C20.2206 17.2401 19.7678 16.7907 19.7678 16.2187C19.7678 15.6467 20.2206 15.1973 20.797 15.1973C21.3733 15.1973 21.8262 15.6467 21.8262 16.2187C21.8262 16.7907 21.3733 17.2401 20.797 17.2401Z" fill="white"/>
<path d="M11.783 16.3413C11.4537 16.3413 11.2067 16.0961 11.2067 15.7693C11.2067 15.4424 11.4537 15.1973 11.783 15.1973C12.1124 15.1973 12.3594 15.4424 12.3594 15.7693C12.3594 16.0961 12.1124 16.3413 11.783 16.3413Z" fill="white"/>
<path d="M4.66043 21.6118C4.41343 21.6118 4.2076 21.4075 4.2076 21.1623C4.2076 20.9172 4.41343 20.7129 4.66043 20.7129C4.90744 20.7129 5.11328 20.9172 5.11328 21.1623C5.11328 21.4075 4.90744 21.6118 4.66043 21.6118Z" fill="white"/>
<path d="M71.3926 49.6822C71.3926 49.8865 71.2279 50.0499 71.0221 50.0499C70.8162 50.0499 70.6516 49.8865 70.6516 49.6822C70.6516 49.4779 70.8162 49.3145 71.0221 49.3145C71.2279 49.3145 71.3926 49.4779 71.3926 49.6822Z" fill="white"/>
<path d="M64.7665 40.6915C64.643 40.6915 64.5195 40.5689 64.5195 40.4463C64.5195 40.3237 64.643 40.2012 64.7665 40.2012C64.89 40.2012 65.0135 40.3237 65.0135 40.4463C65.0547 40.5689 64.9312 40.6915 64.7665 40.6915Z" fill="white"/>
<path d="M77.1149 28.8017C76.4783 28.8017 75.9622 28.2895 75.9622 27.6577C75.9622 27.0259 76.4783 26.5137 77.1149 26.5137C77.7515 26.5137 78.2676 27.0259 78.2676 27.6577C78.2676 28.2895 77.7515 28.8017 77.1149 28.8017Z" fill="white"/>
<path d="M70.2413 33.5838C69.8296 33.5838 69.4591 33.257 69.4591 32.8075C69.4591 32.399 69.7884 32.0312 70.2413 32.0312C70.6529 32.0312 71.0234 32.3581 71.0234 32.8075C71.0234 33.257 70.6529 33.5838 70.2413 33.5838Z" fill="white"/>
<path d="M66.7413 19.6913C66.3296 19.6913 65.9591 19.3644 65.9591 18.915C65.9591 18.5064 66.2884 18.1387 66.7413 18.1387C67.1529 18.1387 67.5234 18.4655 67.5234 18.915C67.5234 19.3644 67.1529 19.6913 66.7413 19.6913Z" fill="white"/>
<path d="M55.0498 16.2186C54.6382 16.2186 54.2677 15.8917 54.2677 15.4423C54.2677 15.0337 54.597 14.666 55.0498 14.666C55.4615 14.666 55.832 14.9929 55.832 15.4423C55.832 15.8917 55.5027 16.2186 55.0498 16.2186Z" fill="white"/>
<path d="M48.585 9.15023C48.153 9.15023 47.8028 8.80268 47.8028 8.37395C47.8028 7.94521 48.153 7.59766 48.585 7.59766C49.017 7.59766 49.3672 7.94521 49.3672 8.37395C49.3672 8.80268 49.017 9.15023 48.585 9.15023Z" fill="white"/>
<path d="M40.9277 12.2147C40.9277 12.5007 40.6807 12.7459 40.3926 12.7459C40.1044 12.7459 39.8574 12.5007 39.8574 12.2147C39.8574 11.9287 40.1044 11.6836 40.3926 11.6836C40.6807 11.7245 40.9277 11.9287 40.9277 12.2147Z" fill="white"/>
<path d="M27.6312 4.36946C26.8079 4.36946 26.1492 3.71575 26.1492 2.8986C26.1492 2.08145 26.8079 1.42773 27.6312 1.42773C28.4546 1.42773 29.1133 2.08145 29.1133 2.8986C29.1133 3.71575 28.4546 4.36946 27.6312 4.36946Z" fill="white"/>
<path d="M30.1029 12.6233C29.403 12.6233 28.8678 12.0922 28.8678 11.3976C28.8678 10.703 29.403 10.1719 30.1029 10.1719C30.8027 10.1719 31.3379 10.703 31.3379 11.3976C31.3379 12.0513 30.7615 12.6233 30.1029 12.6233Z" fill="white"/>
<path d="M23.0201 12.8682C22.8143 12.8682 22.6496 12.7048 22.6496 12.5005C22.6496 12.2962 22.8143 12.1328 23.0201 12.1328C23.226 12.1328 23.3906 12.2962 23.3906 12.5005C23.3906 12.7048 23.226 12.8682 23.0201 12.8682Z" fill="white"/>
<path d="M42.164 3.22593C41.2583 3.22593 40.5585 2.4905 40.5585 1.6325C40.5585 0.733637 41.2995 0.0390625 42.164 0.0390625C43.0697 0.0390625 43.7695 0.774495 43.7695 1.6325C43.7695 2.4905 43.0285 3.22593 42.164 3.22593Z" fill="white"/>
<path d="M35.3291 6.9432C34.9175 6.9432 34.5469 6.61635 34.5469 6.16691C34.5469 5.75834 34.8763 5.39062 35.3291 5.39062C35.782 5.39062 36.1113 5.71748 36.1113 6.16691C36.1113 6.61635 35.782 6.9432 35.3291 6.9432Z" fill="white"/>
<defs>
<clipPath id="clip0_417_7321">
<rect width="45" height="43" fill="white" transform="matrix(-1 0 0 1 61 15)"/>
</clipPath>
</defs>
</svg>
