<svg width="54" height="50" viewBox="0 0 54 50" fill="none" xmlns="http://www.w3.org/2000/svg">
<g clip-path="url(#clip0_417_7437)">
<path d="M11.4389 -0.00195312H0V10.801H11.4389V-0.00195312Z" fill="#1A1A1A"/>
<path d="M11.4389 -0.00195312H13.0878V1.55522H14.7366V3.1124H13.0878V4.66958H14.7366V6.22676H13.0878V7.68661H14.7366V9.24379H13.0878V12.3581H18.0343V15.4725H16.3855V13.9153H14.7366V15.4725H9.79008V13.9153H11.4389V12.3581H8.14122V13.9153H6.59542V15.4725H8.14122V17.0297H4.94656V13.9153H3.29771V17.0297H0V15.4725H1.64885V13.9153H0V10.801H11.4389V-0.00195312Z" fill="white"/>
<path d="M13.0859 -0.00195312H18.0325V1.55522H16.3836V3.1124H18.0325V1.55522H19.6814V-0.00195312H21.2272V1.55522H22.876V-0.00195312H27.8226V1.55522H24.5249V3.1124H26.1737V6.22676H19.6814V4.66958H22.876V3.1124H19.6814V4.66958H18.0325V6.22676H14.7348V4.66958H13.0859V3.1124H14.7348V1.55522H13.0859V-0.00195312Z" fill="#1A1A1A"/>
<path d="M19.6821 -0.00195312H18.0332V1.55522H19.6821V-0.00195312Z" fill="white"/>
<path d="M22.8774 -0.00195312H21.2285V1.55522H22.8774V-0.00195312Z" fill="white"/>
<path d="M27.8268 -0.00195312H29.4756V3.1124H31.1245V4.66958H27.8268V7.68661H24.5291V9.24379H22.8802V7.68661H19.6855V6.22676H26.1779V3.1124H24.5291V1.55522H27.8268V-0.00195312Z" fill="white"/>
<path d="M29.472 -0.00195312H35.9643V1.55522H34.4185V3.1124H32.7697V4.66958H34.4185V3.1124H35.9643V6.22676H34.4185V7.68661H35.9643V6.22676H37.6132V10.801H35.9643V9.24379H34.4185V10.801H32.7697V6.22676H31.1208V10.801H32.7697V12.3581H29.472V9.24379H27.8231V10.801H26.1742V9.24379H24.5254V7.68661H27.8231V4.66958H31.1208V3.1124H29.472V-0.00195312Z" fill="#1A1A1A"/>
<path d="M35.9656 -0.00195312H42.5611V10.801H54V12.3581H52.3511V13.9153H54V17.0297H52.3511V15.4725H50.7023V12.3581H49.1565V15.4725H50.7023V17.0297H47.5076V12.3581H45.8588V13.9153H44.2099V12.3581H42.5611V13.9153H44.2099V17.0297H47.5076V18.5869H42.5611V21.6039H40.9122V18.5869H37.6145V21.6039H40.9122V23.1611H42.5611V24.7182H44.2099V26.2754H42.5611V27.8326H40.9122V30.947H39.2634V32.5041H40.9122V33.964H37.6145V29.3898H39.2634V26.2754H37.6145V29.3898H35.9656V32.5041H34.4198V30.947H31.1221V32.5041H29.4733V29.3898H31.1221V27.8326H34.4198V26.2754H31.1221V27.8326H29.4733V29.3898H26.1756V27.8326H27.8244V26.2754H29.4733V24.7182H27.8244V26.2754H26.1756V24.7182H24.5267V23.1611H22.8779V21.6039H16.3855V24.7182H14.7366V26.2754H11.4389V24.7182H9.79008V26.2754H11.4389V27.8326H8.14122V29.3898H11.4389V30.947H4.94656V32.5041H3.29771V33.964H4.94656V32.5041H6.59542V33.964H8.14122V35.5212H11.4389V37.0783H6.59542V35.5212H3.29771V37.0783H1.64885V30.947H3.29771V29.3898H6.59542V27.8326H3.29771V26.2754H1.64885V27.8326H0V23.1611H3.29771V24.7182H6.59542V26.2754H8.14122V23.1611H6.59542V21.6039H1.64885V20.0467H3.29771V18.5869H6.59542V20.0467H8.14122V21.6039H9.79008V23.1611H14.7366V21.6039H13.0878V20.0467H14.7366V18.5869H9.79008V17.0297H14.7366V15.4725H16.3855V17.0297H18.0343V20.0467H19.6832V18.5869H22.8779V17.0297H21.229V13.9153H24.5267V17.0297H27.8244V18.5869H24.5267V20.0467H26.1756V23.1611H31.1221V21.6039H32.771V24.7182H34.4198V21.6039H32.771V20.0467H31.1221V18.5869H34.4198V20.0467H35.9656V17.0297H37.6145V15.4725H39.2634V13.9153H40.9122V9.24379H39.2634V13.9153H37.6145V12.3581H35.9656V13.9153H34.4198V12.3581H32.771V10.801H34.4198V9.24379H35.9656V10.801H37.6145V6.22676H35.9656V3.1124H34.4198V1.55522H35.9656V-0.00195312Z" fill="white"/>
<path d="M53.9995 -0.00195312H42.5605V10.801H53.9995V-0.00195312Z" fill="#1A1A1A"/>
<path d="M9.7877 1.55469H1.64648V9.24325H9.7877V1.55469Z" fill="white"/>
<path d="M18.0336 1.55469H16.3848V3.11187H18.0336V1.55469Z" fill="white"/>
<path d="M39.266 1.55469H40.9149V4.66904H37.6172V3.11187H39.266V1.55469Z" fill="#1A1A1A"/>
<path d="M52.3522 1.55469H44.2109V9.24325H52.3522V1.55469Z" fill="white"/>
<path d="M8.24539 3.11133H3.29883V7.78286H8.24539V3.11133Z" fill="#1A1A1A"/>
<path d="M22.9833 3.11133H19.6855V4.66851H22.9833V3.11133Z" fill="white"/>
<path d="M34.4203 3.11133H32.7715V4.66851H34.4203V3.11133Z" fill="white"/>
<path d="M50.804 3.11133H45.8574V7.78286H50.804V3.11133Z" fill="#1A1A1A"/>
<path d="M19.6821 4.66992H18.0332V6.2271H19.6821V4.66992Z" fill="white"/>
<path d="M14.7348 6.22461H13.0859V7.78179H14.7348V6.22461Z" fill="#1A1A1A"/>
<path d="M18.036 6.22461H14.7383V7.78179H18.036V6.22461Z" fill="white"/>
<path d="M18.0325 6.22461H19.6814V7.68446H22.876V9.24164H21.2272V10.7988H19.6814V9.24164H18.0325V10.7988H19.6814V12.356H22.876V9.24164H24.5249V13.9132H21.2272V17.0275H22.876V18.5847H19.6814V20.0446H18.0325V17.0275H16.3836V15.4704H18.0325V12.356H13.0859V9.24164H14.7348V10.7988H16.3836V9.24164H14.7348V7.68446H18.0325V6.22461Z" fill="#1A1A1A"/>
<path d="M32.768 6.22461H31.1191V10.8961H32.768V6.22461Z" fill="white"/>
<path d="M36.0668 6.22461H34.418V7.78179H36.0668V6.22461Z" fill="white"/>
<path d="M40.9125 6.22461H39.2637V7.78179H40.9125V6.22461Z" fill="#1A1A1A"/>
<path d="M16.3871 9.24414H14.7383V10.8013H16.3871V9.24414Z" fill="white"/>
<path d="M19.6821 9.24414H18.0332V10.8013H19.6821V9.24414Z" fill="white"/>
<path d="M21.2313 9.24414H22.8802V12.3585H19.6855V10.8013H21.2313V9.24414Z" fill="white"/>
<path d="M24.5254 9.24414H26.1742V10.8013H27.8231V9.24414H29.472V12.3585H27.8231V15.4729H26.1742V13.9157H24.5254V9.24414Z" fill="white"/>
<path d="M40.9125 9.24414H39.2637V13.9157H40.9125V9.24414Z" fill="#1A1A1A"/>
<path d="M8.14122 12.3574H11.4389V13.9146H9.79008V15.4718H14.7366V17.029H9.79008V18.5861H14.7366V20.046H13.0878V21.6032H14.7366V23.1603H9.79008V21.6032H11.4389V20.046H9.79008V21.6032H8.14122V20.046H6.59542V18.5861H3.29771V20.046H1.64885V21.6032H6.59542V23.1603H8.14122V26.2747H6.59542V24.7175H3.29771V23.1603H0V17.029H3.29771V13.9146H4.94656V17.029H8.14122V15.4718H6.59542V13.9146H8.14122V12.3574Z" fill="#1A1A1A"/>
<path d="M27.8242 12.3574H29.4731V13.9146H31.1219V15.4718H32.7708V17.029H35.9654V20.046H34.4196V18.5861H31.1219V20.046H29.4731V18.5861H27.8242V17.029H29.4731V15.4718H27.8242V12.3574Z" fill="#1A1A1A"/>
<path d="M29.4727 12.3574H32.7704V15.4718H31.1215V13.9146H29.4727V12.3574Z" fill="white"/>
<path d="M32.7715 12.3574H34.4203V13.9146H35.9661V12.3574H37.615V13.9146H39.2638V15.4718H37.615V17.029H35.9661V15.4718H32.7715V12.3574Z" fill="#1A1A1A"/>
<path d="M44.2094 12.3574H42.5605V13.9146H44.2094V12.3574Z" fill="#1A1A1A"/>
<path d="M45.8598 12.3574H47.5086V17.029H44.2109V13.9146H45.8598V12.3574Z" fill="#1A1A1A"/>
<path d="M50.8031 12.3574H49.1543V15.4718H50.8031V12.3574Z" fill="#1A1A1A"/>
<path d="M53.9985 12.3574H52.3496V13.9146H53.9985V12.3574Z" fill="#1A1A1A"/>
<path d="M1.64886 13.916H0V15.4732H1.64886V13.916Z" fill="#1A1A1A"/>
<path d="M16.3871 13.916H14.7383V15.4732H16.3871V13.916Z" fill="#1A1A1A"/>
<path d="M24.5254 13.916H26.1742V15.4732H27.8231V17.0304H24.5254V13.916Z" fill="#1A1A1A"/>
<path d="M29.4731 15.4727H27.8242V17.0298H29.4731V15.4727Z" fill="white"/>
<path d="M36.0692 15.4727H32.7715V17.0298H36.0692V15.4727Z" fill="white"/>
<path d="M42.561 15.4727H40.9121V17.0298H42.561V15.4727Z" fill="#1A1A1A"/>
<path d="M50.7022 15.4727H52.351V17.0298H53.9999V18.587H49.1564V20.0469H52.351V23.1612H50.7022V24.7184H49.1564V23.1612H45.8587V24.7184H47.5075V26.2756H44.2098V24.7184H42.561V23.1612H40.9121V21.604H42.561V18.587H47.5075V17.0298H50.7022V15.4727Z" fill="#1A1A1A"/>
<path d="M24.5254 18.5879H27.8231V20.0477H29.472V21.6049H31.1208V23.1621H26.1742V20.0477H24.5254V18.5879Z" fill="#1A1A1A"/>
<path d="M29.4731 18.5879H27.8242V20.1451H29.4731V18.5879Z" fill="white"/>
<path d="M40.9149 18.5879H37.6172V21.7022H40.9149V18.5879Z" fill="#1A1A1A"/>
<path d="M49.1543 18.5879H53.9978V23.1621H52.349V20.0477H49.1543V18.5879Z" fill="white"/>
<path d="M11.4379 20.0469H9.78906V21.6041H11.4379V20.0469Z" fill="white"/>
<path d="M31.1215 20.0469H29.4727V21.6041H31.1215V20.0469Z" fill="white"/>
<path d="M32.768 20.0469H31.1191V21.6041H32.768V20.0469Z" fill="#1A1A1A"/>
<path d="M16.3871 21.6035H22.8795V23.1607H24.5284V24.7179H19.6848V26.275H18.036V27.8322H19.6848V29.3894H14.7383V27.8322H16.3871V26.275H14.7383V24.7179H16.3871V21.6035Z" fill="#1A1A1A"/>
<path d="M34.4203 21.6035H32.7715V24.7179H34.4203V21.6035Z" fill="#1A1A1A"/>
<path d="M45.8574 23.1602H49.1551V24.7173H50.7009V26.2745H47.5063V24.7173H45.8574V23.1602Z" fill="white"/>
<path d="M52.35 23.1602H50.7012V24.7173H52.35V23.1602Z" fill="white"/>
<path d="M52.35 23.1602H53.9989V29.3889H52.35V26.2745H50.7012V24.7173H52.35V23.1602Z" fill="#1A1A1A"/>
<path d="M11.4379 24.7207H9.78906V26.2779H11.4379V24.7207Z" fill="#1A1A1A"/>
<path d="M19.6832 24.7207H24.5267V27.8351H22.8779V26.2779H21.229V30.9494H24.5267V29.3922H26.1756V32.5066H19.6832V30.9494H18.0343V32.5066H16.3855V35.5236H14.7366V38.638H13.0878V40.1952H16.3855V38.638H18.0343V37.0808H19.6832V33.9664H21.229V35.5236H22.8779V33.9664H26.1756V35.5236H24.5267V37.0808H22.8779V38.638H21.229V41.7523H19.6832V40.1952H18.0343V43.3095H16.3855V44.8667H14.7366V46.4239H16.3855V47.8837H18.0343V49.4409H14.7366V50.9981H11.4389V40.1952H0V38.638H3.29771V37.0808H4.94656V38.638H11.4389V37.0808H13.0878V35.5236H11.4389V33.9664H8.14122V32.5066H13.0878V30.9494H14.7366V29.3922H19.6832V27.8351H18.0343V26.2779H19.6832V24.7207Z" fill="white"/>
<path d="M24.5262 24.7207H26.1751V26.2779H27.8239V27.8351H26.1751V29.3922H24.5262V30.9494H21.2285V26.2779H22.8774V27.8351H24.5262V24.7207Z" fill="#1A1A1A"/>
<path d="M29.4731 24.7207H27.8242V26.2779H29.4731V24.7207Z" fill="#1A1A1A"/>
<path d="M3.29534 26.2754H1.64648V27.8326H3.29534V26.2754Z" fill="#1A1A1A"/>
<path d="M14.7372 26.2754H11.4395V27.8326H14.7372V26.2754Z" fill="#1A1A1A"/>
<path d="M16.3871 26.2754H14.7383V27.8326H16.3871V26.2754Z" fill="white"/>
<path d="M34.4169 26.2754H31.1191V27.8326H34.4169V26.2754Z" fill="#1A1A1A"/>
<path d="M39.266 26.2754H37.6172V29.3897H39.266V26.2754Z" fill="#1A1A1A"/>
<path d="M42.561 26.2754H44.2098V27.8326H47.5075V29.3897H45.8587V30.9469H44.2098V29.3897H42.561V30.9469H40.9121V27.8326H42.561V26.2754Z" fill="#1A1A1A"/>
<path d="M47.5086 26.2754H44.2109V27.8326H47.5086V26.2754Z" fill="white"/>
<path d="M50.8075 26.2754H47.5098V27.8326H50.8075V26.2754Z" fill="#1A1A1A"/>
<path d="M50.7044 26.2754H52.3533V29.3897H54.0021V35.5211H52.3533V30.9469H50.7044V29.3897H47.5098V27.8326H50.7044V26.2754Z" fill="white"/>
<path d="M0 27.834H1.64886V29.3912H3.29771V30.9483H1.64886V37.0797H3.29771V38.6369H0V27.834Z" fill="#1A1A1A"/>
<path d="M3.29534 27.834H1.64648V29.3912H3.29534V27.834Z" fill="white"/>
<path d="M6.59654 27.834H3.29883V29.3912H6.59654V27.834Z" fill="#1A1A1A"/>
<path d="M11.4403 27.834H8.14258V29.3912H11.4403V27.834Z" fill="#1A1A1A"/>
<path d="M14.7372 27.834H11.4395V29.3912H14.7372V27.834Z" fill="white"/>
<path d="M31.1215 27.834H29.4727V29.3912H31.1215V27.834Z" fill="#1A1A1A"/>
<path d="M11.4416 29.3887H14.7393V30.9458H13.0904V32.503H8.14388V33.9629H6.59807V32.503H4.94922V30.9458H11.4416V29.3887Z" fill="#1A1A1A"/>
<path d="M29.4754 29.3887H26.1777V32.503H29.4754V29.3887Z" fill="#1A1A1A"/>
<path d="M35.9661 29.3887H37.615V33.9629H35.9661V35.5201H32.7715V33.9629H34.4203V32.503H35.9661V29.3887Z" fill="#1A1A1A"/>
<path d="M42.561 29.3887H44.2098V30.9458H45.8587V32.503H40.9121V30.9458H42.561V29.3887Z" fill="white"/>
<path d="M47.5063 29.3887H45.8574V30.9458H47.5063V29.3887Z" fill="white"/>
<path d="M50.8075 29.3887H47.5098V30.9458H50.8075V29.3887Z" fill="#1A1A1A"/>
<path d="M18.0325 30.9473H19.6814V32.5044H26.1737V33.9643H22.876V35.5215H21.2272V33.9643H19.6814V37.0787H18.0325V38.6358H16.3836V40.193H13.0859V38.6358H14.7348V35.5215H16.3836V32.5044H18.0325V30.9473Z" fill="#1A1A1A"/>
<path d="M31.1215 30.9473H34.4192V32.5044H32.7704V33.9643H29.4727V32.5044H31.1215V30.9473Z" fill="#1A1A1A"/>
<path d="M40.9125 30.9473H39.2637V32.5044H40.9125V30.9473Z" fill="#1A1A1A"/>
<path d="M45.8599 30.9473H47.5088V32.5044H50.7034V30.9473H52.3523V35.5215H54.0011V37.0787H49.1576V35.5215H50.7034V33.9643H45.8599V35.5215H44.2111V37.0787H49.1576V40.193H47.5088V41.7502H49.1576V40.193H52.3523V41.7502H50.7034V43.3074H47.5088V50.9959H45.8599V49.4388H42.5622V47.8816H45.8599V46.4217H44.2111V44.8645H42.5622V47.8816H37.6157V46.4217H39.2645V43.3074H37.6157V40.193H35.9668V38.6358H39.2645V37.0787H40.9134V35.5215H42.5622V33.9643H40.9134V32.5044H45.8599V30.9473Z" fill="#1A1A1A"/>
<path d="M50.8075 30.9473H47.5098V32.5044H50.8075V30.9473Z" fill="white"/>
<path d="M4.94768 32.5059H3.29883V34.063H4.94768V32.5059Z" fill="#1A1A1A"/>
<path d="M26.1777 32.5059H29.4754V33.9657H32.7732V35.5229H31.1243V37.0801H29.4754V35.5229H27.8266V33.9657H26.1777V32.5059Z" fill="white"/>
<path d="M34.4203 32.5059H32.7715V34.063H34.4203V32.5059Z" fill="white"/>
<path d="M11.4403 33.9648H8.14258V35.522H11.4403V33.9648Z" fill="#1A1A1A"/>
<path d="M27.8266 33.9648H26.1777V35.522H27.8266V33.9648Z" fill="#1A1A1A"/>
<path d="M37.6156 33.9648H35.9668V35.522H37.6156V33.9648Z" fill="white"/>
<path d="M37.6157 33.9648H40.9134V35.522H39.2645V37.0792H35.9668V35.522H37.6157V33.9648Z" fill="#1A1A1A"/>
<path d="M42.561 33.9648H40.9121V35.522H42.561V33.9648Z" fill="white"/>
<path d="M45.8598 33.9648H50.7033V35.522H49.1575V37.0792H44.2109V35.522H45.8598V33.9648Z" fill="white"/>
<path d="M3.29883 35.5234H6.59654V37.0806H11.44V38.6378H4.94768V37.0806H3.29883V35.5234Z" fill="#1A1A1A"/>
<path d="M13.0883 35.5234H11.4395V37.0806H13.0883V35.5234Z" fill="#1A1A1A"/>
<path d="M26.1742 35.5234H24.5254V37.0806H26.1742V35.5234Z" fill="#1A1A1A"/>
<path d="M26.1742 35.5234H27.8231V38.6378H34.4185V37.0806H32.7697V35.5234H35.9643V37.0806H39.262V38.6378H35.9643V40.195H34.4185V41.7521H35.9643V40.195H37.6132V43.3093H39.262V46.4237H37.6132V44.8665H35.9643V43.3093H32.7697V40.195H29.472V41.7521H27.8231V43.3093H26.1742V41.7521H24.5254V37.0806H26.1742V35.5234Z" fill="white"/>
<path d="M27.8242 35.5234H29.4731V37.0806H31.1219V35.5234H32.7708V37.0806H34.4196V38.6378H27.8242V35.5234Z" fill="#1A1A1A"/>
<path d="M40.9125 35.5234H39.2637V37.0806H40.9125V35.5234Z" fill="white"/>
<path d="M22.8774 37.0762H24.5262V41.7477H26.1751V43.3049H24.5262V44.8621H26.1751V43.3049H27.8239V41.7477H29.4728V44.8621H27.8239V46.4192H29.4728V47.8791H31.1216V49.4363H29.4728V50.9935H27.8239V47.8791H26.1751V49.4363H24.5262V46.4192H22.8774V41.7477H21.2285V38.6334H22.8774V37.0762Z" fill="#1A1A1A"/>
<path d="M49.1543 37.0762H53.9978V38.6334H52.349V40.1905H49.1543V37.0762Z" fill="white"/>
<path d="M45.8587 38.6348H40.9121V43.3063H45.8587V38.6348Z" fill="white"/>
<path d="M53.9985 38.6348H52.3496V40.1919H53.9985V38.6348Z" fill="#1A1A1A"/>
<path d="M11.4389 40.1914H0V50.9943H11.4389V40.1914Z" fill="#1A1A1A"/>
<path d="M18.0332 40.1914H19.6821V41.7486H21.2279V43.3058H18.0332V40.1914Z" fill="#1A1A1A"/>
<path d="M29.4727 40.1914H32.7704V43.3058H35.965V44.8629H37.6139V46.4201H34.4192V49.4372H32.7704V44.8629H31.1215V41.7486H29.4727V40.1914Z" fill="#1A1A1A"/>
<path d="M36.0668 40.1914H34.418V41.7486H36.0668V40.1914Z" fill="#1A1A1A"/>
<path d="M44.2094 40.1914H42.5605V41.7486H44.2094V40.1914Z" fill="#1A1A1A"/>
<path d="M49.1586 40.1914H47.5098V41.7486H49.1586V40.1914Z" fill="white"/>
<path d="M53.9985 40.1914H52.3496V41.7486H53.9985V40.1914Z" fill="white"/>
<path d="M9.7877 41.75H1.64648V49.4386H9.7877V41.75Z" fill="white"/>
<path d="M14.7348 41.75H13.0859V43.3072H14.7348V41.75Z" fill="#1A1A1A"/>
<path d="M21.2279 41.75H22.8767V46.4215H21.2279V47.8814H19.6821V46.4215H18.0332V43.3072H21.2279V41.75Z" fill="white"/>
<path d="M29.4731 41.75H31.1219V44.8644H32.7708V49.4386H31.1219V47.8814H29.4731V46.4215H27.8242V44.8644H29.4731V41.75Z" fill="white"/>
<path d="M50.7044 41.75H52.3533V43.3072H54.0021V46.4215H52.3533V44.8644H49.1586V50.9957H47.5098V43.3072H50.7044V41.75Z" fill="white"/>
<path d="M53.9985 41.75H52.3496V43.3072H53.9985V41.75Z" fill="#1A1A1A"/>
<path d="M8.24539 43.3086H3.29883V47.9801H8.24539V43.3086Z" fill="#1A1A1A"/>
<path d="M16.3871 43.3086H18.036V46.4229H19.6848V47.8828H21.2306V46.4229H22.8795V49.44H21.2306V50.9972H19.6848V49.44H18.036V47.8828H16.3871V46.4229H14.7383V44.8658H16.3871V43.3086Z" fill="#1A1A1A"/>
<path d="M26.1742 43.3086H24.5254V44.8658H26.1742V43.3086Z" fill="white"/>
<path d="M42.5605 44.8652H44.2094V46.4224H45.8583V47.8823H42.5605V44.8652Z" fill="white"/>
<path d="M49.1543 44.8652H52.349V46.4224H53.9978V47.8823H50.7001V49.4394H52.349V50.9966H49.1543V44.8652Z" fill="#1A1A1A"/>
<path d="M22.8774 46.4199H24.5262V49.437H26.1751V47.8798H27.8239V50.9941H21.2285V49.437H22.8774V46.4199Z" fill="white"/>
<path d="M34.418 46.4199H37.6126V47.8798H42.5592V49.437H45.8569V50.9941H40.9103V49.437H34.418V46.4199Z" fill="white"/>
<path d="M50.7012 47.8809H53.9989V50.9952H52.35V49.438H50.7012V47.8809Z" fill="white"/>
<path d="M18.036 49.4395H14.7383V50.9966H18.036V49.4395Z" fill="#1A1A1A"/>
<path d="M19.6821 49.4395H18.0332V50.9966H19.6821V49.4395Z" fill="white"/>
<path d="M31.1215 49.4395H29.4727V50.9966H31.1215V49.4395Z" fill="white"/>
<path d="M32.768 49.4395H31.1191V50.9966H32.768V49.4395Z" fill="#1A1A1A"/>
<path d="M34.4203 49.4395H32.7715V50.9966H34.4203V49.4395Z" fill="white"/>
<path d="M41.0134 49.4395H34.418V50.9966H41.0134V49.4395Z" fill="#1A1A1A"/>
</g>
<defs>
<clipPath id="clip0_417_7437">
<rect width="54" height="50" rx="3" fill="white"/>
</clipPath>
</defs>
</svg>
