<svg width="33" height="33" viewBox="0 0 33 33" fill="none" xmlns="http://www.w3.org/2000/svg">
<g clip-path="url(#clip0_417_7417)">
<ellipse cx="16.333" cy="15.9994" rx="14.3144" ry="14.3158" fill="white"/>
<path fill-rule="evenodd" clip-rule="evenodd" d="M24.3327 23.985H21.018V18.797C21.018 17.56 20.996 15.969 19.2951 15.969C17.5703 15.969 17.3073 17.317 17.3073 18.709V23.985H13.9956V13.317H17.1733V14.776H17.2193C17.6613 13.937 18.7432 13.052 20.356 13.052C23.7127 13.052 24.3327 15.261 24.3327 18.134V23.985ZM10.258 11.86C9.19311 11.86 8.33419 10.998 8.33419 9.937C8.33419 8.876 9.19311 8.014 10.258 8.014C11.3179 8.014 12.1788 8.876 12.1788 9.937C12.1788 10.998 11.3179 11.86 10.258 11.86ZM11.9158 23.985H8.59717V13.317H11.9158V23.985ZM16.3334 0C7.49727 0 0.334961 7.163 0.334961 16C0.334961 24.836 7.49727 32 16.3334 32C25.1696 32 32.3319 24.836 32.3319 16C32.3319 7.163 25.1696 0 16.3334 0Z" fill="#2E78B6"/>
</g>
<defs>
<clipPath id="clip0_417_7417">
<rect width="31.9969" height="32" fill="white" transform="translate(0.334961 0.00195312)"/>
</clipPath>
</defs>
</svg>
