<svg width="32" height="32" viewBox="0 0 32 32" fill="none" xmlns="http://www.w3.org/2000/svg">
<ellipse cx="16.0004" cy="16" rx="15.9985" ry="16" fill="#1DA1F2"/>
<g clip-path="url(#clip0_417_7413)">
<path d="M24.0255 12.2939C24.0378 12.4674 24.0378 12.6409 24.0378 12.8143C24.0378 18.1045 20.0118 24.2 12.6533 24.2C10.3862 24.2 8.28028 23.5433 6.50879 22.4036C6.83089 22.4407 7.14056 22.4531 7.47505 22.4531C9.34561 22.4531 11.0676 21.8213 12.4427 20.7434C10.6835 20.7062 9.20937 19.554 8.70145 17.9682C8.94923 18.0054 9.19698 18.0301 9.45715 18.0301C9.81639 18.0301 10.1757 17.9806 10.5101 17.8939C8.6767 17.5222 7.30159 15.9116 7.30159 13.9665V13.917C7.83425 14.2143 8.45371 14.4001 9.11023 14.4249C8.03246 13.7063 7.32638 12.4798 7.32638 11.0922C7.32638 10.3488 7.52455 9.66743 7.87143 9.07274C9.84114 11.501 12.8019 13.0868 16.1218 13.2603C16.0599 12.963 16.0227 12.6533 16.0227 12.3435C16.0227 10.1382 17.8066 8.3418 20.0241 8.3418C21.1762 8.3418 22.2167 8.82497 22.9477 9.6055C23.852 9.43206 24.7191 9.09753 25.4872 8.63914C25.1898 9.56835 24.5581 10.3489 23.7281 10.8444C24.5333 10.7577 25.3138 10.5347 26.0323 10.225C25.4873 11.0178 24.8059 11.724 24.0255 12.2939Z" fill="white"/>
</g>
<defs>
<clipPath id="clip0_417_7413">
<rect width="19.5235" height="19.5254" fill="white" transform="translate(6.50879 6.50781)"/>
</clipPath>
</defs>
</svg>
