<svg width="33" height="32" viewBox="0 0 33 32" fill="none" xmlns="http://www.w3.org/2000/svg">
<ellipse cx="16.6684" cy="16" rx="15.9985" ry="16" fill="#25D366"/>
<path d="M22.5361 9.46528C20.8971 7.85335 18.7144 6.9668 16.3948 6.9668C11.607 6.9668 7.71104 10.7894 7.71104 15.487C7.71104 16.9876 8.11003 18.4537 8.86888 19.747L7.63672 24.1606L12.2407 22.9747C13.5081 23.654 14.9358 24.011 16.3909 24.011H16.3948C21.1788 24.011 25.1608 20.1884 25.1608 15.4908C25.1608 13.2149 24.1751 11.0772 22.5361 9.46528ZM16.3948 22.5756C15.0962 22.5756 13.8249 22.234 12.7179 21.5892L12.4558 21.4357L9.72553 22.1381L10.4531 19.5244L10.281 19.2558C9.55733 18.1274 9.1779 16.8264 9.1779 15.487C9.1779 11.5838 12.4167 8.40601 16.3988 8.40601C18.3272 8.40601 20.1383 9.14289 21.4995 10.4823C22.8608 11.8218 23.6979 13.5987 23.6939 15.4908C23.6939 19.3978 20.373 22.5756 16.3948 22.5756ZM20.3534 17.2716C20.1383 17.1641 19.0704 16.6498 18.8709 16.5808C18.6714 16.5078 18.5267 16.4733 18.382 16.6882C18.2372 16.9031 17.8226 17.379 17.6935 17.5249C17.5683 17.6669 17.4393 17.6861 17.2241 17.5786C15.9489 16.953 15.1118 16.4618 14.2708 15.0456C14.0479 14.6695 14.4938 14.6963 14.9084 13.8827C14.9788 13.7407 14.9436 13.6179 14.8889 13.5104C14.8341 13.403 14.3999 12.3552 14.22 11.9292C14.044 11.5147 13.864 11.5723 13.731 11.5646C13.6059 11.5569 13.4611 11.5569 13.3164 11.5569C13.1717 11.5569 12.937 11.6107 12.7375 11.8218C12.538 12.0367 11.9786 12.551 11.9786 13.5987C11.9786 14.6465 12.757 15.6597 12.8627 15.8017C12.9722 15.9437 14.3921 18.0929 16.5709 19.0178C17.9478 19.6012 18.4876 19.6511 19.176 19.5513C19.5946 19.4899 20.459 19.037 20.639 18.5381C20.8189 18.0392 20.8189 17.6132 20.7641 17.5249C20.7133 17.4289 20.5686 17.3752 20.3534 17.2716Z" fill="white"/>
</svg>
