<svg width="43" height="43" viewBox="0 0 43 43" fill="none" xmlns="http://www.w3.org/2000/svg">
<g clip-path="url(#clip0_417_55339)">
<path d="M21 21.5L3.5 11V31L21 41.5V21.5Z" fill="#C6DDFF"/>
<path d="M26.4998 17.5L9.99976 7.5L15.4998 4L24.9998 9.5L31.9998 14L32.9998 21.5L26.9998 24L26.4998 17.5Z" fill="#C6DDFF" stroke="white"/>
<path d="M38.5633 10.1353L38.5633 10.1353L38.5607 10.1337L21.4489 0.0222027C21.4489 0.0221997 21.4489 0.0221963 21.4489 0.0221933C21.1733 -0.140725 20.8309 -0.140738 20.5553 0.0221933C20.5553 0.0221993 20.5553 0.0222056 20.5553 0.0222116L3.44374 10.1336C3.44366 10.1336 3.44357 10.1337 3.44349 10.1337C3.17548 10.2911 3.01055 10.5785 3.01011 10.8894V10.8895V31.1126C3.01011 31.1126 3.01011 31.1126 3.01011 31.1126C3.01001 31.4231 3.17395 31.7104 3.44111 31.8684L3.44114 31.8684L20.553 41.98L20.5528 41.9803L20.5602 41.9838C20.5819 41.9944 20.6042 42.0038 20.6267 42.0119C20.6496 42.0228 20.6723 42.0325 20.6964 42.0414C20.8905 42.1222 21.109 42.1222 21.3032 42.0414C21.3273 42.0325 21.3499 42.0228 21.3728 42.0119C21.3954 42.0037 21.4176 41.9944 21.4394 41.9838L21.4395 41.9841L21.4466 41.98L38.5584 31.8684L38.5584 31.8684C38.8256 31.7104 38.9895 31.423 38.9894 31.1126V10.8895C38.9894 10.8685 38.9863 10.8499 38.9843 10.8383L38.9835 10.8336C38.9816 10.8232 38.9809 10.8192 38.9806 10.815C38.9787 10.7869 38.9739 10.7594 38.9703 10.7376C38.9552 10.6434 38.9248 10.5523 38.8805 10.4679C38.8762 10.4511 38.8685 10.4382 38.8621 10.4296C38.857 10.423 38.8518 10.4178 38.8479 10.4141C38.7979 10.3386 38.7364 10.2715 38.6655 10.2152C38.6472 10.1994 38.6281 10.1843 38.6082 10.1702L38.5503 10.2517L38.6089 10.1707C38.6064 10.1689 38.6042 10.167 38.5983 10.162L38.5952 10.1593C38.5883 10.1535 38.5771 10.144 38.5633 10.1353ZM38.8387 10.4064C38.8381 10.406 38.8386 10.4064 38.8394 10.407L38.8387 10.4064ZM23.0327 7.54778L23.0326 7.54769C23.0224 7.54138 23.0119 7.53519 23.0012 7.52916C23.0009 7.52896 23.0005 7.52877 23.0002 7.52857L17.1517 4.07211L20.9998 1.79805L36.3859 10.8896L32.5378 13.1637L25.3364 8.90802C25.3364 8.90802 25.3364 8.90801 25.3364 8.90801C24.919 8.66125 24.3806 8.79962 24.1338 9.217C23.8871 9.6344 24.0254 10.1728 24.4428 10.4196L24.4428 10.4196L30.8121 14.1837L26.964 16.4577L11.5771 7.36612L15.4252 5.09121L22.1068 9.0393C22.1071 9.0395 22.1074 9.0397 22.1077 9.0399C22.5195 9.29475 23.06 9.16802 23.3155 8.75653L23.2305 8.70378L23.3155 8.75652C23.5712 8.34462 23.4445 7.80345 23.0327 7.54778ZM6.07401 13.2002L6.07403 13.2002L20.122 21.5023V34.2239C20.122 34.7087 20.515 35.1017 20.9998 35.1017C21.4845 35.1017 21.8776 34.7087 21.8776 34.2239V21.5023L26.0854 19.0156V24.4779C26.0853 24.9626 26.4783 25.3558 26.963 25.3559C27.1203 25.3559 27.2746 25.3138 27.4101 25.2337L32.9838 21.9428L32.9839 21.9427C33.251 21.7848 33.415 21.4974 33.4149 21.187C33.4149 21.187 33.4149 21.187 33.4149 21.1869V14.6847L37.2338 12.4275V30.6114L21.8776 39.6854V37.3351C21.8776 36.8503 21.4845 36.4573 20.9998 36.4573C20.515 36.4573 20.122 36.8503 20.122 37.3351V39.6854L4.76573 30.6114V11.3907L9.8514 8.38524L25.2367 17.4776L20.9998 19.9811L6.96761 11.6886C6.9676 11.6886 6.9676 11.6886 6.96759 11.6886C6.5502 11.4418 6.0118 11.5802 5.76503 11.9976C5.51826 12.415 5.65663 12.9534 6.07401 13.2002ZM27.8411 17.978L31.6592 15.7215V20.6835L27.8411 22.9399V17.978Z" fill="#002356" stroke="#002356" stroke-width="0.2"/>
<path d="M7.00035 25.668C6.5708 25.668 6.22253 26.0162 6.22253 26.4458V29.557C6.22253 29.9866 6.5708 30.3348 7.00035 30.3348C7.42989 30.3348 7.77816 29.9866 7.77816 29.557V26.4458C7.77816 26.0162 7.42989 25.668 7.00035 25.668Z" fill="#002356"/>
<path d="M10.1122 27.2246C9.68262 27.2246 9.33435 27.5729 9.33435 28.0024V31.1137C9.33435 31.5432 9.68262 31.8915 10.1122 31.8915C10.5417 31.8915 10.89 31.5432 10.89 31.1137V28.0024C10.89 27.5729 10.5417 27.2246 10.1122 27.2246Z" fill="#002356"/>
</g>
<defs>
<clipPath id="clip0_417_55339">
<rect width="42.002" height="42.002" fill="white"/>
</clipPath>
</defs>
</svg>
