<svg width="38" height="38" viewBox="0 0 38 38" fill="none" xmlns="http://www.w3.org/2000/svg">
<g clip-path="url(#clip0_417_55371)">
<path d="M32 4L13.5 36.5L7 36L5 34.5V5.5L6 2.5L10 0.5L30 1.5L32 4Z" fill="#C6DDFF"/>
<path d="M32.1959 30.1129L25.0396 36.8833C24.2784 37.6034 23.2821 38 22.2342 38H8.60938C6.35854 38 4.52734 36.1688 4.52734 33.918V4.08203C4.52734 1.8312 6.35854 0 8.60938 0H29.3906C31.6415 0 33.4727 1.8312 33.4727 4.08203V27.1476C33.4727 28.2645 33.0073 29.3454 32.1959 30.1129ZM30.0334 29.0938H24.4922C24.2876 29.0938 24.1211 29.2602 24.1211 29.4648V34.6872L30.0334 29.0938ZM29.3906 2.22656H8.60938C7.58627 2.22656 6.75391 3.05893 6.75391 4.08203V33.918C6.75391 34.9411 7.58627 35.7734 8.60938 35.7734H21.8945V29.4648C21.8945 28.0325 23.0598 26.8672 24.4922 26.8672H31.2461V4.08203C31.2461 3.05893 30.4137 2.22656 29.3906 2.22656Z" fill="#002356"/>
<path d="M26.9414 23.1562H10.6133C9.99845 23.1562 9.5 22.6578 9.5 22.043C9.5 21.4281 9.99845 20.9297 10.6133 20.9297H26.9414C27.5562 20.9297 28.0547 21.4281 28.0547 22.043C28.0547 22.6578 27.5562 23.1562 26.9414 23.1562Z" fill="#002356"/>
<path d="M26.9414 17.2188H10.6133C9.99845 17.2188 9.5 16.7203 9.5 16.1055C9.5 15.4906 9.99845 14.9922 10.6133 14.9922H26.9414C27.5562 14.9922 28.0547 15.4906 28.0547 16.1055C28.0547 16.7203 27.5562 17.2188 26.9414 17.2188Z" fill="#002356"/>
<path d="M16.0105 11.2812H10.6133C9.99845 11.2812 9.5 10.7828 9.5 10.168C9.5 9.55314 9.99845 9.05469 10.6133 9.05469H16.0105C16.6253 9.05469 17.1238 9.55314 17.1238 10.168C17.1238 10.7828 16.6253 11.2812 16.0105 11.2812Z" fill="#002356"/>
</g>
<defs>
<clipPath id="clip0_417_55371">
<rect width="38" height="38" fill="white" transform="matrix(1 0 0 -1 0 38)"/>
</clipPath>
</defs>
</svg>
