<svg width="29" height="30" fill="none" xmlns="http://www.w3.org/2000/svg"><path d="M27.128 2.834c-1.032 0-1.87.84-1.87 1.871v5.502a1.97 1.97 0 0 1-1.096 1.773c-.274.137-.58.209-.886.209H20.01l-.26-1.039a3.75 3.75 0 0 0 1.643-2.235h.122c1.032 0 1.871-.84 1.871-1.871a1.86 1.86 0 0 0-.6-1.365l1.23-2.051-1.3-.867.876-.875-.94-.876a3.65 3.65 0 0 0-2.488-.982c-.029 0-2.854 0-4.625-.028a3.409 3.409 0 0 0-2.724 1.337 3.291 3.291 0 0 0-.654 1.964c0 .66.08 1.318.24 1.958l.161.64a1.85 1.85 0 0 0-.401 1.145c0 1.032.839 1.87 1.87 1.87h.123c.244.94.84 1.735 1.643 2.236l-.28 1.121-2.442.61a4.292 4.292 0 0 0-2.318 1.495v-.316a.936.936 0 0 0-.935-.936H3.273a.936.936 0 0 0-.935.936v2.806c0 .516.42.936.935.936h2.05l.647 1.293a1.047 1.047 0 0 0 1.98-.468v-.825h1.872v2.806a2.81 2.81 0 0 0 2.806 2.807H14.5v4.21c0 .773.63 1.403 1.403 1.403h8.888c.515 0 .935-.42.935-.936v-9.355a.936.936 0 0 0-.936-.935v-.936a.943.943 0 0 0-.018-.179c.81-.21 1.568-.6 2.211-1.15l.039-.034a5.657 5.657 0 0 0 1.978-4.3V4.704c0-1.032-.839-1.87-1.87-1.87zm0 .936c.516 0 .936.42.936.935v.936h-1.871v-.936c0-.516.42-.935.935-.935zm-6.68 9.354-.612 2.454-1.364-1.09 1.366-1.364h.61zm-2.207 8.42c0 .516-.42.935-.935.935h-.936v-1.87h.936c.516 0 .935.419.935.935zm.675-.936h4.003v1.871h-4.003c.161-.276.26-.593.26-.935 0-.343-.099-.66-.26-.936zm-1.14-5.483 1.004.806h-2.012l1.008-.806zm3.74-7.146V6.11a.936.936 0 0 1 0 1.87zm-8.42-.935c0-.516.42-.936.935-.936V7.98a.936.936 0 0 1-.935-.935zm1.052-1.871h-.117c-.231 0-.45.047-.656.125l-.066-.266a7.146 7.146 0 0 1-.213-1.73c0-.503.166-1.002.468-1.403a2.416 2.416 0 0 1 1.961-.964c1.768.028 4.578.028 4.637.028h.001c.69.002 1.347.262 1.85.732l.232.215-.996.997 1.507 1.004-.793 1.322a1.86 1.86 0 0 0-.448-.06h-.117c-.1-.296-.26-.57-.488-.799a2.05 2.05 0 0 0-1.46-.604h-3.354a2.05 2.05 0 0 0-1.46.604 2.05 2.05 0 0 0-.488.799zm.819 2.806V5.834c0-.302.117-.585.33-.798.214-.214.498-.331.8-.331h3.354c.301 0 .585.117.798.33.213.214.33.498.33.8v2.144a2.81 2.81 0 0 1-2.806 2.807 2.81 2.81 0 0 1-2.806-2.807zm2.806 3.742c.388 0 .761-.06 1.113-.169l.24.962-1.353 1.352-1.353-1.353.24-.96c.352.109.726.168 1.113.168zm-2.014 1.453 1.314 1.315-1.361 1.09-.563-2.252.61-.153zm-8.744 3.692v1.76c0 .104-.163.142-.209.05l-.905-1.81H3.273V14.06h6.549l.002 2.806H7.015zm3.742 3.742v-3.56a3.362 3.362 0 0 1 2.545-3.26l.94-.234.692 2.77a1.396 1.396 0 0 0-.435 1.01v2.339h-.935v-2.807h-.936v2.807c0 .516.42.935.936.935h1.87v1.871h-2.806a1.873 1.873 0 0 1-1.87-1.87zm14.033 7.484h-8.888a.468.468 0 0 1-.467-.468v-4.21h8.419v-3.741h-8.42V18.65c.148.053.304.086.468.086h8.888v9.355zm-.936-11.226v.936h-7.952a.468.468 0 0 1 0-.936h7.952zm2.558-2.074-.038.033a4.592 4.592 0 0 1-2.988 1.106h-2.675l.701-2.807h1.863c.45 0 .902-.106 1.305-.307a2.9 2.9 0 0 0 1.612-2.61V6.576h1.871v4.626a4.72 4.72 0 0 1-1.65 3.59z" fill="#172A52"/><path d="M16.371 26.22h7.484v.936h-7.484v-.935zM16.371 24.35h1.871v.935h-1.87v-.935zM19.178 24.35h4.677v.935h-4.677v-.935zM1.871 3.77h1.871v.935h-1.87V3.77zM4.678 3.77H8.42v.935H4.678V3.77zM1.871 5.64H8.42v.936H1.871v-.935zM1.871 7.512h2.807v.935H1.87v-.935zM7.484 7.512h.936v.935h-.936v-.935zM5.613 7.512h.936v.935h-.936v-.935z" fill="#172A52"/><path d="M6.438 11.611a1.047 1.047 0 0 0 1.98-.468v-.825h.937c.516 0 .935-.42.935-.936V2.834a.936.936 0 0 0-.935-.936H.935A.936.936 0 0 0 0 2.834v6.548c0 .516.42.936.935.936h4.857l.646 1.293zM.935 2.834h8.42v6.548H7.485v1.76c0 .104-.164.142-.21.05l-.904-1.81H.935V2.834zM4.209 14.994h.935v.936H4.21v-.936zM6.08 14.994h.936v.936H6.08v-.936zM7.951 14.994h.936v.936H7.95v-.936z" fill="#172A52"/></svg>