<svg width="34" height="34" fill="none" xmlns="http://www.w3.org/2000/svg"><path d="M23 7.854h7.357c.355 0 .643.33.643.735v19.837H3V8.59c0-.406.288-.735.644-.735H11" stroke="#172A52" stroke-width="1.2" stroke-miterlimit="10" stroke-linecap="round" stroke-linejoin="round"/><path d="M29 19.727v8.703H5V10.143h6.341M22.658 10.143H29v7.178M18.057 33.001h13.227c.948 0 1.716-.877 1.716-1.96V28.43H1v2.61c0 1.084.768 1.961 1.716 1.961h13.236" stroke="#172A52" stroke-width="1.2" stroke-miterlimit="10" stroke-linecap="round" stroke-linejoin="round"/><path d="M19 30.715h-4c-1.105 0-2-1.023-2-2.285h8c0 1.262-.895 2.285-2 2.285zM10 17H8v6.858h2V17zM14 16.992h-2v4.58h2v-4.58zM9 17.005v-1.148M9 23.857V25M18 19.283h-2v4.572h2v-4.572zM17 23.857V25M13 21.57v1.143M13 16.992v-1.135M22 16.992h-2v4.58h2v-4.58zM21 21.57v1.143M21 16.992v-1.135M26 14.713h-2v9.143h2v-9.143zM25 14.713V13.57M25 23.857V25M17 19.286v-1.143M8 12.43h2M17 10.142c1.105 0 2-1.023 2-2.286 0-1.262-.895-2.286-2-2.286s-2 1.024-2 2.286c0 1.263.895 2.286 2 2.286z" stroke="#172A52" stroke-width="1.2" stroke-miterlimit="10" stroke-linecap="round" stroke-linejoin="round"/><path d="M16.999 10.142c-1.474 0-2.897-.611-4.006-1.72l-.329-.328a.346.346 0 0 1 0-.475l.329-.328c1.109-1.11 2.532-1.72 4.006-1.72 1.473 0 2.896.61 4.005 1.72l.329.328a.346.346 0 0 1 0 .475l-.329.328c-1.109 1.109-2.532 1.72-4.005 1.72z" stroke="#172A52" stroke-width="1.2" stroke-miterlimit="10" stroke-linecap="round" stroke-linejoin="round"/><path d="M21.516 3.342C22.44 4.548 23 6.128 23 7.857c0 3.788-2.686 6.858-6 6.858s-6-3.07-6-6.858C11 4.07 13.686 1 17 1c1.041 0 2.02.303 2.873.836" stroke="#172A52" stroke-width="1.2" stroke-miterlimit="10" stroke-linecap="round" stroke-linejoin="round"/></svg>