<svg width="30" height="28" fill="none" xmlns="http://www.w3.org/2000/svg"><path d="M9 23.277a2.414 2.414 0 0 1-1.591-.58c-.422-.371-.659-.875-.659-1.4v-7.925c0-.526.237-1.03.659-1.401.422-.372.994-.58 1.591-.58s1.169.208 1.591.58c.422.371.659.875.659 1.4v7.925c0 .526-.237 1.03-.659 1.401-.422.372-.994.58-1.591.58zm0-10.566c-.199 0-.39.07-.53.194a.623.623 0 0 0-.22.467v7.924c0 .175.079.343.22.467.14.124.331.194.53.194s.39-.07.53-.194a.623.623 0 0 0 .22-.467v-7.924a.623.623 0 0 0-.22-.467.804.804 0 0 0-.53-.194z" fill="#172A52"/><path d="M7.5 21.958H5.25c-1.392 0-2.728-.487-3.712-1.354C.553 19.737 0 18.561 0 17.336c0-1.226.553-2.402 1.538-3.27.984-.866 2.32-1.353 3.712-1.353H7.5c.199 0 .39.07.53.193.141.124.22.292.22.467v7.925a.623.623 0 0 1-.22.467.805.805 0 0 1-.53.193zm-2.25-7.924c-.995 0-1.948.348-2.652.967-.703.619-1.098 1.459-1.098 2.335 0 .875.395 1.715 1.098 2.334.704.62 1.657.967 2.652.967h1.5v-6.603h-1.5zM21 22.617a2.414 2.414 0 0 1-1.591-.58c-.422-.372-.659-.876-.659-1.401v-7.264c0-.526.237-1.03.659-1.401.422-.372.994-.58 1.591-.58s1.169.208 1.591.58c.422.371.659.875.659 1.4v7.265c0 .525-.237 1.03-.659 1.4-.422.372-.994.58-1.591.58zm0-9.906c-.199 0-.39.07-.53.194a.623.623 0 0 0-.22.467v7.264c0 .175.079.343.22.467.14.124.331.193.53.193s.39-.07.53-.193a.623.623 0 0 0 .22-.467v-7.264a.623.623 0 0 0-.22-.467.804.804 0 0 0-.53-.194z" fill="#172A52"/><path d="M24.75 21.628H22.5a.805.805 0 0 1-.53-.193.623.623 0 0 1-.22-.467v-7.925c0-.175.079-.343.22-.467a.805.805 0 0 1 .53-.193h2.25c1.392 0 2.728.487 3.712 1.354.985.867 1.538 2.042 1.538 3.268s-.553 2.402-1.538 3.27c-.984.866-2.32 1.353-3.712 1.353zm-1.5-1.32h1.5c.995 0 1.948-.349 2.652-.968.703-.619 1.098-1.459 1.098-2.335 0-.875-.395-1.715-1.098-2.334-.704-.62-1.657-.967-2.652-.967h-1.5v6.603z" fill="#172A52"/><path d="M7.125 14.034a.804.804 0 0 1-.53-.194.623.623 0 0 1-.22-.467v-2.476c0-2.014.909-3.946 2.526-5.37C10.52 4.103 12.713 3.303 15 3.303c2.288 0 4.481.8 6.099 2.224 1.617 1.424 2.526 3.356 2.526 5.37v2.146a.623.623 0 0 1-.22.467.805.805 0 0 1-.53.194.805.805 0 0 1-.53-.194.623.623 0 0 1-.22-.467v-2.146c0-1.664-.75-3.26-2.087-4.436C18.702 5.284 16.89 4.623 15 4.623c-1.89 0-3.702.661-5.038 1.838-1.336 1.176-2.087 2.772-2.087 4.436v2.476a.623.623 0 0 1-.22.467.804.804 0 0 1-.53.194z" fill="#172A52"/><path d="M3.375 14.396a.805.805 0 0 1-.53-.193.623.623 0 0 1-.22-.467v-2.84c0-2.89 1.304-5.661 3.625-7.705C8.57 1.148 11.718 0 15 0s6.43 1.148 8.75 3.191c2.321 2.044 3.625 4.815 3.625 7.705v2.51a.623.623 0 0 1-.22.466.805.805 0 0 1-.53.194.805.805 0 0 1-.53-.194.623.623 0 0 1-.22-.466v-2.51c0-2.54-1.146-4.975-3.185-6.77C20.65 2.33 17.884 1.32 15 1.32c-2.884 0-5.65 1.009-7.69 2.804-2.04 1.796-3.185 4.232-3.185 6.771v2.84a.623.623 0 0 1-.22.467.805.805 0 0 1-.53.193zM17.625 27.9h-1.5a2.817 2.817 0 0 1-1.856-.677c-.492-.433-.769-1.021-.769-1.634s.277-1.201.769-1.635a2.817 2.817 0 0 1 1.856-.677h1.5c.696 0 1.364.244 1.856.677.492.434.769 1.022.769 1.635s-.277 1.2-.769 1.634a2.817 2.817 0 0 1-1.856.677zm-1.5-3.302c-.298 0-.585.104-.796.29a.935.935 0 0 0-.329.7c0 .263.118.515.33.701.21.186.497.29.795.29h1.5c.298 0 .584-.104.796-.29a.935.935 0 0 0 .329-.7.935.935 0 0 0-.33-.7 1.207 1.207 0 0 0-.795-.29h-1.5z" fill="#172A52"/><path d="M19.5 26.25a.808.808 0 0 1-.517-.182.63.63 0 0 1-.232-.445.613.613 0 0 1 .18-.464.787.787 0 0 1 .494-.226l1.069-.095a2.367 2.367 0 0 0 1.44-.635c.373-.362.582-.832.585-1.32l.013-1.505a.639.639 0 0 1 .228-.462.82.82 0 0 1 .815-.141c.09.034.173.083.242.145a.66.66 0 0 1 .16.215c.038.08.056.167.055.253l-.013 1.504c-.005.815-.353 1.599-.977 2.201-.623.602-1.477.98-2.398 1.06l-1.069.097a.782.782 0 0 1-.075 0z" fill="#172A52"/></svg>