<svg width="34" height="31" fill="none" xmlns="http://www.w3.org/2000/svg"><path d="M27.442 15.463c3.165 0 5.742-2.397 5.742-5.34 0-2.944-2.577-5.34-5.742-5.34-2.225 0-4.156 1.189-5.109 2.912h-2.72V1.87c0-.534-.47-.97-1.045-.97H7.084c-.574 0-1.044.436-1.044.97v5.826H3.43c-.861 0-1.566.655-1.566 1.456v16.992c-.574 0-1.044.437-1.044.971 0 .722.21 1.432.614 2.051.724 1.129 2.062 1.833 3.471 1.833h18.968c1.416 0 2.747-.704 3.478-1.833a3.795 3.795 0 0 0 .613-2.051c0-.534-.47-.971-1.044-.971V15.438c.17.012.346.025.522.025zm0-9.71c2.59 0 4.698 1.96 4.698 4.37 0 2.409-2.107 4.369-4.698 4.369-2.59 0-4.698-1.96-4.698-4.37 0-2.409 2.108-4.369 4.698-4.369zm-14.374 4.855 1.729 2.415c.222.31.6.498.998.498.666 0 1.2-.504 1.2-1.117v-1.796h4.725c.072.752.313 1.456.685 2.081l-4.998 4.618-4.665-1.93-7.746 5.887V10.608h8.072zm10.74 3.64-5.873 5.487-4.658-1.924-8.28 6.069v-1.366l7.908-6.008 4.73 1.954 5.37-4.958c.242.28.51.528.803.747zm-15.68 8.576V24.2H6.25l1.88-1.377zm1.044-.765 2.088-1.53v3.672H9.172V22.06zm3.132-2.3 1.123-.82.965.401v4.861h-2.088V19.76zm3.132.012 2.088.862V24.2h-2.088v-4.43zm3.132.747 2.088-1.948V24.2h-2.088v-3.683zm3.132-2.925 2.088-1.948V24.2H21.7v-6.608zm.222-8.927a4.85 4.85 0 0 0-.195.971h-2.115v-.971h2.31zm-3.354-6.797v7.768h-2.61v2.767c0 .134-.209.188-.287.079L13.63 9.637H7.084V1.869h11.484zm7.89 26.799c-.542.837-1.528 1.359-2.585 1.359H4.905c-1.05 0-2.042-.522-2.584-1.36a2.933 2.933 0 0 1-.457-1.553H26.92c0 .546-.163 1.086-.463 1.553zm-.582-2.525H2.908V9.151c0-.267.235-.485.522-.485h2.61v.971H3.952v15.535h20.88V14.874a6.05 6.05 0 0 0 1.044.382v10.887z" fill="#172A52"/></svg>