<svg width="30" height="28" fill="none" xmlns="http://www.w3.org/2000/svg"><path d="M24.677 13.5C27.611 13.5 30 11.278 30 8.55S27.61 3.6 24.677 3.6c-2.062 0-3.852 1.103-4.735 2.7h-2.523V.9c0-.495-.435-.9-.967-.9H5.806c-.532 0-.967.405-.967.9v5.4h-2.42c-.798 0-1.451.608-1.451 1.35V23.4c-.533 0-.968.406-.968.9 0 .67.194 1.328.569 1.902.67 1.046 1.91 1.699 3.217 1.699H21.37c1.312 0 2.546-.653 3.224-1.7a3.518 3.518 0 0 0 .568-1.9c0-.495-.435-.9-.968-.9v-9.923c.158.011.321.022.484.022zm0-9c2.402 0 4.355 1.817 4.355 4.05 0 2.233-1.953 4.05-4.355 4.05-2.4 0-4.354-1.817-4.354-4.05 0-2.233 1.953-4.05 4.354-4.05zM11.353 9l1.603 2.239c.205.287.556.461.925.461.617 0 1.113-.467 1.113-1.035V9h4.379c.066.698.29 1.35.635 1.93l-4.633 4.28-4.325-1.788-7.179 5.456V9h7.482zm9.955 3.375-5.443 5.085-4.319-1.783-7.675 5.625v-1.265l7.33-5.57 4.386 1.812 4.977-4.596c.224.26.472.49.744.692zM6.774 20.324V21.6H5.032l1.742-1.276zm.968-.71 1.935-1.417v3.404H7.742v-1.986zm2.903-2.131 1.04-.76.896.372V21.6h-1.936v-4.118zm2.903.011 1.936.799V21.6h-1.936v-4.107zm2.904.692 1.935-1.806v5.22h-1.935v-3.414zm2.903-2.711 1.935-1.806V21.6h-1.935v-6.125zM19.56 7.2c-.091.293-.152.59-.182.9h-1.96v-.9h2.142zM16.45.9v7.2h-2.419v2.565c0 .124-.193.175-.266.073L11.873 8.1H5.806V.9h10.646zm7.313 24.84c-.502.777-1.415 1.26-2.395 1.26H3.786c-.974 0-1.893-.483-2.395-1.26a2.718 2.718 0 0 1-.423-1.44h23.226c0 .507-.152 1.008-.43 1.44zm-.538-2.34H1.936V7.65c0-.247.217-.45.483-.45h2.42v.9H2.903v14.4h19.355v-9.545c.309.146.63.264.968.354v10.092z" fill="#172A52"/><path d="M6.773 1.8h2.904v.9H6.773v-.9zM10.645 1.8h4.838v.9h-4.838v-.9zM6.773 3.6h8.71v.9h-8.71v-.9zM8.709 6.3h.968v.9h-.968v-.9zM10.645 6.3h.967v.9h-.967v-.9zM12.58 6.3h.968v.9h-.968v-.9zM18.387 25.201h.968v.9h-.968v-.9zM16.451 25.201h.968v.9h-.968v-.9zM20.322 25.201h.968v.9h-.968v-.9zM4.838 9.9h5.806v.9H4.838v-.9zM4.838 11.701h3.87v.9h-3.87v-.9zM4.838 13.5h1.935v.9H4.838v-.9z" fill="#172A52"/></svg>