<svg width="32" height="32" viewBox="0 0 32 32" fill="none" xmlns="http://www.w3.org/2000/svg">
<path d="M21.6253 7.42773H28.5217C28.8549 7.42773 29.1253 7.7368 29.1253 8.11761V26.7139H2.875V8.11761C2.875 7.7368 3.14542 7.42773 3.47862 7.42773H10.375" stroke="#172A52" stroke-miterlimit="10" stroke-linecap="round" stroke-linejoin="round"/>
<path d="M27.2494 18.5553V26.7138H4.75V9.57031H10.6951" stroke="#172A52" stroke-miterlimit="10" stroke-linecap="round" stroke-linejoin="round"/>
<path d="M21.3047 9.57031H27.2498V16.3001" stroke="#172A52" stroke-miterlimit="10" stroke-linecap="round" stroke-linejoin="round"/>
<path d="M16.9911 31.0004H29.3913C30.2799 31.0004 31 30.178 31 29.1625V26.7148H1V29.1625C1 30.178 1.72012 31.0004 2.60865 31.0004H15.0179" stroke="#172A52" stroke-miterlimit="10" stroke-linecap="round" stroke-linejoin="round"/>
<path d="M17.875 28.8577H14.125C13.0895 28.8577 12.25 27.8983 12.25 26.7148H19.7499C19.75 27.8983 18.9105 28.8577 17.875 28.8577Z" stroke="#172A52" stroke-miterlimit="10" stroke-linecap="round" stroke-linejoin="round"/>
<path d="M9.43747 16H7.5625V22.4288H9.43747V16Z" stroke="#172A52" stroke-miterlimit="10" stroke-linecap="round" stroke-linejoin="round"/>
<path d="M13.1875 15.9922H11.3125V20.2863H13.1875V15.9922Z" stroke="#172A52" stroke-miterlimit="10" stroke-linecap="round" stroke-linejoin="round"/>
<path d="M8.5 16.0033V14.9277" stroke="#172A52" stroke-miterlimit="10" stroke-linecap="round" stroke-linejoin="round"/>
<path d="M8.5 22.4297V23.5011" stroke="#172A52" stroke-miterlimit="10" stroke-linecap="round" stroke-linejoin="round"/>
<path d="M16.9375 18.1426H15.0625V22.4284H16.9375V18.1426Z" stroke="#172A52" stroke-miterlimit="10" stroke-linecap="round" stroke-linejoin="round"/>
<path d="M16 22.4297V23.5011" stroke="#172A52" stroke-miterlimit="10" stroke-linecap="round" stroke-linejoin="round"/>
<path d="M12.25 20.2852V21.3567" stroke="#172A52" stroke-miterlimit="10" stroke-linecap="round" stroke-linejoin="round"/>
<path d="M12.25 15.991V14.9277" stroke="#172A52" stroke-miterlimit="10" stroke-linecap="round" stroke-linejoin="round"/>
<path d="M20.6875 15.9922H18.8125V20.2863H20.6875V15.9922Z" stroke="#172A52" stroke-miterlimit="10" stroke-linecap="round" stroke-linejoin="round"/>
<path d="M19.75 20.2852V21.3567" stroke="#172A52" stroke-miterlimit="10" stroke-linecap="round" stroke-linejoin="round"/>
<path d="M19.75 15.991V14.9277" stroke="#172A52" stroke-miterlimit="10" stroke-linecap="round" stroke-linejoin="round"/>
<path d="M24.4375 13.8574H22.5625V22.4291H24.4375V13.8574Z" stroke="#172A52" stroke-miterlimit="10" stroke-linecap="round" stroke-linejoin="round"/>
<path d="M23.5 13.8567V12.7852" stroke="#172A52" stroke-miterlimit="10" stroke-linecap="round" stroke-linejoin="round"/>
<path d="M23.5 22.4297V23.5011" stroke="#172A52" stroke-miterlimit="10" stroke-linecap="round" stroke-linejoin="round"/>
<path d="M16 18.1439V17.0723" stroke="#172A52" stroke-miterlimit="10" stroke-linecap="round" stroke-linejoin="round"/>
<path d="M7.5625 11.7148H9.43747" stroke="#172A52" stroke-miterlimit="10" stroke-linecap="round" stroke-linejoin="round"/>
<path d="M16 9.57095C17.0355 9.57095 17.8749 8.61154 17.8749 7.42805C17.8749 6.24456 17.0355 5.28516 16 5.28516C14.9645 5.28516 14.125 6.24456 14.125 7.42805C14.125 8.61154 14.9645 9.57095 16 9.57095Z" stroke="#172A52" stroke-miterlimit="10" stroke-linecap="round" stroke-linejoin="round"/>
<path d="M15.9991 9.57102C14.6178 9.57102 13.2833 8.99794 12.2436 7.95829L11.936 7.65061C11.8182 7.53285 11.8182 7.3234 11.936 7.20557L12.2436 6.89788C13.2833 5.85824 14.6178 5.28516 15.9991 5.28516C17.3805 5.28516 18.715 5.85824 19.7546 6.89788L20.0623 7.20557C20.1801 7.32333 20.1801 7.53278 20.0623 7.65061L19.7546 7.95829C18.715 8.99801 17.3805 9.57102 15.9991 9.57102Z" stroke="#172A52" stroke-miterlimit="10" stroke-linecap="round" stroke-linejoin="round"/>
<path d="M20.2334 3.19519C21.1002 4.3259 21.6253 5.80706 21.6253 7.42828C21.6253 10.9791 19.107 13.8572 16.0002 13.8572C12.8933 13.8572 10.375 10.9791 10.375 7.42828C10.375 3.87817 12.8933 1 16.0002 1C16.9762 1 17.8937 1.28423 18.6935 1.7837" stroke="#172A52" stroke-miterlimit="10" stroke-linecap="round" stroke-linejoin="round"/>
</svg>
