<svg width="32" height="32" fill="none" xmlns="http://www.w3.org/2000/svg"><path d="m7.7 11.047-.856-.9a1.65 1.65 0 0 0-2.412 0l-1.484 1.56c-2.597 2.728-2.597 7.151 0 9.879l7.014 7.37c.164.172.335.333.51.483" stroke="#172A52" stroke-width="1.2" stroke-miterlimit="10" stroke-linecap="round" stroke-linejoin="round"/><path d="m9.195 12.617.409.43c.665.7.665 1.834 0 2.534l-.854.897a2.009 2.009 0 0 0 0 2.742l3.466 3.642c.72.757 1.888.757 2.609 0l.855-.898c.666-.7 1.746-.7 2.412 0l2.759 2.899c.666.7.666 1.834 0 2.534l-1.484 1.56c-1.912 2.008-4.7 2.537-7.074 1.587M8.81 16.413 3.639 10.98M20.058 28.23l-5.171-5.433M28.88 1h.284c1.013 0 1.835.864 1.835 1.929v10.655c0 1.065-.822 1.929-1.835 1.929H25a.833.833 0 0 0-.454.135l-4.268 2.776c-.334.217-.765-.035-.765-.448v-2.094a.36.36 0 0 0-.35-.37H14.05c-1.013 0-1.835-.863-1.835-1.928V2.93c0-1.065.821-1.929 1.835-1.929h12.717" stroke="#172A52" stroke-width="1.2" stroke-miterlimit="10" stroke-linecap="round" stroke-linejoin="round"/><path d="M18.158 6.873c0 .726-.56 1.314-1.25 1.314-.343 0-1.58.006-1.58.006V5.559h1.58c.69 0 1.25.588 1.25 1.314z" stroke="#172A52" stroke-width="1.2" stroke-miterlimit="10" stroke-linecap="round" stroke-linejoin="round"/><path d="M18.646 9.725c0 .849-.655 1.537-1.463 1.537-.4 0-1.855.007-1.855.007V8.188h1.855c.808 0 1.463.688 1.463 1.537zM25.031 5.559l1.737 2.794 1.722-2.78M26.762 11.269l.008-2.917M19.95 5.559v3.93c0 .669.315 1.12.852 1.48.262.176.592.3 1.002.301.356 0 .653-.086.898-.216.626-.33 1.025-.834 1.025-1.57V5.56" stroke="#172A52" stroke-width="1.2" stroke-miterlimit="10" stroke-linecap="round" stroke-linejoin="round"/></svg>