<svg width="56" height="16" fill="none" xmlns="http://www.w3.org/2000/svg"><circle cx="8" cy="8" r="6.75" fill="#fff" stroke="#002356" stroke-width="1.5"/><circle cx="8" cy="8" fill="#C6DDFF" r="4.125"/><path d="M8 12.125c.75 0 4.125-.375 4.125-4.125h-8.25c0 3.75 3.375 4.125 4.125 4.125z" fill="#FCA"/><circle cx="28" cy="8" r="6.75" fill="#fff" stroke="#002356" stroke-width="1.5"/><circle cx="28" cy="8" fill="#C6DDFF" r="4.125"/><path d="M28 12.125c.75 0 4.125-.375 4.125-4.125h-8.25c0 3.75 3.375 4.125 4.125 4.125z" fill="#FCA"/><circle cx="48" cy="8" r="6.75" fill="#fff" stroke="#002356" stroke-width="1.5"/><circle cx="48" cy="8" fill="#C6DDFF" r="4.125"/><path d="M48 12.125c.75 0 4.125-.375 4.125-4.125h-8.25c0 3.75 3.375 4.125 4.125 4.125z" fill="#FCA"/></svg>