<svg width="39" height="42" fill="none" xmlns="http://www.w3.org/2000/svg"><path d="M6.952 27.094V13.302c0-6.98 5.58-12.599 12.512-12.599s12.513 5.62 12.513 12.6v13.791H6.952z" fill="#C6DDFF"/><path d="M11.358 25.879C5.391 26.245.693 31.31.693 37.549v3.75h37.538v-3.75c0-6.238-4.698-11.304-10.664-11.67" fill="#fff"/><path d="M15.291 20.605v4.287l4.172 4.2 4.17-4.198v-4.288H15.29z" fill="#FCA"/><path d="m13.84 23.434 5.622 5.656-2.41 2.424-5.621-5.656 2.409-2.424zM21.87 31.514l5.622-5.656-2.41-2.424-5.62 5.656 2.409 2.424z" fill="#C6DDFF"/><path d="M15.291 20.605V22.1a7.32 7.32 0 0 0 4.17 1.297 7.32 7.32 0 0 0 4.172-1.297v-1.495H15.29z" fill="#FFB889"/><path d="M12.054 10.501v3.989c0 4.159 3.304 7.507 7.409 7.507s7.41-3.348 7.41-7.507V10.5h-4.716c-2.347 0-4.336-1.85-4.691-4.2-.025 2.265-1.833 4.2-4.065 4.2h-1.347z" fill="#FCA"/><path d="M13.444 10.5c-.015 0-.029.003-.043.003h-1.347v3.989c0 4.159 3.304 7.507 7.409 7.507.234 0 .466-.016.695-.037-3.776-.354-6.714-3.55-6.714-7.47V10.5z" fill="#FFB889"/><path d="M12.054 12.013a2.028 2.028 0 0 0-.505-.064c-.581 0-1.138.25-1.548.694a2.468 2.468 0 0 0-.642 1.674c0 .31.057.618.167.906.11.287.271.548.475.768.203.22.444.394.71.513a2.047 2.047 0 0 0 1.647.012" fill="#FFB889"/><path d="M26.87 12.013a2.03 2.03 0 0 1 1.344.116c.265.12.507.294.71.514.203.22.364.48.474.768.11.287.167.595.167.906 0 .628-.23 1.23-.641 1.674-.41.444-.967.693-1.548.693-.277 0-.552-.057-.81-.168" fill="#FCA"/><path d="M19.463 0C12.16 0 6.256 5.933 6.256 13.3V26.69C2.526 28.788 0 32.843 0 37.549v3.748A.698.698 0 0 0 .692 42h37.542a.698.698 0 0 0 .693-.703V37.55c0-4.683-2.527-8.755-6.255-10.858v-13.39C32.672 5.936 26.768 0 19.464 0zm0 1.401c6.544 0 11.819 5.31 11.819 11.9v12.715a11.637 11.637 0 0 0-3.455-.812l-2.251-2.267a.693.693 0 0 0-.98 0l-.268.27v-2.143a8.232 8.232 0 0 0 2.732-3.698l.004-.015c.104.012.207.032.312.032 1.613 0 2.884-1.404 2.884-3.064 0-1.593-1.175-2.941-2.694-3.049v-.77a.698.698 0 0 0-.692-.698h-4.716c-1.984 0-3.7-1.587-4.005-3.606a.697.697 0 0 0-1.384.098c-.021 1.895-1.533 3.508-3.366 3.508h-1.35a.698.698 0 0 0-.693.697v.771c-1.522.106-2.698 1.455-2.698 3.049 0 1.66 1.271 3.064 2.884 3.064.107 0 .212-.02.317-.033l.005.014a8.128 8.128 0 0 0 2.73 3.696v2.145l-.267-.268a.693.693 0 0 0-.98 0l-2.243 2.259a11.778 11.778 0 0 0-3.462.817V13.3c0-6.596 5.274-11.899 11.817-11.899zm-1.879 7.184c.791 1.304 2.43 2.618 4.574 2.618h4.018v3.286c0 3.785-3.01 6.81-6.712 6.81-3.714 0-6.713-3.025-6.713-6.81v-3.286h.652c2.05 0 3.566-1.37 4.181-2.618zm-6.224 5.903c0 .511.043 1.009.131 1.493-.781-.031-1.438-.729-1.438-1.662 0-.88.585-1.548 1.307-1.649v1.819zm16.206-1.818c.72.103 1.303.77 1.303 1.649 0 .932-.655 1.627-1.435 1.661.088-.484.132-.982.132-1.492V12.67zm-4.628 9.24v2.694l-3.474 3.494-3.475-3.493v-2.692a8.066 8.066 0 0 0 6.949-.003zm2.145 2.515 1.427 1.434-4.64 4.666-1.42-1.434 4.633-4.666zm-11.242.001 4.637 4.665-1.427 1.436-4.636-4.668 1.426-1.433zm13.907 2.166c5.49.465 9.789 5.173 9.789 10.957V40.6h-6.255V37.1a.697.697 0 0 0-.709-.707.698.698 0 0 0-.683.707V40.6H9.035V37.1a.698.698 0 0 0-.707-.707.698.698 0 0 0-.683.707V40.6H1.39V37.55c0-5.792 4.294-10.503 9.792-10.953l5.382 5.415c.27.271.709.271.98 0l1.92-1.93 1.92 1.93c.27.271.708.271.98 0l5.384-5.42z" fill="#002356"/></svg>