<svg width="39" height="42" fill="none" xmlns="http://www.w3.org/2000/svg"><path d="M11.38 26.578C5.402 26.944.695 32.011.695 38.248V41.3h37.609v-3.05c0-6.238-4.707-11.305-10.685-11.67" fill="#fff"/><path d="M15.32 21.305v4.287l4.18 4.2 4.178-4.199v-4.288H15.32z" fill="#FCA"/><path d="m13.867 24.133 5.632 5.657-2.414 2.424-5.632-5.657 2.414-2.424zM21.913 32.214l5.632-5.657-2.414-2.424L19.5 29.79l2.414 2.424z" fill="#A0C7E7"/><path d="M15.32 21.305v1.494a7.343 7.343 0 0 0 4.179 1.297c1.553 0 2.99-.479 4.179-1.297v-1.494H15.32z" fill="#FFB889"/><path d="M9.828 13.575a10.147 10.147 0 0 1-.386-2.772C9.442 5.223 13.945.7 19.5.7s10.058 4.524 10.058 10.104c0 .936-.13 1.867-.385 2.767" fill="#C6DDFF"/><path d="M12.076 11.2v3.99c0 4.159 3.31 7.507 7.423 7.507 4.113 0 7.424-3.348 7.424-7.507V11.2h-4.724c-2.352 0-4.345-1.85-4.7-4.2-.025 2.266-1.837 4.2-4.073 4.2h-1.35z" fill="#FCA"/><path d="M13.47 11.197c-.016 0-.03.003-.045.003h-1.349v3.99c0 4.158 3.31 7.507 7.423 7.507.235 0 .467-.016.697-.037-3.783-.354-6.727-3.55-6.727-7.47v-3.993z" fill="#FFB889"/><path d="M12.077 12.713a2.037 2.037 0 0 0-.507-.065c-.582 0-1.14.25-1.55.694a2.467 2.467 0 0 0-.643 1.674c0 .311.057.619.167.906.11.287.272.549.475.768.204.22.446.395.712.514a2.053 2.053 0 0 0 1.65.012" fill="#FFB889"/><path d="M26.923 12.713a2.037 2.037 0 0 1 1.346.116c.266.119.508.293.711.513.204.22.365.48.476.768.11.287.166.595.166.906 0 .628-.23 1.23-.642 1.674-.411.444-.969.694-1.55.694-.279 0-.554-.057-.812-.168" fill="#FCA"/><path d="M19.5 0C13.568 0 8.743 4.846 8.743 10.805c0 .905.117 1.818.332 2.662a3.18 3.18 0 0 0-.393 1.55c0 1.66 1.273 3.064 2.889 3.064.11 0 .21-.006.318-.019a8.131 8.131 0 0 0 2.736 3.697v2.145l-.267-.268a.695.695 0 0 0-.982 0l-2.247 2.259C4.888 26.39 0 31.7 0 38.248v3.05A.698.698 0 0 0 .694 42h37.612a.698.698 0 0 0 .694-.703v-3.049c0-6.515-4.889-11.867-11.122-12.345l-2.255-2.267a.695.695 0 0 0-.982 0l-.268.27v-2.143a8.233 8.233 0 0 0 2.737-3.698c.108.013.207.016.317.016 1.616 0 2.89-1.377 2.89-3.064a3.16 3.16 0 0 0-.397-1.553c.224-.876.335-1.754.335-2.66C30.255 4.847 25.43 0 19.499 0zm9.362 10.805c0 .501-.042 1.02-.117 1.482a2.75 2.75 0 0 0-1.128-.332v-.758a.698.698 0 0 0-.693-.697h-4.725c-1.987 0-3.706-1.587-4.011-3.607a.698.698 0 0 0-1.387.099c-.021 1.895-1.536 3.508-3.372 3.508h-1.353a.698.698 0 0 0-.695.697v.758a2.736 2.736 0 0 0-1.125.33 9.218 9.218 0 0 1-.118-1.48c0-5.202 4.183-9.404 9.361-9.404 5.179 0 9.363 4.202 9.363 9.404zM17.618 9.284c.792 1.304 2.434 2.617 4.581 2.617h4.025v3.286c0 3.785-3.015 6.811-6.725 6.811-3.72 0-6.723-3.026-6.723-6.811V11.9h.652c2.053 0 3.573-1.37 4.19-2.617zm-6.237 4.076v1.827c0 .51.044 1.008.132 1.493-.785-.03-1.442-.75-1.442-1.663 0-.86.588-1.554 1.31-1.657zm16.236.003c.722.102 1.306.775 1.306 1.654 0 .935-.67 1.634-1.438 1.663.088-.485.132-.983.132-1.493v-1.824zM16.02 22.612a8.087 8.087 0 0 0 6.96-.003v2.693l-3.48 3.495-3.48-3.493v-2.692zm-2.152 2.513 4.645 4.665-1.43 1.437-4.645-4.67 1.43-1.432zm11.261-.002 1.43 1.435-4.648 4.666-1.424-1.434 4.642-4.667zm2.67 2.167c5.501.466 9.808 5.174 9.808 10.958V40.6H31.34v-2.801a.698.698 0 1 0-1.394 0v2.8H9.053v-2.8a.698.698 0 0 0-.71-.707.699.699 0 0 0-.683.707v2.8H1.393v-2.35c0-5.793 4.302-10.504 9.81-10.954l5.392 5.415c.272.271.71.271.982 0l1.922-1.93 1.924 1.93c.271.271.71.271.982 0l5.395-5.42z" fill="#002356"/></svg>