<svg width="40" height="38" fill="none" xmlns="http://www.w3.org/2000/svg"><path fill-rule="evenodd" clip-rule="evenodd" d="M17.229 13.25a12.949 12.949 0 0 0-2.638 2.733c-3.149 4.4-3.162 10.1-.474 14.427 0 .003.003.005.003.007a12.92 12.92 0 0 0 3.116 3.434l.013.01c.106.084.217.163.328.243 5.822 4.18 13.925 2.84 18.1-2.988 3.752-5.24 3.052-12.323-1.355-16.738-.499-.496-1.041-.96-1.63-1.383a12.942 12.942 0 0 0-11.087-1.942c-.02.006-.135.028-.155.033l.084 2.532 3.039.915c2-.126 4.061.413 5.818 1.674 4.05 2.907 4.98 8.55 2.077 12.605a9.017 9.017 0 0 1-11.091 2.953 8.818 8.818 0 0 1-1.5-.873 8.989 8.989 0 0 1-1.784-1.688c-2.472-3.082-2.707-7.547-.293-10.917a8.982 8.982 0 0 1 2.419-2.317c.053-.035.327-.186.383-.222l-.742-2.44-2.547-.13c-.02.014-.064.056-.084.072z" fill="#FFF2ED"/><path fill-rule="evenodd" clip-rule="evenodd" d="M10.559 1.459c-.386 0-.417.175-.632.494L8.56 3.883c-.21.332-.206.416.037.755l2.83 3.945 2.087 1.343 2.172-1.343 2.833-3.945c.241-.339.248-.423.038-.756l-1.369-1.929c-.215-.319-.246-.494-.631-.494H10.559z" fill="#FCA"/><path fill-rule="evenodd" clip-rule="evenodd" d="M13.557 8.408c-.726 0-1.437.06-2.13.175C5.277 9.6.586 14.95.586 21.394c0 7.173 5.807 12.986 12.971 12.986a12.92 12.92 0 0 0 3.679-.528 12.919 12.919 0 0 1-3.116-3.434l-.002-.007a7.8 7.8 0 0 1-.56.018c-4.984 0-9.026-4.044-9.026-9.035 0-4.989 4.042-9.033 9.025-9.033a8.97 8.97 0 0 1 3.756.819 9.033 9.033 0 0 1 5.267 8.214c0 3.355-1.774 6.252-4.487 7.811a8.998 8.998 0 0 0 1.785 1.687c.478.346.98.637 1.499.874 3.105-2.372 5.151-6.16 5.151-10.372a12.93 12.93 0 0 0-1.955-6.86 13.098 13.098 0 0 0-3.123-3.447 12.915 12.915 0 0 0-7.893-2.679z" fill="#FFF2ED"/><path fill-rule="evenodd" clip-rule="evenodd" d="m30.854 7.038.004 4.857 1.037 2.242 2.427.242 4.595-1.554c.394-.134.447-.2.47-.592l.01-2.366c.012-.384.09-.546-.225-.772l-.304-.217-.4-.288-1.732-1.242-1.732-1.244-.403-.288-.304-.217c-.312-.226-.44-.1-.8.033l-2.234.77c-.365.148-.41.219-.41.636z" fill="#FCA"/><path fill-rule="evenodd" clip-rule="evenodd" d="M23.776 36.466a12.958 12.958 0 0 0 11.902-5.35c3.751-5.239 3.051-12.323-1.358-16.737a13.15 13.15 0 0 0-1.628-1.384 12.876 12.876 0 0 0-2.343-1.339c.346 1.599.567 3.282.647 5.024 3.532 3.016 4.225 8.288 1.472 12.133a8.98 8.98 0 0 1-5.122 3.496c-1.028 1.667-2.233 3.077-3.57 4.157zM10.25 33.953a13 13 0 0 0 3.307.426c1.282 0 2.507-.182 3.679-.528a12.922 12.922 0 0 1-3.116-3.434l-.002-.007c-.206.014-.35.018-.56.018a9.64 9.64 0 0 1-.723-.029c-.757 1.344-1.628 2.54-2.584 3.554zm5.57-21.307a9.032 9.032 0 0 1 6.76 8.747c0 3.355-1.774 6.252-4.487 7.811a8.995 8.995 0 0 0 1.785 1.687c.478.346.98.637 1.499.874 3.105-2.372 5.151-6.16 5.151-10.372 0-2.519-.715-4.869-1.955-6.86a13.096 13.096 0 0 0-3.123-3.447 12.915 12.915 0 0 0-6.518-2.606c.388 1.322.69 2.716.888 4.166z" fill="#8EC0FF"/><path fill-rule="evenodd" clip-rule="evenodd" d="M9.927 1.953 8.56 3.88v.002c-.06.096-.104.171-.129.24h10.254a1.314 1.314 0 0 0-.128-.24l-1.37-1.929c-.214-.319-.245-.494-.63-.494H10.559c-.249 0-.35.073-.45.21-.053.076-.107.17-.182.282v.002zM31.02 6.521l8.001 6.266c.142-.053.226-.1.28-.173.057-.082.075-.195.086-.382l.01-2.365c.012-.384.09-.546-.225-.772l-.304-.217-.4-.288-1.732-1.242-1.732-1.244-.403-.288-.304-.217c-.312-.226-.44-.1-.8.033l-2.234.77a1.24 1.24 0 0 0-.244.12z" fill="#FCA"/><path fill-rule="evenodd" clip-rule="evenodd" d="m14.281 1.459 1.29 1.984c.178.31.2.424.055.679h3.058a1.309 1.309 0 0 0-.129-.24l-1.368-1.929c-.215-.319-.246-.494-.631-.494H14.28z" fill="#FCA"/><path fill-rule="evenodd" clip-rule="evenodd" d="m15.532 4.27-2.73 4.157c.25-.014.503-.02.755-.02.726 0 1.437.057 2.13.173l2.83-3.942v-.003a.047.047 0 0 0 .01-.01c.166-.233.214-.344.157-.504h-3.059a1.907 1.907 0 0 1-.093.149zM32.692 12.995c.589.42 1.134.884 1.63 1.383l4.595-1.554.104-.038L37 11.203c-.057.027-.13.056-.221.084l-4.398 1.488c.104.071.208.144.312.22zM37.25 10.695c-.018.304-.053.413-.25.508l2.022 1.583c.139-.053.223-.1.276-.17l.002-.003c.058-.082.076-.195.087-.381l.011-2.366c.011-.384.088-.545-.226-.772l-.303-.217-.401-.288-1.387-.993c.26.206.189.37.18.734l-.011 2.365z" fill="#FCA"/><path d="m39.513 8.618-4.872-3.494c-.524-.38-.93-.211-1.2-.1-.043.018-2.389.83-2.398.834a2.124 2.124 0 0 0-.271.131.585.585 0 0 0-.16.11c-.253.207-.344.484-.344.939l.003 3.948a13.478 13.478 0 0 0-8.699-.531 13.498 13.498 0 0 0-4.882-2.267l2.305-3.21c.45-.625.235-1.095.189-1.168-.036-.077-1.571-2.277-1.595-2.316-.164-.262-.388-.621-1.033-.621h-5.998c-.645 0-.87.36-1.032.621C9.5 1.534 7.95 3.761 7.91 3.85a.58.58 0 0 0-.055.156c-.09.32-.004.6.264.974l2.303 3.209C4.452 9.609 0 14.989 0 21.393c0 7.484 6.082 13.572 13.557 13.572 1.21 0 2.405-.16 3.557-.473l.121.088a13.445 13.445 0 0 0 7.87 2.545c.74 0 1.486-.06 2.231-.183a13.47 13.47 0 0 0 8.818-5.485c3.727-5.205 3.239-12.178-.788-16.814l3.739-1.264c.62-.21.831-.48.867-1.114 0-.01.017-2.493.02-2.538.02-.309.047-.73-.479-1.109zm-5.553-2.54 4.867 3.49-.024 2.303-6.606-5.172 1.763-.621zm-2.52 1.517 6.368 4.985-3.337 1.129a13.605 13.605 0 0 0-3.027-2.174l-.004-3.94zm-20.876-5.55h5.986l1.042 1.49H9.523l1.041-1.49zM9.367 4.708h8.38L15.418 7.95a13.597 13.597 0 0 0-3.724 0L9.367 4.708zM1.172 21.393c0-6.837 5.556-12.4 12.385-12.4 6.83 0 12.385 5.563 12.385 12.4 0 3.73-1.727 7.323-4.639 9.684a8.555 8.555 0 0 1-2.316-1.741c2.63-1.776 4.179-4.695 4.179-7.943 0-2.241-.77-4.306-2.06-5.943l-.01-.018a.591.591 0 0 0-.095-.114 9.666 9.666 0 0 0-3.484-2.688 9.544 9.544 0 0 0-3.96-.856 9.626 9.626 0 0 0-8.133 4.494.586.586 0 1 0 .99.628 8.45 8.45 0 0 1 7.144-3.95c.912 0 1.792.147 2.616.417a13.566 13.566 0 0 0-2.059 2.279 13.514 13.514 0 0 0-2.536 7.571 13.58 13.58 0 0 0 1.532 6.617c-4.446-.233-7.992-3.928-7.992-8.437 0-.728.093-1.454.277-2.157a.586.586 0 0 0-1.133-.297c-.21.8-.316 1.626-.316 2.454 0 5.305 4.311 9.62 9.61 9.62.091 0 .17 0 .248-.002.617.94 1.344 1.791 2.168 2.546-.79.155-1.599.236-2.416.236-6.83 0-12.385-5.562-12.385-12.4zm20.822 0c0 2.888-1.393 5.479-3.75 7.03-2.013-2.857-2.113-6.797.033-9.795a8.38 8.38 0 0 1 2.17-2.104 8.407 8.407 0 0 1 1.547 4.87zM35.2 30.774a12.305 12.305 0 0 1-8.056 5.011 12.29 12.29 0 0 1-9.532-2.384l-.008-.007A12.297 12.297 0 0 1 14.6 30.08a12.379 12.379 0 0 1 .467-13.756 12.374 12.374 0 0 1 2.323-2.454 8.485 8.485 0 0 1 2.312 1.743 9.555 9.555 0 0 0-2.379 2.333c-2.554 3.567-2.315 8.306.285 11.586a.594.594 0 0 0 .073.09 9.594 9.594 0 0 0 1.854 1.745 9.716 9.716 0 0 0 1.597.93l.006.003a9.49 9.49 0 0 0 3.975.871 9.73 9.73 0 0 0 1.583-.13 9.546 9.546 0 0 0 6.248-3.888.586.586 0 0 0-.953-.682 8.38 8.38 0 0 1-5.486 3.414 8.387 8.387 0 0 1-3.99-.302c2.895-2.578 4.599-6.316 4.599-10.19 0-2.264-.558-4.4-1.541-6.278a8.444 8.444 0 0 1 4.475 1.568c2.96 2.123 4.238 6.023 3.111 9.484a.586.586 0 0 0 1.115.363 9.554 9.554 0 0 0-.016-5.977 9.56 9.56 0 0 0-3.526-4.822 9.614 9.614 0 0 0-5.856-1.797 13.67 13.67 0 0 0-2.168-2.545 12.293 12.293 0 0 1 7.91 1.04c.599.298 1.178.645 1.731 1.042 5.551 3.985 6.83 11.747 2.85 17.303z" fill="#002356"/></svg>