<svg width="41" height="42" fill="none" xmlns="http://www.w3.org/2000/svg"><path d="M33.313 41.145H7.688a2.56 2.56 0 0 1-2.563-2.563v-20.5c0-5.663 4.587-10.25 10.25-10.25h10.25c5.663 0 10.25 4.587 10.25 10.25v20.5a2.56 2.56 0 0 1-2.562 2.563z" fill="#C6DDFF"/><path d="M33.313 42H7.687a3.416 3.416 0 0 1-3.416-3.417v-20.5c0-6.125 4.98-11.104 11.104-11.104h10.25c6.125 0 11.104 4.98 11.104 11.104v20.5A3.416 3.416 0 0 1 33.313 42zM15.375 8.687c-5.185 0-9.396 4.211-9.396 9.396v20.5c0 .94.769 1.709 1.708 1.709h25.626c.94 0 1.708-.77 1.708-1.709v-20.5c0-5.185-4.211-9.396-9.396-9.396h-10.25z" fill="#002356"/><path d="M29.04 27.05v8.116c0 .94-.768 1.708-1.708 1.708H13.665c-.94 0-1.708-.769-1.708-1.709v-8.114" fill="#fff"/><path d="M27.332 37.729H13.665a2.57 2.57 0 0 1-2.563-2.563v-8.115c0-.47.385-.854.855-.854s.854.385.854.854v8.115c0 .47.384.854.854.854h13.667c.47 0 .854-.384.854-.854v-8.115c0-.47.384-.854.854-.854s.855.385.855.854v8.115a2.57 2.57 0 0 1-2.563 2.563z" fill="#002356"/><path d="M30.101 26.786 23.61 28.41a12.768 12.768 0 0 1-6.218 0l-6.492-1.623a.85.85 0 0 1-.649-.829V21.5c0-.47.384-.854.854-.854h18.792c.47 0 .854.384.854.854v4.459a.85.85 0 0 1-.649.828z" fill="#fff"/><path d="M20.5 29.648c-1.12 0-2.23-.136-3.314-.41l-6.492-1.623a1.7 1.7 0 0 1-1.298-1.657V21.5c0-.94.768-1.708 1.708-1.708h18.792c.94 0 1.708.769 1.708 1.708v4.46a1.7 1.7 0 0 1-1.298 1.656l-6.492 1.623c-1.085.274-2.195.41-3.314.41zM11.104 21.5v4.46l6.492 1.622c1.896.47 3.903.47 5.8 0l6.491-1.623.205.829-.196-.829V21.5H11.104zM25.214 9h-9.428C15.354 9 15 8.55 15 8V5c0-2.76 1.76-5 3.929-5h3.142C24.24 0 26 2.24 26 5v3c0 .55-.354 1-.786 1zm-8.643-2h7.858V5c0-1.65-1.061-3-2.358-3H18.93c-1.297 0-2.358 1.35-2.358 3v2z" fill="#002356"/><path d="M38.438 36.875h-2.562v-10.25h2.563c.94 0 1.708.769 1.708 1.708v6.834c0 .94-.769 1.708-1.709 1.708z" fill="#FCA"/><path d="M38.438 37.73h-2.562a.857.857 0 0 1-.854-.854v-10.25c0-.47.384-.855.854-.855h2.562a2.57 2.57 0 0 1 2.563 2.563v6.833a2.57 2.57 0 0 1-2.563 2.563zm-1.708-1.708h1.708c.47 0 .854-.385.854-.855v-6.833a.857.857 0 0 0-.854-.854H36.73v8.542z" fill="#002356"/><path d="M2.563 36.875h2.562v-10.25H2.563c-.94 0-1.709.769-1.709 1.708v6.834c0 .94.77 1.708 1.709 1.708z" fill="#FCA"/><path d="M5.125 37.73H2.563A2.57 2.57 0 0 1 0 35.167v-6.833a2.57 2.57 0 0 1 2.563-2.563h2.562c.47 0 .854.385.854.855v10.25c0 .47-.384.854-.854.854zM2.563 27.48a.857.857 0 0 0-.855.854v6.833c0 .47.385.855.855.855H4.27V27.48H2.563z" fill="#002356"/></svg>